<svg viewBox="0 0 800 800" xmlns="http://www.w3.org/2000/svg"><path d="M413.17086197847493,266.59348191966023 L408.9271758364726,263.93911689762507 M408.9271758364726,263.93911689762507 L404.10304735364093,262.26424931273493 M404.10304735364093,262.26424931273493 L398.9788069095553,261.66618684189035 M398.9788069095553,261.66618684189035 L393.85221096472816,262.17967261519794 M393.85221096472816,262.17967261519794 L389.02115677594406,263.7748819087531 M389.02115677594406,263.7748819087531 L384.766371085777,266.3591292585826 M384.766371085777,266.3591292585826 L381.33511735835657,269.7822665094462 M381.33511735835657,269.7822665094462 L378.9268110223192,273.84539752476815 M378.9268110223192,273.84539752476815 L377.6814402898444,278.3124144222201 M377.6814402898444,278.3124144222201 L377.671421362845,282.9237354545432 M377.671421362845,282.9237354545432 L378.8973825389285,287.41135836666797 M378.8973825389285,287.41135836666797 L381.2881155526937,291.5144641528027 M381.2881155526937,291.5144641528027 L384.70470302092036,294.994565279118 M384.70470302092036,294.994565279118 L388.94859174965416,297.649360549428 M388.94859174965416,297.649360549428 L393.7731221413633,299.3245376730255 M393.7731221413633,299.3245376730255 L398.8978784275286,299.92270866236686 M398.8978784275286,299.92270866236686 L404.0249819672173,299.4090996293748 M404.0249819672173,299.4090996293748 L408.8564227599712,297.813574831454 M408.8564227599712,297.813574831454 L413.1113811098689,295.2288795485114 M413.1113811098689,295.2288795485114 L416.54255964432787,291.8052749068887 M416.54255964432787,291.8052749068887 L418.95055518737774,287.7417634780263 M418.95055518737774,287.7417634780263 L420.1954544400449,283.2745342601603 M420.1954544400449,283.2745342601603 L420.20494385808354,278.66322248831636 M420.20494385808354,278.66322248831636 L418.978522005814,274.17582498488633 M418.978522005814,274.17582498488633 L416.5875013545217,270.07311187961955 M416.5875013545217,270.07311187961955 L413.17086197847493,266.59348191966023 M406.3167340822522,477.1899992794033 L413.17086197847493,266.59348191966023 M406.3167340822522,477.1899992794033 L402.0825471902566,474.540121691987 M402.0825471902566,474.540121691987 L397.2691926854103,472.86813375698046 M397.2691926854103,472.86813375698046 L392.15636727482706,472.2711578567147 M392.15636727482706,472.2711578567147 L387.04118492773136,472.78387744977897 M387.04118492773136,472.78387744977897 L382.22085879859657,474.37650667377034 M382.22085879859657,474.37650667377034 L377.97551640652,476.95653349943916 M377.97551640652,476.95653349943916 L374.55183684247686,480.3740478541748 M374.55183684247686,480.3740478541748 L372.14881849479093,484.43047402777313 M372.14881849479093,484.43047402777313 L370.9061374471439,488.89007934734343 M370.9061374471439,488.89007934734343 L370.896055892492,493.49373534713527 M370.896055892492,493.49373534713527 L372.11921004708506,497.9738759002714 M372.11921004708506,497.9738759002714 L374.5045475214962,502.0701196037145 M374.5045475214962,502.0701196037145 L377.9134657809319,505.54436533692024 M377.9134657809319,505.54436533692024 L382.147851131839,508.1946505975907 M382.147851131839,508.1946505975907 L386.9616072668747,509.86697136531336 M386.9616072668747,509.86697136531336 L392.0749211904732,510.4640514202441 M392.0749211904732,510.4640514202441 L397.1906221484892,509.9512044205229 M397.1906221484892,509.9512044205229 L402.0113324089575,508.3582298475719 M402.0113324089575,508.3582298475719 L406.2568607281462,505.77776843805907 M406.2568607281462,505.77776843805907 L409.68046392840216,502.35978938503365 M409.68046392840216,502.35978938503365 L412.08316111747524,498.30300286130216 M412.08316111747524,498.30300286130216 L413.32537127360825,493.8431589264569 M413.32537127360825,493.8431589264569 L413.334927946408,489.23951128605006 M413.334927946408,489.23951128605006 L412.1113151603468,484.75961018865416 M412.1113151603468,484.75961018865416 L409.72570251301363,480.6637783000366 M409.72570251301363,480.6637783000366 L406.3167340822522,477.1899992794033" stroke="black"  stroke-width="4"  fill="red"/>
<path d="M415.27929748835743,317.6557883175045 L411.0344366655558,317.34305730048237 M411.0344366655558,317.34305730048237 L406.20910376656525,317.1788063714066 M406.20910376656525,317.1788063714066 L401.0836527229861,317.1725647102754 M401.0836527229861,317.1725647102754 L395.95586220528435,317.3246916829846 M395.95586220528435,317.3246916829846 L391.12364206565746,317.62635689312566 M391.12364206565746,317.62635689312566 L386.8677495797969,318.060029398808 M386.8677495797969,318.060029398808 L383.4354857285858,318.6005286873982 M383.4354857285858,318.6005286873982 L381.0263347275008,319.2164480814606 M381.0263347275008,319.2164480814606 L379.7803595217198,319.87200650431635 M379.7803595217198,319.87200650431635 L379.7700643232868,320.529101780374 M379.7700643232868,320.529101780374 L380.99614181692266,321.1495561424679 M380.99614181692266,321.1495561424679 L383.387427170043,321.69729727080306 M383.387427170043,321.69729727080306 L386.8050065115661,322.14048228814886 M386.8050065115661,322.14048228814886 L391.0502701064848,322.4533390362037 M391.0502701064848,322.4533390362037 L395.8764701114513,322.617679605837 M395.8764701114513,322.617679605837 L401.00304726525326,322.6239442225147 M401.00304726525326,322.6239442225147 L406.13196892746873,322.47176172222487 M406.13196892746873,322.47176172222487 L410.9650625733312,322.1699904090416 M410.9650625733312,322.1699904090416 L415.22137520616525,321.73617151223493 M415.22137520616525,321.73617151223493 L418.6535039460703,321.1955281831455 M418.6535039460703,321.1955281831455 L421.06200050451656,320.57949371248657 M421.06200050451656,320.57949371248657 L422.3069481467161,319.9238815755258 M422.3069481467161,319.9238815755258 L422.31608341744146,319.2668014024054 M422.31608341744146,319.2668014024054 L421.0889737970084,318.64643081347947 M421.0889737970084,318.64643081347947 L418.6970218962551,318.09882017321877 M418.6970218962551,318.09882017321877 L415.27929748835743,317.6557883175045 M422.1139863487866,782.7419616821553 L415.27929748835743,317.6557883175045 M422.1139863487866,782.7419616821553 L417.8703665161999,782.422056415934 M417.8703665161999,782.422056415934 L413.0464936419034,782.2533325203832 M413.0464936419034,782.2533325203832 L407.92266043283183,782.2455026558797 M407.92266043283183,782.2455026558797 L402.79650881449294,782.3990776368198 M402.79650881449294,782.3990776368198 L397.9658841125456,782.7050941055244 M397.9658841125456,782.7050941055244 L393.71144623839115,783.1458070772385 M393.71144623839115,783.1458070772385 L390.28040555777596,783.6956106059805 M390.28040555777596,783.6956106059805 L387.8721931764035,784.3225714318016 M387.8721931764035,784.3225714318016 L386.6267929228353,784.9902251436198 M386.6267929228353,784.9902251436198 L386.61668457546705,785.6598146318842 M386.61668457546705,785.6598146318842 L387.84256034372186,786.2924156859343 M387.84256034372186,786.2924156859343 L390.2332464606631,786.8512763474187 M390.2332464606631,786.8512763474187 L393.64988549136615,787.3038615587838 M393.64988549136615,787.3038615587838 L397.89391111122484,787.6238740322192 M397.89391111122484,787.6238740322192 L402.71864904908676,787.7927139452297 M402.71864904908676,787.7927139452297 L407.84363275134587,787.8005643875875 M407.84363275134587,787.8005643875875 L412.97090148440054,787.6469449077543 M412.97090148440054,787.6469449077543 L417.8023998723887,787.3407885409986 M417.8023998723887,787.3407885409986 L422.0572435233164,786.8999219665941 M422.0572435233164,786.8999219665941 L425.4881506562117,786.349970771267 M425.4881506562117,786.349970771267 L427.8957207588544,785.7229300786963 M427.8957207588544,785.7229300786963 L429.14009559993735,785.0551924276065 M429.14009559993735,785.0551924276065 L429.1490424736518,784.3856188889696 M429.1490424736518,784.3856188889696 L427.9221352522235,783.7530878835512 M427.9221352522235,783.7530878835512 L425.530771831083,783.1943953819699 M425.530771831083,783.1943953819699 L422.1139863487866,782.7419616821553" stroke="black"  stroke-width="4"  fill="red"/>
<path d="M380.37538747757173,297.4948103076866 L376.9796453743523,294.00256837662556 M376.9796453743523,294.00256837662556 L372.9539690219347,290.8434863159158 M372.9539690219347,290.8434863159158 L368.53225703994366,288.20109879957806 M368.53225703994366,288.20109879957806 L363.9714080549064,286.2289269886874 M363.9714080549064,286.2289269886874 L359.5364105733508,285.04157914874145 M359.5364105733508,285.04157914874145 L355.4849548046126,284.70806875892816 M355.4849548046126,284.70806875892816 L352.05248263686104,285.24781979436096 M352.05248263686104,285.24781979436096 L349.43848859292814,286.6295190701963 M349.43848859292814,286.6295190701963 L347.7949341617516,288.77292358537716 M347.7949341617516,288.77292358537716 L347.21740511078167,291.55352365415706 M347.21740511078167,291.55352365415706 L347.7395429678145,294.80974004398036 M347.7395429678145,294.80974004398036 L349.33106669031906,298.3523401030791 M349.33106669031906,298.3523401030791 L351.89952226068436,301.9754135189591 M351.89952226068436,301.9754135189591 L355.2956416676905,305.46834825622796 M355.2956416676905,305.46834825622796 L359.32202134482503,308.6280876686536 M359.32202134482503,308.6280876686536 L363.74460560004957,311.27094483045823 M363.74460560004957,311.27094483045823 L368.30629119491164,313.2432917596004 M368.30629119491164,313.2432917596004 L372.74190370147767,314.43047686050534 M372.74190370147767,314.43047686050534 L376.79360361888365,314.76352702892757 M376.79360361888365,314.76352702892757 L380.2259035751891,314.22312157492377 M380.2259035751891,314.22312157492377 L382.8393435242385,312.840729986797 M382.8393435242385,312.840729986797 L384.48208782884046,310.69674087533343 M384.48208782884046,310.69674087533343 L385.05873496590976,307.9158136251321 M385.05873496590976,307.9158136251321 L384.53584880840316,304.659587136283 M384.53584880840316,304.659587136283 L382.9438812715826,301.1173049073482 M382.9438812715826,301.1173049073482 L380.37538747757173,297.4948103076866 M160.66804995158836,631.2023027325777 L380.37538747757173,297.4948103076866 M160.66804995158836,631.2023027325777 L157.27874211499255,627.7115636296666 M157.27874211499255,627.7115636296666 L153.25913215851972,624.5553507850241 M153.25913215851972,624.5553507850241 L148.84274058326272,621.9170588416555 M148.84274058326272,621.9170588416555 L144.28618829388245,619.949954375509 M144.28618829388245,619.949954375509 L139.85420051889423,618.7683659594894 M139.85420051889423,618.7683659594894 L135.8043132869359,618.4409363989527 M135.8043132869359,618.4409363989527 L132.37183724558048,618.9867765163604 M132.37183724558048,618.9867765163604 L129.75629023577505,620.3741985942779 M129.75629023577505,620.3741985942779 L128.1097235393724,622.5226548038994 M128.1097235393724,622.5226548038994 L127.52790370044386,625.3073007739264 M127.52790370044386,625.3073007739264 L128.04471865123378,628.566341399444 M128.04471865123378,628.566341399444 L129.63017893517832,632.1103745769132 M129.63017893517832,632.1103745769132 L132.19220238580397,635.7334178910523 M132.19220238580397,635.7334178910523 L135.5818843115776,639.2248517074585 M135.5818843115776,639.2248517074585 L139.60220815535615,642.3816861562233 M139.60220815535615,642.3816861562233 L144.01944408028746,645.0204462715332 M144.01944408028746,645.0204462715332 L148.5768329209904,646.9877231699227 M148.5768329209904,646.9877231699227 L153.0094335313577,648.1691767942898 M153.0094335313577,648.1691767942898 L157.05958155112958,648.4961246189279 M157.05958155112958,648.4961246189279 L160.49188517228234,647.949631355924 M160.49188517228234,647.949631355924 L163.10686602709058,646.5615063359925 M163.10686602709058,646.5615063359925 L164.75262405058245,644.4124988975242 M164.75262405058245,644.4124988975242 L165.3335779365716,641.627516005312 M165.3335779365716,641.627516005312 L164.8160165917957,638.368484494275 M164.8160165917957,638.368484494275 L163.23011264649452,634.8247444125107 M163.23011264649452,634.8247444125107 L160.66804995158836,631.2023027325777" stroke="black"  stroke-width="4"  fill="red"/>
<path d="M667.7744172078828,628.399054359757 L448.07634622958045,286.7477941805845 M667.7744172078828,628.399054359757 L664.3770646917985,627.9381933325686 M664.3770646917985,627.9381933325686 L660.3516673839983,628.3292338184433 M660.3516673839983,628.3292338184433 L655.9321684784702,629.5494298117126 M655.9321684784702,629.5494298117126 L651.3753313103716,631.5278635865038 M651.3753313103716,631.5278635865038 L646.9459207925536,634.1495714249693 M646.9459207925536,634.1495714249693 L642.901287957968,637.2621793052398 M642.901287957968,637.2621793052398 L639.4764218084704,640.6849094652475 M639.4764218084704,640.6849094652475 L636.8703504988509,644.2188739258543 M636.8703504988509,644.2188739258543 L635.2345069063765,647.6587635276461 M635.2345069063765,647.6587635276461 L634.6640036698477,650.8046593375632 M634.6640036698477,650.8046593375632 L635.192084289057,653.4737436963134 M635.192084289057,653.4737436963134 L636.7881049626224,655.5108529279702 M636.7881049626224,655.5108529279702 L639.3594021285296,656.7976088030724 M639.3594021285296,656.7976088030724 L642.7565771780085,657.2591096240874 M642.7565771780085,657.2591096240874 L646.7822130724605,656.8684892377213 M646.7822130724605,656.8684892377213 L651.2023577077025,655.6484345717118 M651.2023577077025,655.6484345717118 L655.7600446738409,653.6698099886916 M655.7600446738409,653.6698099886916 L660.1903386546444,651.0476509394376 M660.1903386546444,651.0476509394376 L664.2356741349195,647.9343501392799 M664.2356741349195,647.9343501392799 L667.6609226149646,644.5109341863902 M667.6609226149646,644.5109341863902 L670.2669683774855,640.9764201507109 M670.2669683774855,640.9764201507109 L671.9023628298337,637.536258648861 M671.9023628298337,637.536258648861 L672.4720962995561,634.3903953570816 M672.4720962995561,634.3903953570816 L671.943123074217,631.7216419696861 M671.943123074217,631.7216419696861 L670.3462793731353,629.6850902817125 M670.3462793731353,629.6850902817125 L667.7744172078828,628.399054359757 M448.07634622958045,286.7477941805845 L450.6463792528242,288.0276112149779 M450.6463792528242,288.0276112149779 L452.23997449737385,290.05854334753803 M452.23997449737385,290.05854334753803 L452.7644490640024,292.72260556148086 M452.7644490640024,292.72260556148086 L452.189245730303,295.8649976146194 M452.189245730303,295.8649976146194 L450.5477307561241,299.30310473076344 M450.5477307561241,299.30310473076344 L447.9352636548322,302.8370876478642 M447.9352636548322,302.8370876478642 L444.50366649959034,306.26151319267 M444.50366649959034,306.26151319267 L440.4524009533172,309.37731179970285 M440.4524009533172,309.37731179970285 L436.0169803815479,312.0033464027658 M436.0169803815479,312.0033464027658 L431.4552477402859,313.98696576126326 M431.4552477402859,313.98696576126326 L427.0323873139753,315.2128639145757 M427.0323873139753,315.2128639145757 L423.0054920745837,315.6098118950616 M423.0054920745837,315.6098118950616 L419.60861303169867,315.1547832204194 M419.60861303169867,315.1547832204194 L417.03914714362213,313.8742645132707 M417.03914714362213,313.8742645132707 L415.4463770995222,311.8427498984288 M415.4463770995222,311.8427498984288 L414.92279618460435,309.17834424200646 M414.92279618460435,309.17834424200646 L415.49875634366344,306.0359225611958 M415.49875634366344,306.0359225611958 L417.1407213013956,302.598117615506 M417.1407213013956,302.598117615506 L419.75322711448604,299.064688737417 M419.75322711448604,299.064688737417 L423.18444175404676,295.640948643138 M423.18444175404676,295.640948643138 L427.23498621343356,292.52580923194887 M427.23498621343356,292.52580923194887 L431.66952276691603,289.9002544107661 M431.66952276691603,289.9002544107661 L436.23040258143016,287.9168286006123 M436.23040258143016,287.9168286006123 L440.65264247807653,286.6907902106233 M440.65264247807653,286.6907902106233 L444.6792868570852,286.2934011036979 M444.6792868570852,286.2934011036979 L448.07634622958045,286.7477941805845" stroke="black"  stroke-width="4"  fill="red"/>
<path d="M463.7837317190564,152.55368564281883 L477.2024508075143,162.43174035937454 M477.2024508075143,162.43174035937454 L486.13658386947264,173.87665565734176 M486.13658386947264,173.87665565734176 L490.0659594200361,186.22391669658106 M490.0659594200361,186.22391669658106 L488.76085052412844,198.75624530446083 M488.76085052412844,198.75624530446083 L482.29567392407233,210.7452095414912 M482.29567392407233,210.7452095414912 L471.0449594238036,221.49357605265845 M471.0449594238036,221.49357605265845 L455.6618852795845,230.37594963640527 M455.6618852795845,230.37594963640527 L437.04046072811906,236.87528036115805 M437.04046072811906,236.87528036115805 L416.2635656547498,240.61310705768875 M416.2635656547498,240.61310705768875 L394.5398777424544,241.37172926670434 M394.5398777424544,241.37172926670434 L373.1333370720748,239.1069523941403 M373.1333370720748,239.1069523941403 L353.2893674327983,233.95070000628698 M353.2893674327983,233.95070000628698 L336.1621990162018,226.20325692375962 M336.1621990162018,226.20325692375962 L322.74754146305366,216.31569268807607 M322.74754146305366,216.31569268807607 L313.82466256096006,204.86344638604714 M313.82466256096006,204.86344638604714 L309.91115559462315,192.5127123050258 M309.91115559462315,192.5127123050258 L311.2331122026689,179.98156424742382 M311.2331122026689,179.98156424742382 L317.71225603838855,167.99816370408365 M317.71225603838855,167.99816370408365 L328.9708575675909,157.2584694540838 M328.9708575675909,157.2584694540838 L344.35393171308203,148.3858899902093 M344.35393171308203,148.3858899902093 L362.9674692370591,141.89523152844703 M362.9674692370591,141.89523152844703 L383.7303970738626,138.16296852397068 M383.7303970738626,138.16296852397068 L405.4372372715498,137.40552686736072 M405.4372372715498,137.40552686736072 L426.82790935579857,139.66683069463352 M426.82790935579857,139.66683069463352 L446.66062483551696,144.815752080852 M446.66062483551696,144.815752080852 L463.7837317190564,152.55368564281883 M398.33216853463136,225.24586617103984 L398.7772754965381,225.0445704324992 M398.7772754965381,225.0445704324992 L399.29289977388413,224.91061313496942 M399.29289977388413,224.91061313496942 L399.84907515041795,224.85177686058205 M399.84907515041795,224.85177686058205 L400.4134830796696,224.871485574825 M400.4134830796696,224.871485574825 L400.95331811825173,224.96858858748203 M400.95331811825173,224.96858858748203 L401.4372111695228,225.13744837721265 M401.4372111695228,225.13744837721265 L401.8370401660361,225.3682479540558 M401.8370401660361,225.3682479540558 L402.1295704193015,225.64757575928303 M402.1295704193015,225.64757575928303 L402.2977937949073,225.95919853604744 M402.2977937949073,225.95919853604744 L402.33194236436856,226.2850081547245 M402.33194236436856,226.2850081547245 L402.23002127915396,226.6060668808447 M402.23002127915396,226.6060668808447 L401.99796124848245,226.90371772671404 M401.99796124848245,226.90371772671404 L401.64924446015993,227.16066150411376 M401.64924446015993,227.16066150411376 L401.204134754427,227.36196366863874 M401.204134754427,227.36196366863874 L400.688502874243,227.4959259200249 M400.688502874243,227.4959259200249 L400.1323167775971,227.55476454135817 M400.1323167775971,227.55476454135817 L399.56789746671853,227.5350550293117 M399.56789746671853,227.5350550293117 L399.02805299247365,227.437948257073 M399.02805299247365,227.437948257073 L398.5441546130889,227.2690826070595 M398.5441546130889,227.2690826070595 L398.14432561657554,227.0382764118932 M398.14432561657554,227.0382764118932 L397.8518006914238,226.75894274643673 M397.8518006914238,226.75894274643673 L397.68358675148085,226.44731621004286 M397.68358675148085,226.44731621004286 L397.6494495636465,226.12150579361634 M397.6494495636465,226.12150579361634 L397.7513813689732,225.8004494143903 M397.7513813689732,225.8004494143903 L397.9834490024826,225.50280352241617 M397.9834490024826,225.50280352241617 L398.33216853463136,225.24586617103984 M462.143827502773,190.3251125452096 L461.7950839655031,190.06831152713897 M461.7950839655031,190.06831152713897 L461.56294518597764,189.77082605731653 M461.56294518597764,189.77082605731653 L461.46089793036066,189.4499457123427 M461.46089793036066,189.4499457123427 L461.49488023777155,189.12431711398023 M461.49488023777155,189.12431711398023 L461.6629069267232,188.81286747488343 M461.6629069267232,188.81286747488343 L461.9552214961941,188.53369486388658 M461.9552214961941,188.53369486388658 L462.3548283485712,188.30302351879516 M462.3548283485712,188.30302351879516 L462.8385057042354,188.13425754706168 M462.8385057042354,188.13425754706168 L463.37814403271864,188.03720848449564 M463.37814403271864,188.03720848449564 L463.9423856653095,188.01751072033994 M463.9423856653095,188.01751072033994 L464.4984348265943,188.07631430551055 M464.4984348265943,188.07631430551055 L465.0139803015927,188.21019717680645 M465.0139803015927,188.21019717680645 L465.45906045479734,188.41138107595555 M465.45906045479734,188.41138107595555 L465.8078067312778,188.66817567335755 M465.8078067312778,188.66817567335755 L466.03995310703385,188.96565619341283 M466.03995310703385,188.96565619341283 L466.1420110756781,189.286534193448 M466.1420110756781,189.286534193448 L466.1080401439542,189.61216358889538 M466.1080401439542,189.61216358889538 L465.9400228872313,189.9236169844886 M465.9400228872313,189.9236169844886 L465.6477136457329,190.20279545083156 M465.6477136457329,190.20279545083156 L465.2481067965395,190.43347340873106 M465.2481067965395,190.43347340873106 L464.764424118541,190.60224523586413 M464.764424118541,190.60224523586413 L464.2247763614459,190.69929805487902 M464.2247763614459,190.69929805487902 L463.66052335393573,190.7189966161735 M463.66052335393573,190.7189966161735 L463.1044634773657,190.66019068601258 M463.1044634773657,190.66019068601258 L462.5889104013706,190.52630286498828 M462.5889104013706,190.52630286498828 L462.143827502773,190.3251125452096 M337.83845895573154,188.41138107595555 L338.18695796665173,188.66817567335755 M338.18695796665173,188.66817567335755 L338.4188179006828,188.96565619341283 M338.4188179006828,188.96565619341283 L338.5205668983469,189.286534193448 M338.5205668983469,189.286534193448 L338.48628242056037,189.61216358889533 M338.48628242056037,189.61216358889533 L338.31796526773707,189.9236169844886 M338.31796526773707,189.9236169844886 L338.0253872074216,190.20279545083156 M338.0253872074216,190.20279545083156 L337.6255582401811,190.43347340873095 M337.6255582401811,190.43347340873095 L337.14171305307684,190.60224523586413 M337.14171305307684,190.60224523586413 L336.6019718445622,190.69929805487902 M336.6019718445622,190.69929805487902 L336.0376998694574,190.7189966161735 M336.0376998694574,190.7189966161735 L335.4816966166693,190.66019068601258 M335.4816966166693,190.66019068601258 L334.96627246023644,190.52630286498828 M334.96627246023644,190.52630286498828 L334.52138328626404,190.3251125452096 M334.52138328626404,190.3251125452096 L334.1728870207368,190.06831152713886 M334.1728870207368,190.06831152713886 L333.94103468770254,189.77082605731647 M333.94103468770254,189.77082605731647 L333.8392964053236,189.4499457123427 M333.8392964053236,189.4499457123427 L333.8735922580295,189.12431711398023 M333.8735922580295,189.12431711398023 L334.04191883946453,188.81286747488343 M334.04191883946453,188.81286747488343 L334.33450222211434,188.53369486388658 M334.33450222211434,188.53369486388658 L334.7343311861712,188.30302351879516 M334.7343311861712,188.30302351879516 L335.218171045303,188.13425754706162 M335.218171045303,188.13425754706162 L335.75790282158886,188.03720848449564 M335.75790282158886,188.03720848449564 L336.3221634210066,188.01751072033994 M336.3221634210066,188.01751072033994 L336.8781559607676,188.07631430551055 M336.8781559607676,188.07631430551055 L337.39357252096977,188.21019717680645 M337.39357252096977,188.21019717680645 L337.83845895573154,188.41138107595555 M401.6483230880637,153.51002679102726 L401.2034606525251,153.7111053592464 M401.2034606525251,153.7111053592464 L400.68811522069376,153.84491881192258 M400.68811522069376,153.84491881192258 L400.1322381021345,153.9036920781487 M400.1322381021345,153.9036920781487 L399.56813234328007,153.8840044584823 M399.56813234328007,153.8840044584823 L399.0285877685905,153.78700554773854 M399.0285877685905,153.78700554773854 L398.54495820818363,153.61832746531456 M398.54495820818363,153.61832746531456 L398.1453513265508,153.38777763783753 M398.1453513265508,153.38777763783753 L397.85298890473916,153.1087542413 M397.85298890473916,153.1087542413 L397.6848684091741,152.79747384225095 M397.6848684091741,152.79747384225095 L397.65075018223087,152.47202531696126 M397.65075018223087,152.47202531696126 L397.75262535894683,152.1513255474967 M397.75262535894683,152.1513255474967 L397.9845640710447,151.85401026157786 M397.9845640710447,151.85401026157786 L398.3330898801207,151.59735829921226 M398.3330898801207,151.59735829921226 L398.7779495748807,151.39628614627412 M398.7779495748807,151.39628614627412 L399.293287412319,151.26247763920287 M399.293287412319,151.26247763920287 L399.8491538226733,151.20370671601353 M399.8491538226733,151.20370671601353 L400.41324821254295,151.2233935392053 M400.41324821254295,151.2233935392053 L400.95278336205035,151.3203886966295 M400.95278336205035,151.3203886966295 L401.4364076002617,151.48906092853179 M401.4364076002617,151.48906092853179 L401.8360144818945,151.7196041487095 M401.8360144818945,151.7196041487095 L402.1283822259017,151.99862169477882 M402.1283822259017,151.99862169477882 L402.2965121466489,152.30989834046068 M402.2965121466489,152.30989834046068 L402.33064174257703,152.63534606932956 M402.33064174257703,152.63534606932956 L402.22877727406603,152.9560481817793 M402.22877727406603,152.9560481817793 L401.9968461563612,153.25336841334195 M401.9968461563612,153.25336841334195 L401.6483230880637,153.51002679102726 M463.7837317190564,152.55368564281883 L463.78195983790204,159.92232627318953 M463.78195983790204,159.92232627318953 L446.6593286322852,152.18417731995402 M446.6593286322852,152.18417731995402 L426.8271640122217,147.0351125956812 M426.8271640122217,147.0351125956812 L405.4370860085966,144.77374581367428 M405.4370860085966,144.77374581367428 L383.73084866210576,145.53120855771067 M383.73084866210576,145.53120855771067 L362.9684974915724,149.26357546611177 M362.9684974915724,149.26357546611177 L344.3554770013312,155.75441460993574 M344.3554770013312,155.75441460993574 L328.972830246495,164.6272410334202 M328.972830246495,164.6272410334202 L317.71454162649377,175.3672341681983 M317.71454162649377,175.3672341681983 L311.23557799592146,187.35096815147563 M311.23557799592146,187.35096815147563 L309.9136583500473,199.88246482577586 M309.9136583500473,199.88246482577586 L313.8270568072118,212.23354243995595 M313.8270568072118,212.23354243995595 L322.7496879598,223.68610722674458 M322.7496879598,223.68610722674458 L336.1639728676184,233.57394638945078 M336.1639728676184,233.57394638945078 L353.29066538061033,241.32160486357697 M353.29066538061033,241.32160486357697 L373.13408353488796,246.47800058973922 M373.13408353488796,246.47800058973922 L394.5400292428964,248.74284041715794 M394.5400292428964,248.74284041715794 L416.2631133678422,247.984197120675 M416.2631133678422,247.984197120675 L437.0394309988435,244.24626652002627 M437.0394309988435,244.24626652002627 L455.66033807832565,237.74675511291042 M455.66033807832565,237.74675511291042 L471.04298483189,228.86413456921338 M471.04298483189,228.86413456921338 L482.29338686120525,218.11546917296658 M482.29338686120525,218.11546917296658 L488.7583840322116,206.1261714958058 M488.7583840322116,206.1261714958058 L490.0634569021007,193.59349427118673 M490.0634569021007,193.59349427118673 L486.1341907424569,181.24588969890942 M486.1341907424569,181.24588969890942 L477.200306055348,169.8006559164371 M477.200306055348,169.8006559164371 L463.78195983790204,159.92232627318953 M398.3321855924427,227.97363824313368 L397.9834696468874,228.23057823841077 M397.9834696468874,228.23057823841077 L397.75140440023205,228.52822719316606 M397.75140440023205,228.52822719316606 L397.6494736433287,228.8492868760523 M397.6494736433287,228.8492868760523 L397.6836104801207,229.17510064504148 M397.6836104801207,229.17510064504148 L397.8518226900324,229.48673038803156 M397.8518226900324,229.48673038803156 L398.1443446065935,229.7660669277821 M398.1443446065935,229.7660669277821 L398.5441694908669,229.99687549789422 M398.5441694908669,229.99687549789422 L399.02806289333097,230.1657428854935 M399.02806289333097,230.1657428854935 L399.5679018152286,230.26285065693486 M399.5679018152286,230.26285065693486 L400.1323153209978,230.28256037178681 M400.1323153209978,230.28256037178681 L400.6884956972163,230.22372114502014 M400.6884956972163,230.22372114502014 L401.20412227408895,230.08975751519722 M401.20412227408895,230.08975751519722 L401.64922740185585,229.88845327931983 M401.64922740185585,229.88845327931983 L401.99794060364144,229.6315068580194 M401.99794060364144,229.6315068580194 L402.2299982476153,229.33385294936886 M402.2299982476153,229.33385294936886 L402.33191828462697,229.01279091958838 M402.33191828462697,229.01279091958838 L402.2977700664422,228.68697794834878 M402.2977700664422,228.68697794834878 L402.12954842106177,228.37535196498806 M402.12954842106177,228.37535196498806 L401.83702117649653,228.09602128546686 M401.83702117649653,228.09602128546686 L401.4371962922231,227.86521933367789 M401.4371962922231,227.86521933367789 L400.9533082177632,227.6963578063615 M400.9533082177632,227.6963578063615 L400.4134787313343,227.5992537945018 M400.4134787313343,227.5992537945018 L399.84907660695785,227.57954487745343 M399.84907660695785,227.57954487745343 L399.292906950631,227.6383817572741 M399.292906950631,227.6383817572741 L398.7772879764399,227.77234043324074 M398.7772879764399,227.77234043324074 L398.3321855924427,227.97363824313368 M398.3321855924427,227.97363824313368 L398.33216853463136,225.24586617103984 M462.14318843098664,193.05252518536042 L462.58826675216983,193.25371757649054 M462.58826675216983,193.25371757649054 L463.10381452647454,193.38760677595104 M463.10381452647454,193.38760677595104 L463.65986868521316,193.44641331154497 M463.65986868521316,193.44641331154497 L464.2241158910344,193.42671454744521 M464.2241158910344,193.42671454744521 L464.763758099828,193.32966072922807 M464.763758099828,193.32966072922807 L465.247435805342,193.16088716450997 M465.247435805342,193.16088716450997 L465.6470385468639,192.93020683166588 M465.6470385468639,192.93020683166588 L465.9393447842073,192.65102549103028 M465.9393447842073,192.65102549103028 L466.1073603149437,192.33956888884228 M466.1073603149437,192.33956888884228 L466.1413308990442,192.01393614083395 M466.1413308990442,192.01393614083395 L466.03927398141775,191.6930548371402 M466.03927398141775,191.6930548371402 L465.8071299941347,191.39557125430537 M465.8071299941347,191.39557125430537 L465.4583873047973,191.13877401300397 M465.4583873047973,191.13877401300397 L465.0133117289506,190.9375880425036 M465.0133117289506,190.9375880425036 L464.49777155548634,190.80370379277144 M464.49777155548634,190.80370379277144 L463.94172811181244,190.7448996021679 M463.94172811181244,190.7448996021679 L463.3774922806767,190.7645975691289 M463.3774922806767,190.7645975691289 L462.8378595003009,190.86164763089704 M462.8378595003009,190.86164763089704 L462.3541871170119,191.03041534021548 M462.3541871170119,191.03041534021548 L461.95458437230644,191.26108906025144 M461.95458437230644,191.26108906025144 L461.6622728071001,191.54026454554094 M461.6622728071001,191.54026454554094 L461.49424784432887,191.85171739123234 M461.49424784432887,191.85171739123234 L461.46026588477537,192.17734934215576 M461.46026588477537,192.17734934215576 L461.56231208959497,192.49823299078815 M461.56231208959497,192.49823299078815 L461.7944484808035,192.79572152339028 M461.7944484808035,192.79572152339028 L462.14318843098664,193.05252518536042 M462.14318843098664,193.05252518536042 L462.143827502773,190.3251125452096 M337.83909800906326,191.13877401300397 L337.3942161476758,190.9375880425036 M337.3942161476758,190.9375880425036 L336.8788048863567,190.80370379277144 M336.8788048863567,190.80370379277144 L336.32281806304223,190.7448996021679 M336.32281806304223,190.7448996021679 L335.75856326546966,190.7645975691289 M335.75856326546966,190.7645975691289 L335.21883703921304,190.86164763089704 M335.21883703921304,190.86164763089704 L334.7350021557981,191.03041534021548 M334.7350021557981,191.03041534021548 L334.33517730398023,191.26108906025144 M334.33517730398023,191.26108906025144 L334.04259693112294,191.54026454554094 M334.04259693112294,191.54026454554094 L333.8742720820354,191.85171739123234 M333.8742720820354,191.85171739123234 L333.8399765836346,192.17734934215576 M333.8399765836346,192.17734934215576 L333.9417138215699,192.49823299078815 M333.9417138215699,192.49823299078815 L334.17356377217794,192.79572152339028 M334.17356377217794,192.79572152339028 L334.52205645570336,193.05252518536042 M334.52205645570336,193.05252518536042 L334.9669410562451,193.25371757649054 M334.9669410562451,193.25371757649054 L335.48235991363873,193.38760677595104 M335.48235991363873,193.38760677595104 L336.03835744976,193.44641331154497 M336.03835744976,193.44641331154497 L336.60262362278564,193.42671454744521 M336.60262362278564,193.42671454744521 L337.1423592810771,193.32966072922807 M337.1423592810771,193.32966072922807 L337.6261994923549,193.16088716450997 M337.6261994923549,193.16088716450997 L338.0260243473563,192.93020683166588 M338.0260243473563,192.93020683166588 L338.3185993979888,192.65102549103028 M338.3185993979888,192.65102549103028 L338.4869148186584,192.33956888884228 M338.4869148186584,192.33956888884228 L338.5211989423736,192.01393614083395 M338.5211989423736,192.01393614083395 L338.4194509893736,191.6930548371402 M338.4194509893736,191.6930548371402 L338.1875934379251,191.39557125430537 M338.1875934379251,191.39557125430537 L337.83909800906326,191.13877401300397 M337.83909800906326,191.13877401300397 L337.83845895573154,188.41138107595555 M401.64830604870696,156.23706029639254 L401.99682553445115,155.98039927481028 M401.99682553445115,155.98039927481028 L402.22875426810936,155.6830759804708 M402.22875426810936,155.6830759804708 L402.33061768958163,155.36237056436573 M402.33061768958163,155.36237056436573 L402.29648844453976,155.03691948293897 M402.29648844453976,155.03691948293897 L402.12836025209606,154.72563963066557 M402.12836025209606,154.72563963066557 L401.83599551344713,154.44661921030638 M401.83599551344713,154.44661921030638 L401.4363927394867,154.2160736151863 M401.4363927394867,154.2160736151863 L400.95277347255853,154.04739964570086 M400.95277347255853,154.04739964570086 L400.4132438690374,153.95040348907554 M400.4132438690374,153.95040348907554 L399.84915527759546,153.93071646307874 M399.84915527759546,153.93071646307874 L399.2932945810944,153.98948799170034 M399.2932945810944,153.98948799170034 L398.77796204092084,154.12329787720648 M398.77796204092084,154.12329787720648 L398.33310691898555,154.32437210149396 M398.33310691898555,154.32437210149396 L397.9845846925192,154.58102670775634 M397.9845846925192,154.58102670775634 L397.75264836462406,154.8783450564519 M397.75264836462406,154.8783450564519 L397.650774235167,155.1990481295718 M397.650774235167,155.1990481295718 L397.6848921114577,155.52450000741925 M397.6848921114577,155.52450000741925 L397.853010878913,155.83578361306002 M397.853010878913,155.83578361306002 L398.14537029547574,156.11480988388752 M398.14537029547574,156.11480988388752 L398.54497306943625,156.34536208630692 M398.54497306943625,156.34536208630692 L399.0285976584505,156.51404190631428 M399.0285976584505,156.51404190631428 L399.56813668696003,156.61104181625927 M399.56813668696003,156.61104181625927 L400.13223664715315,156.63072963873077 M400.13223664715315,156.63072963873077 L400.6881080516389,156.57195576707227 M400.6881080516389,156.57195576707227 L401.2034481860495,156.4381409359611 M401.2034481860495,156.4381409359611 L401.64830604870696,156.23706029639254 M401.64830604870696,156.23706029639254 L401.6483230880637,153.51002679102726 M395.71890577276264,231.10790217097207 L394.8207033951511,231.7697146892491 M394.8207033951511,231.7697146892491 L394.22295092563166,232.53638790951106 M394.22295092563166,232.53638790951106 L393.96039259595733,233.36337241524035 M393.96039259595733,233.36337241524035 L394.0482905506845,234.20260287403397 M394.0482905506845,234.20260287403397 L394.48154036656615,235.005308776684 M394.48154036656615,235.005308776684 L395.2349764648714,235.7248380228312 M395.2349764648714,235.7248380228312 L396.264810041637,236.31936857607928 M396.264810041637,236.31936857607928 L397.51119380638204,236.75434639834367 M397.51119380638204,236.75434639834367 L398.90168547957825,237.00448603082265 M398.90168547957825,237.00448603082265 L400.3554700481615,237.05525273848923 M400.3554700481615,237.05525273848923 L401.78805752168734,236.9036942096302 M401.78805752168734,236.9036942096302 L403.11617581006203,236.55861814875578 M403.11617581006203,236.55861814875578 L404.26264218319466,236.04008234753564 M404.26264218319466,236.04008234753564 L405.1608263580607,235.37822719575132 M405.1608263580607,235.37822719575132 L405.7585283893414,234.61152110882716 M405.7585283893414,234.61152110882716 L406.0210155997622,233.78452103254352 M406.0210155997622,233.78452103254352 L405.93304213780345,232.94529586645166 M405.93304213780345,232.94529586645166 L405.4997297241491,232.1426149072227 M405.4997297241491,232.1426149072227 L404.74625827803186,231.42312454105144 M404.74625827803186,231.42312454105144 L403.71642470126613,230.82863789727838 M403.71642470126613,230.82863789727838 L402.4700762843332,230.39369895495173 M402.4700762843332,230.39369895495173 L401.07964720890965,230.1435842656744 M401.07964720890965,230.1435842656744 L399.6259381475581,230.09282285071777 M399.6259381475581,230.09282285071777 L398.1934217932858,230.24436580915983 M398.1934217932858,230.24436580915983 L396.86535394314967,230.589409003326 M396.86535394314967,230.589409003326 L395.71890577276264,231.10790217097207 M418.1748157951075,186.24338122298798 L413.2944527580143,184.0370398569268 M413.2944527580143,184.0370398569268 L407.64113951804336,182.56881033671084 M407.64113951804336,182.56881033671084 L401.54335168580957,181.92396652970365 M401.54335168580957,181.92396652970365 L395.3553578586712,182.13996347336456 M395.3553578586712,182.13996347336456 L389.436665338011,183.20425505455347 M389.436665338011,183.20425505455347 L384.1311513078781,185.0550273636053 M384.1311513078781,185.0550273636053 L379.7470966810412,187.58478025967122 M379.7470966810412,187.58478025967122 L376.5392872169722,190.64656143134056 M376.5392872169722,190.64656143134056 L374.69420419538307,194.06249237617538 M374.69420419538307,194.06249237617538 L374.3191736969931,197.6340895237347 M374.3191736969931,197.6340895237347 L375.43611044428025,201.15379252730372 M375.43611044428025,201.15379252730372 L377.9802068360005,204.41702638800552 M377.9802068360005,204.41702638800552 L381.8036933051027,207.23409076504976 M381.8036933051027,207.23409076504976 L386.68438622168145,209.44120454201231 M386.68438622168145,209.44120454201231 L392.33861352999935,210.9100295225782 M392.33861352999935,210.9100295225782 L398.4376902162545,211.55515542792267 M398.4376902162545,211.55515542792267 L404.62705242297056,211.33906259397043 M404.62705242297056,211.33906259397043 L410.5468793692473,210.2743191017476 M410.5468793692473,210.2743191017476 L415.8530339875381,208.4228423882019 M415.8530339875381,208.4228423882019 L420.2370886143666,205.89229396483324 M420.2370886143666,205.89229396483324 L423.4442574902682,202.82980838880115 M423.4442574902682,202.82980838880115 L425.28820608624676,199.4134255329276 M425.28820608624676,199.4134255329276 L425.6618682050752,195.84173249516567 M425.6618682050752,195.84173249516567 L424.54364260377935,192.32231158941693 M424.54364260377935,192.32231158941693 L421.99863214371015,189.0596731895278 M421.99863214371015,189.0596731895278 L418.1748157951075,186.24338122298798 M459.53010887526455,199.20267074392416 L460.67650620862963,199.7209184477801 M460.67650620862963,199.7209184477801 L462.00442152590836,200.06580278452094 M462.00442152590836,200.06580278452094 L463.436683891854,200.21727710735888 M463.436683891854,200.21727710735888 L464.8900401165447,200.16653860572023 M464.8900401165447,200.16653860572023 L466.2800251064154,199.91653795088513 M466.2800251064154,199.91653795088513 L467.5258532965958,199.48180180178622 M467.5258532965958,199.48180180178622 L468.5551147012602,198.88760156773094 M468.5551147012602,198.88760156773094 L469.30799528268847,198.16847208765324 M469.30799528268847,198.16847208765324 L469.7407385239094,197.36621216095773 M469.7407385239094,197.36621216095773 L469.8282082821234,196.52744796793746 M469.8282082821234,196.52744796793746 L469.5653250152259,195.70092292139964 M469.5653250152259,195.70092292139964 L468.9673697512876,194.93467564979738 M468.9673697512876,194.93467564979738 L468.0690985018483,194.27323081964295 M468.0690985018483,194.27323081964295 L466.92271938162247,193.75502571383618 M466.92271938162247,193.75502571383618 L465.5948544903688,193.41017421641692 M465.5948544903688,193.41017421641692 L464.1626632116531,193.2587154510216 M464.1626632116531,193.2587154510216 L462.7093824496975,193.30944866436062 M462.7093824496975,193.30944866436062 L461.31946001082315,193.5594243967783 M461.31946001082315,193.5594243967783 L460.07366713011464,193.99412169833676 M460.07366713011464,193.99412169833676 L459.04440570432945,194.58827805950529 M459.04440570432945,194.58827805950529 L458.2914897760265,195.30736869200416 M458.2914897760265,195.30736869200416 L457.85868395981345,196.10960369606295 M457.85868395981345,196.10960369606295 L457.7711387337728,196.94836260079177 M457.7711387337728,196.94836260079177 L458.0339509284193,197.7749032049096 M458.0339509284193,197.7749032049096 L458.63185579795066,198.54118331578752 M458.63185579795066,198.54118331578752 L459.53010887526455,199.20267074392416 M340.45349440051035,194.27323081964295 L339.307614214425,193.75502571383612 M339.307614214425,193.75502571383612 L337.98008135036196,193.41017421641692 M337.98008135036196,193.41017421641692 L336.54803589797655,193.2587154510216 M336.54803589797655,193.2587154510216 L335.09470628946985,193.30944866436062 M335.09470628946985,193.30944866436062 L333.7045431709384,193.55942439677818 M333.7045431709384,193.55942439677818 L332.45833175841284,193.99412169833676 M332.45833175841284,193.99412169833676 L331.42849827170033,194.58827805950517 M331.42849827170033,194.58827805950517 L330.6748899942433,195.30736869200416 M330.6748899942433,195.30736869200416 L330.2413117764701,196.10960369606295 M330.2413117764701,196.10960369606295 L330.1529589832162,196.94836260079177 M330.1529589832162,196.94836260079177 L330.41497537457695,197.7749032049096 M330.41497537457695,197.7749032049096 L331.01214246035397,198.54118331578752 M331.01214246035397,198.54118331578752 L331.90975864957534,199.20267074392416 M331.90975864957534,199.20267074392416 L333.055657007786,199.7209184477801 M333.055657007786,199.7209184477801 L334.38324026625594,200.06580278452094 M334.38324026625594,200.06580278452094 L335.8153567908925,200.21727710735888 M335.8153567908925,200.21727710735888 L337.2687618672259,200.16653860572023 M337.2687618672259,200.16653860572023 L338.6589875607493,199.91653795088507 M338.6589875607493,199.91653795088507 L339.9052343201496,199.48180180178616 M339.9052343201496,199.48180180178616 L340.9350678279828,198.88760156773094 M340.9350678279828,198.88760156773094 L341.688640795968,198.16847208765324 M341.688640795968,198.16847208765324 L342.1221564627449,197.36621216095773 M342.1221564627449,197.36621216095773 L342.21043379326375,196.52744796793746 M342.21043379326375,196.52744796793746 L341.94834631467296,195.70092292139964 M341.94834631467296,195.70092292139964 L341.351128802871,194.93467564979727 M341.351128802871,194.93467564979727 L340.45349440051035,194.27323081964295 M404.2602690325798,162.38572304410928 L405.1579542628703,161.72460303324704 M405.1579542628703,161.72460303324704 L405.7553242791384,160.95874854351047 M405.7553242791384,160.95874854351047 L406.01766569522556,160.13266702874841 M406.01766569522556,160.13266702874841 L405.9297411243005,159.29437399691835 M405.9297411243005,159.29437399691835 L405.49666943708235,158.49258457648585 M405.49666943708235,158.49258457648585 L404.74361656114485,157.77389334462623 M404.74361656114485,157.77389334462623 L403.71435506647015,157.18006699089312 M403.71435506647015,157.18006699089312 L402.46869899781535,156.74561112878484 M402.46869899781535,156.74561112878484 L401.0790423012466,156.49577423745814 M401.0790423012466,156.49577423745814 L399.62614076778476,156.44506920224097 M399.62614076778476,156.44506920224097 L398.19442016987506,156.59644384473313 M398.19442016987506,156.59644384473313 L396.86709005973063,156.9411038051134 M396.86709005973063,156.9411038051134 L395.7212787468687,157.45902108907438 M395.7212787468687,157.45902108907438 L394.82357533405053,158.12009853743973 M394.82357533405053,158.12009853743973 L394.22615493556594,158.88592021525687 M394.22615493556594,158.88592021525687 L393.96374247921824,159.71198618539893 M393.96374247921824,159.71198618539893 L394.05159162677836,160.55028450111524 M394.05159162677836,160.55028450111524 L394.48460078575175,161.35209882342298 M394.48460078575175,161.35209882342298 L395.23761835313843,162.0708288705 M395.23761835313843,162.0708288705 L396.2668798478131,162.6646990605724 M396.2668798478131,162.6646990605724 L397.51257122501863,163.09919373785988 M397.51257122501863,163.09919373785988 L398.9022904498322,163.34905553084286 M398.9022904498322,163.34905553084286 L400.3552674066591,163.3997658499543 M400.3552674066591,163.3997658499543 L401.7870590448294,163.2483756629794 M401.7870590448294,163.2483756629794 L403.1144395371903,162.90368289063377 M403.1144395371903,162.90368289063377 L404.2602690325798,162.38572304410928 M398.3321855924427,227.97363824313368 L397.4610765593223,229.01841358990913 M397.4610765593223,229.01841358990913 L396.58998125729494,230.06316706105696 M396.58998125729494,230.06316706105696 L395.71890577276264,231.10790217097207 M462.14318843098664,193.05252518536042 L461.27215936935613,195.10258149136223 M461.27215936935613,195.10258149136223 L460.4011308228498,197.15263118154718 M460.4011308228498,197.15263118154718 L459.53010887526455,199.20267074392416 M337.83909800906326,191.13877401300397 L338.71057923527746,192.18361364803565 M338.71057923527746,192.18361364803565 L339.5820467278937,193.22843141276797 M339.5820467278937,193.22843141276797 L340.45349440051035,194.27323081964295 M401.64830604870696,156.23706029639254 L402.5189629172135,158.28662232809387 M402.5189629172135,158.28662232809387 L403.3896192731036,160.3361777473463 M403.3896192731036,160.3361777473463 L404.2602690325798,162.38572304410928 M418.1748157951075,186.24338122298798 L418.17152591629326,234.2342369153318 M419.2659612624033,234.6765514666953 L418.17152591629326,234.2342369153318 M418.174420584652,254.99875835704995 L421.7902991200041,251.66868935048876 M421.7902991200041,251.66868935048876 L424.29438908612275,248.16768339856378 M424.29438908612275,248.16768339856378 L425.55904919714004,244.67429998265368 M425.55904919714004,244.67429998265368 L425.5198744026809,241.3666874598216 M425.5198744026809,241.3666874598216 L424.1789617111302,238.4134954210711 M424.1789617111302,238.4134954210711 L422.1146191599657,236.33258083545394 M422.1146191599657,236.33258083545394 L419.2659612624033,234.6765514666953 M381.8069842259852,255.22874746429505 L386.55404463541066,256.59835738921595 M386.55404463541066,256.59835738921595 L392.04386418142076,257.5101643376355 M392.04386418142076,257.5101643376355 L397.9729908406931,257.9137455443073 M397.9729908406931,257.9137455443073 L404.0136592433301,257.78678196101555 M404.0136592433301,257.78678196101555 L409.8319350744805,257.1362937875115 M409.8319350744805,257.1362937875115 L414.2777891829109,256.219425942876 M414.2777891829109,256.219425942876 L418.174420584652,254.99875835704995 M381.809847359328,234.00426601585184 L378.06743683782366,236.01329796647514 M378.06743683782366,236.01329796647514 L375.53630644153674,238.7021632120974 M375.53630644153674,238.7021632120974 L374.3564126619062,241.92233192743248 M374.3564126619062,241.92233192743248 L374.5930635191809,245.49589191510722 M374.5930635191809,245.49589191510722 L376.23328793470057,249.22537425582726 M376.23328793470057,249.22537425582726 L378.60922088704916,252.30367779155216 M378.60922088704916,252.30367779155216 L381.8069842259852,255.22874746429505 M417.00690827213754,233.37253019829961 L412.2482008551943,230.74547105246995 M412.2482008551943,230.74547105246995 L406.8646164928882,229.01423074554674 M406.8646164928882,229.01423074554674 L401.13061135277223,228.26704339364284 M401.13061135277223,228.26704339364284 L395.3384958545066,228.54198968525117 M395.3384958545066,228.54198968525117 L389.7835364007754,229.8250592879411 M389.7835364007754,229.8250592879411 L385.54057123835133,231.61868026426254 M385.54057123835133,231.61868026426254 L381.809847359328,234.00426601585184 M418.17152591629326,234.2342369153318 L417.00690827213754,233.37253019829961 M418.16995084755445,320.1852229328169 L416.3229729225509,318.8608508977982 M416.3229729225509,318.8608508977982 L414.33895148177015,316.9444454160249 M414.33895148177015,316.9444454160249 L412.23453547702326,314.45208252339836 M412.23453547702326,314.45208252339836 L409.2720093007879,310.269848260108 M409.2720093007879,310.269848260108 L404.7063464849611,302.5168221888589 M404.7063464849611,302.5168221888589 L399.99069452031637,293.0399855698157 M418.174420584652,254.99875835704995 L425.5647162485466,291.54293209714064 M425.5647162485466,291.54293209714064 L426.54075682920666,305.67665664355525 M426.54075682920666,305.67665664355525 L425.98870598440425,313.5509417083039 M425.98870598440425,313.5509417083039 L424.8634148522272,317.69269008807913 M424.8634148522272,317.69269008807913 L423.63576260570966,319.7379174082774 M423.63576260570966,319.7379174082774 L422.5096960109397,320.65564688822013 M422.5096960109397,320.65564688822013 L421.5551536870701,320.99238035410605 M421.5551536870701,320.99238035410605 L420.2748374421723,320.9937319592034 M420.2748374421723,320.9937319592034 L419.254377752221,320.70969384654893 M419.254377752221,320.70969384654893 L418.16995084755445,320.1852229328169 M419.2659612624033,234.6765514666953 L467.8417457593974,310.21848173264306 M467.8417457593974,310.21848173264306 L463.76522553030696,309.672687982664 M463.76522553030696,309.672687982664 L458.9333952179309,310.1490224016939 M458.9333952179309,310.1490224016939 L453.627036220792,311.61974693278313 M453.627036220792,311.61974693278313 L448.154454563786,313.99936756607866 M448.154454563786,313.99936756607866 L442.8335922579901,317.1496238866791 M442.8335922579901,317.1496238866791 L437.97356982330024,320.8874768235647 M437.97356982330024,320.8874768235647 L433.8567459548988,324.99579167788016 M433.8567459548988,324.99579167788016 L430.72232835632207,329.2358858260833 M430.72232835632207,329.2358858260833 L428.7524843823727,333.3614128624692 M428.7524843823727,333.3614128624692 L428.0617448712219,337.1326373418962 M428.0617448712219,337.1326373418962 L428.6903505802333,340.3304031628377 M428.6903505802333,340.3304031628377 L430.6018786781725,342.76881332505775 M430.6018786781725,342.76881332505775 L433.6853388006449,344.30608965388296 M433.6853388006449,344.30608965388296 L437.76159941318423,344.8528045249601 M437.76159941318423,344.8528045249601 L442.5937879073559,344.37710415470974 M442.5937879073559,344.37710415470974 L447.9010456292537,342.90658168593245 M447.9010456292537,342.90658168593245 L453.37485452284125,340.52667825567704 M453.37485452284125,340.52667825567704 L458.6969902547532,337.37573608556994 M458.6969902547532,337.37573608556994 L463.5580455569804,333.63693478573435 M463.5580455569804,333.63693478573435 L467.6754222483142,329.5276316766564 M467.6754222483142,329.5276316766564 L470.8097844593973,325.28673665877596 M470.8097844593973,325.28673665877596 L472.7789846051122,321.1607788287263 M472.7789846051122,321.1607788287263 L473.4686301529305,317.38958486224317 M473.4686301529305,317.38958486224317 L472.838733650051,314.1923248804613 M472.838733650051,314.1923248804613 L470.92601978238315,311.7547601078311 M470.92601978238315,311.7547601078311 L467.8417457593974,310.21848173264306 M399.99069452031637,293.0399855698157 L407.2427394484813,297.70726111294704 M407.2427394484813,297.70726111294704 L410.6712077134143,298.4519334847279 M410.6712077134143,298.4519334847279 L413.0941868232068,298.2961043506072 M413.0941868232068,298.2961043506072 L414.80783457111164,297.77798354093756 M414.80783457111164,297.77798354093756 L416.5646320687712,296.8222384136272 M416.5646320687712,296.8222384136272 L418.0700636264269,295.58142686087024 M418.0700636264269,295.58142686087024 L419.31624102295297,294.1794850485705 M419.31624102295297,294.1794850485705 L420.4520392383781,292.51558817314276 M420.4520392383781,292.51558817314276 L421.47097328868125,290.59924622689266 M421.47097328868125,290.59924622689266 L422.3672288989965,288.4413866057633 M422.3672288989965,288.4413866057633 L423.36266125573763,285.21003572464656 M423.36266125573763,285.21003572464656 L424.40853910165634,279.6720327914444 M424.40853910165634,279.6720327914444 L424.9289277264971,270.0673022978345 M424.9289277264971,270.0673022978345 L423.3244871345483,253.73996217109232 M423.3244871345483,253.73996217109232 L421.15511048593584,243.9027979984325 M421.15511048593584,243.9027979984325 L418.17152591629326,234.2342369153318 M418.16995084755445,320.1852229328169 L418.65201859176995,352.99313893601135 M418.65201859176995,352.99313893601135 L413.55835004007133,352.61722125304146 M413.55835004007133,352.61722125304146 L407.768187519724,352.4197127977419 M407.768187519724,352.4197127977419 L401.6179296646114,352.41207521285685 M401.6179296646114,352.41207521285685 L395.4648682830767,352.59476221548726 M395.4648682830767,352.59476221548726 L389.66645744075896,352.95714381802856 M389.66645744075896,352.95714381802856 L384.55957129651443,353.4781880522848 M384.55957129651443,353.4781880522848 L380.4409523299521,354.1276262427365 M380.4409523299521,354.1276262427365 L377.54997624025515,354.867739889135 M377.54997624025515,354.867739889135 L376.0547382513797,355.6555145415553 M376.0547382513797,355.6555145415553 L376.04225893556224,356.4451929532211 M376.04225893556224,356.4451929532211 L377.513411384811,357.1908661961526 M377.513411384811,357.1908661961526 L380.3828204421086,357.84919639467415 M380.3828204421086,357.84919639467415 L384.48380942597373,358.38190591179216 M384.48380942597373,358.38190591179216 L389.57806183916233,358.75801357187163 M389.57806183916233,358.75801357187163 L395.3694699837609,358.95564494049717 M395.3694699837609,358.95564494049717 L401.5213504547001,358.9633059697994 M401.5213504547001,358.9633059697994 L407.676040482398,358.7805534760474 M407.676040482398,358.7805534760474 L413.4757102039275,358.4180114384102 M413.4757102039275,358.4180114384102 L418.5831978276763,357.8967609085085 M418.5831978276763,357.8967609085085 L422.7016244284865,357.2471137302772 M422.7016244284865,357.2471137302772 L425.5916568559589,356.50683715878085 M425.5916568559589,356.50683715878085 L427.0854189338718,355.7189776044445 M427.0854189338718,355.7189776044445 L427.0962232294494,354.9293283458166 M427.0962232294494,354.9293283458166 L425.62358459181587,354.183772852631 M425.62358459181587,354.183772852631 L422.75321788552674,353.5256325996781 M422.75321788552674,353.5256325996781 L418.65201859176995,352.99313893601135 M381.8069842259852,255.22874746429505 L375.31336355309327,292.6812541015119 M375.31336355309327,292.6812541015119 L375.3422766705166,306.13207983131457 M375.3422766705166,306.13207983131457 L376.6415074234181,312.2855634665849 M376.6415074234181,312.2855634665849 L378.0743343812642,314.940947333434 M378.0743343812642,314.940947333434 L379.42471836032263,316.1013068395202 M379.42471836032263,316.1013068395202 L380.7191682018686,316.513263265426 M380.7191682018686,316.513263265426 L381.9079553447779,316.4685093118556 M381.9079553447779,316.4685093118556 L383.3147270598572,316.0160205060008 M383.3147270598572,316.0160205060008 L384.8695662642343,315.1134846280846 M384.8695662642343,315.1134846280846 L386.5233878121205,313.773610646207 M386.5233878121205,313.773610646207 L388.26536429351995,312.0051754815437 M388.26536429351995,312.0051754815437 L390.7053483749271,309.00102767783136 M390.7053483749271,309.00102767783136 L395.26231923432306,301.99345709861814 M395.26231923432306,301.99345709861814 L399.99069452031637,293.0399855698157 M381.8143156813865,299.18557244085673 L383.6607386509782,299.9946099571524 M383.6607386509782,299.9946099571524 L385.64423012058893,300.370001097761 M385.64423012058893,300.370001097761 L387.7481588900793,300.30856901215157 M387.7481588900793,300.30856901215157 L390.7101298309114,299.54856811842774 M390.7101298309114,299.54856811842774 L395.2752361959705,297.0696541794638 M395.2752361959705,297.0696541794638 L399.99069452031637,293.0399855698157 M381.8143156813865,299.18557244085673 L366.30152461346523,322.7471641801376 M366.30152461346523,322.7471641801376 L362.227274655397,318.55670164112485 M362.227274655397,318.55670164112485 L357.3971080519519,314.76614731488377 M357.3971080519519,314.76614731488377 L352.09164853946714,311.59571295620447 M352.09164853946714,311.59571295620447 L346.6191259482779,309.2295958713403 M346.6191259482779,309.2295958713403 L341.29748191561964,307.8052916824561 M341.29748191561964,307.8052916824561 L336.43591060993714,307.40559282559695 M336.43591060993714,307.40559282559695 L332.31692136643284,308.0537772335499 M332.31692136643284,308.0537772335499 L329.17991786233,309.71226096109507 M329.17991786233,309.71226096109507 L327.2072741426471,312.2847412737414 M327.2072741426471,312.2847412737414 L326.5137379780185,315.62179243362783 M326.5137379780185,315.62179243362783 L327.1397246594116,319.5295203801654 M327.1397246594116,319.5295203801654 L329.04893884738703,323.78081473696454 M329.04893884738703,323.78081473696454 L332.1304829279859,328.128565863013 M332.1304829279859,328.128565863013 L336.2052761068471,332.3200301924871 M336.2052761068471,332.3200301924871 L341.03645836192754,336.1115321974113 M341.03645836192754,336.1115321974113 L346.34316848355905,339.2826426828721 M346.34316848355905,339.2826426828721 L351.8168962867649,341.64900198853456 M351.8168962867649,341.64900198853456 L357.13942520945596,343.07308089230906 M357.13942520945596,343.07308089230906 L362.0013533902223,343.4721162394895 M362.0013533902223,343.4721162394895 L366.1200926045876,342.82299077713174 M366.1200926045876,342.82299077713174 L369.2562979755235,341.163503156235 M369.2562979755235,341.163503156235 L371.2277712195564,338.59018686844576 M371.2277712195564,338.59018686844576 L371.9200418944251,335.2526525823295 M371.9200418944251,335.2526525823295 L371.29298192857294,331.3449229358655 M371.29298192857294,331.3449229358655 L369.38312638800676,327.0940896792813 M369.38312638800676,327.0940896792813 L366.30152461346523,322.7471641801376 M381.809847359328,234.00426601585184 L374.4223669753385,262.0095454000158 M374.4223669753385,262.0095454000158 L373.44676927721343,275.01311247803494 M373.44676927721343,275.01311247803494 L373.9985675897167,283.52305268007336 M373.9985675897167,283.52305268007336 L375.12336039001207,288.96334200618526 M375.12336039001207,288.96334200618526 L376.35049411258416,292.42586164829146 M376.35049411258416,292.42586164829146 L377.476108156595,294.6438584429037 M377.476108156595,294.6438584429037 L378.43028414757447,296.0829173160577 M378.43028414757447,296.0829173160577 L379.71013393766424,297.56292194040566 M379.71013393766424,297.56292194040566 L380.7302422805184,298.45749675867523 M380.7302422805184,298.45749675867523 L381.8143156813865,299.18557244085673 M417.00690827213754,233.37253019829961 L415.48841926065165,279.9870946271742 M415.48841926065165,279.9870946271742 L410.39689679000764,276.8023302435729 M410.39689679000764,276.8023302435729 L404.608988325408,274.79278902194324 M404.608988325408,274.79278902194324 L398.46101767634906,274.0752177428842 M398.46101767634906,274.0752177428842 L392.310218265845,274.6913191053668 M392.310218265845,274.6913191053668 L386.51399211856153,276.6052978488222 M386.51399211856153,276.6052978488222 L381.4091457879503,279.70595165227576 M381.4091457879503,279.70595165227576 L377.2923317392707,283.8131437068578 M377.2923317392707,283.8131437068578 L374.40281531510607,288.68822870582056 M374.40281531510607,288.68822870582056 L372.90856153775235,294.0479383309759 M372.90856153775235,294.0479383309759 L372.896470939606,299.58081647799617 M372.896470939606,299.58081647799617 L374.36731136770055,304.9653033432575 M374.36731136770055,304.9653033432575 L377.2356561831834,309.88844358471897 M377.2356561831834,309.88844358471897 L381.3348448224218,314.06407425048286 M381.3348448224218,314.06407425048286 L386.4266550261595,317.2494695888199 M386.4266550261595,317.2494695888199 L392.21514498911034,319.2594526744914 M392.21514498911034,319.2594526744914 L398.36385710104156,319.9771657099369 M398.36385710104156,319.9771657099369 L404.515387318835,319.36089652227383 M404.515387318835,319.36089652227383 L410.3121688910427,317.44646092173207 M410.3121688910427,317.44646092173207 L415.41726726289363,314.34516760483433 M415.41726726289363,314.34516760483433 L419.5339708834403,310.23730397355 M419.5339708834403,310.23730397355 L422.4230412269795,305.3616683067844 M422.4230412269795,305.3616683067844 L423.9166125988386,300.0016463985435 M423.9166125988386,300.0016463985435 L423.92794576830016,294.46878821801425 M423.92794576830016,294.46878821801425 L422.456442194398,289.08462886499404 M422.456442194398,289.08462886499404 L419.5876811942851,284.1620521240467 M419.5876811942851,284.1620521240467 L415.48841926065165,279.9870946271742 M464.9956258487682,313.05886793131543 L461.59854326687963,312.60397626092987 M461.59854326687963,312.60397626092987 L457.57199424040135,313.000880049297 M457.57199424040135,313.000880049297 L453.1499649534054,314.22646556133145 M453.1499649534054,314.22646556133145 L448.5893938703068,316.2095047470065 M448.5893938703068,316.2095047470065 L444.1552536833487,318.83476770946453 M444.1552536833487,318.83476770946453 L440.1051626938337,321.94971066475847 M440.1051626938337,321.94971066475847 L436.67443901598614,325.3733754286669 M436.67443901598614,325.3733754286669 L434.0624286643093,328.90683971123576 M434.0624286643093,328.90683971123576 L432.42093641883883,332.3448111622104 M432.42093641883883,332.3448111622104 L431.8453972765883,335.4874939542041 M431.8453972765883,335.4874939542041 L432.3693237729357,338.15226738565923 M432.3693237729357,338.15226738565923 L433.96234572609103,340.18421549315735 M433.96234572609103,340.18421549315735 L436.5319523886491,341.4652107722933 M436.5319523886491,341.4652107722933 L439.9288532233023,341.9207406583048 M439.9288532233023,341.9207406583048 L443.9556540920255,341.52427836511265 M443.9556540920255,341.52427836511265 L448.37830538306946,340.2988261524123 M448.37830538306946,340.2988261524123 L452.93972613629404,338.315595724164 M452.93972613629404,338.315595724164 L457.37475170275576,335.68985923277575 M457.37475170275576,335.68985923277575 L461.4255579121809,332.5742565086365 M461.4255579121809,332.5742565086365 L464.8566654948548,329.14990545674954 M464.8566654948548,329.14990545674954 L467.46864048928546,325.6158785669145 M467.46864048928546,325.6158785669145 L469.1096835183269,322.1776149751288 M469.1096835183269,322.1776149751288 L469.6844670609541,319.03495008058746 M469.6844670609541,319.03495008058746 L469.15964325176657,316.37053182815686 M469.15964325176657,316.37053182815686 L467.5657955022888,314.33916917428064 M467.5657955022888,314.33916917428064 L464.9956258487682,313.05886793131543 M415.805197933512,353.4421202034454 L411.56043189489606,353.12884226067035 M411.56043189489606,353.12884226067035 L406.73521081053013,352.96424479356574 M406.73521081053013,352.96424479356574 L401.6098837838388,352.95787522189704 M401.6098837838388,352.95787522189704 L396.48222042550736,353.11011992377894 M396.48222042550736,353.11011992377894 L391.6501239849524,353.41211356064014 M391.6501239849524,353.41211356064014 L387.39434307676356,353.8463346471266 M387.39434307676356,353.8463346471266 L383.96217521803084,354.3875457462098 M383.96217521803084,354.3875457462098 L381.55309457163725,355.0043187661675 M381.55309457163725,355.0043187661675 L380.30716524760794,355.66080179525176 M380.30716524760794,355.66080179525176 L380.29688127201905,356.3188639319832 M380.29688127201905,356.3188639319832 L381.522942078123,356.9402565853049 M381.522942078123,356.9402565853049 L383.9141826130553,357.48884890945567 M383.9141826130553,357.48884890945567 L387.3316893709882,357.93275758102163 M387.3316893709882,357.93275758102163 L391.5768591159772,358.2461661705693 M391.5768591159772,358.2461661705693 L396.4029480267439,358.4108503488296 M396.4029480267439,358.4108503488296 L401.5293988278028,358.4172345932627 M401.5293988278028,358.4172345932627 L406.65819517597726,358.26494418887495 M406.65819517597726,358.26494418887495 L411.4911658383693,357.96283333726313 M411.4911658383693,357.96283333726313 L415.74736344771503,357.52847421756826 M415.74736344771503,357.52847421756826 L419.17939771900717,356.9871179884272 M419.17939771900717,356.9871179884272 L421.58782509364505,356.37023301003995 M421.58782509364505,356.37023301003995 L422.8327284232308,355.71368826541647 M422.8327284232308,355.71368826541647 L422.84184872585297,355.0556429865798 M422.84184872585297,355.0556429865798 L421.6147558446658,354.43434034664057 M421.6147558446658,354.43434034664057 L419.22284822630286,353.8858781347786 M419.22284822630286,353.8858781347786 L415.805197933512,353.4421202034454 M363.45446783531565,323.1955318063347 L360.0592228611126,319.7034096559305 M360.0592228611126,319.7034096559305 L356.0340115113917,316.54454518043076 M356.0340115113917,316.54454518043076 L351.6127094769693,313.9024700440421 M351.6127094769693,313.9024700440421 L347.05219172125965,311.93069224002306 M347.05219172125965,311.93069224002306 L342.61742601139747,310.74378768126854 M342.61742601139747,310.74378768126854 L338.5660932737571,310.41075221119564 M338.5660932737571,310.41075221119564 L335.13362086079724,310.95096932009216 M335.13362086079724,310.95096932009216 L332.5195040627413,312.3331051124498 M332.5195040627413,312.3331051124498 L330.87571739562406,314.47690144007225 M330.87571739562406,314.47690144007225 L330.29785554457936,317.25781111931843 M330.29785554457936,317.25781111931843 L330.81958536494864,320.5142472926381 M330.81958536494864,320.5142472926381 L332.41064361009336,324.0569628772301 M332.41064361009336,324.0569628772301 L334.9785988392271,327.6800314398484 M334.9785988392271,327.6800314398484 L338.37422250681664,331.1728507300999 M338.37422250681664,331.1728507300999 L342.4001360662962,334.33237213284946 M342.4001360662962,334.33237213284946 L346.82230868984175,336.97490977969204 M346.82230868984175,336.97490977969204 L351.38366597582285,338.9468603998171 M351.38366597582285,338.9468603998171 L355.81904513734725,340.13361004606486 M355.81904513734725,340.13361004606486 L359.87062775285506,340.4661859288871 M359.87062775285506,340.4661859288871 L363.3029265343652,339.92531531022473 M363.3029265343652,339.92531531022473 L365.91648596770034,338.54247477509017 M365.91648596770034,338.54247477509017 L367.55946191793487,336.3981049304744 M367.55946191793487,336.3981049304744 L368.1364408587753,333.6168587484794 M368.1364408587753,333.6168587484794 L367.6139666321679,330.3604217828095 M367.6139666321679,330.3604217828095 L366.02246534704943,326.81802802947146 M366.02246534704943,326.81802802947146 L363.45446783531565,323.1955318063347 M412.64253531645494,282.82659526754213 L408.39957999598295,280.1725823996781 M408.39957999598295,280.1725823996781 L403.5762805897758,278.49793178564505 M403.5762805897758,278.49793178564505 L398.4529237778166,277.8999479005432 M398.4529237778166,277.8999479005432 L393.3272057383337,278.4133795372977 M393.3272057383337,278.4133795372977 L388.49697871422364,280.0083878157597 M388.49697871422364,280.0083878157597 L384.2429229086047,282.5923154181522 M384.2429229086047,282.5923154181522 L380.8122534675934,286.015022534313 M380.8122534675934,286.015022534313 L378.4043526210862,290.0776307572364 M378.4043526210862,290.0776307572364 L377.15918943477834,294.54407716720425 M377.15918943477834,294.54407716720425 L377.1491661345177,299.15480373003464 M377.1491661345177,299.15480373003464 L378.3749097589813,303.64185393307287 M378.3749097589813,303.64185393307287 L380.7652278582674,307.7444351584167 M380.7652278582674,307.7444351584167 L384.18122229055626,311.2240811930587 M384.18122229055626,311.2240811930587 L388.42437917831063,313.8785335041953 M388.42437917831063,313.8785335041953 L393.24807959460964,315.5534896147079 M393.24807959460964,315.5534896147079 L398.3719543515333,316.1515692599826 M398.3719543515333,316.1515692599826 L403.4981779112469,315.6380255886994 M403.4981779112469,315.6380255886994 L408.3287906470061,314.0426918085909 M408.3287906470061,314.0426918085909 L412.5830224734972,311.4583289125685 M412.5830224734972,311.4583289125685 L416.0136152285143,308.035155423975 M416.0136152285143,308.035155423975 L418.4212042488421,303.972163610008 M418.4212042488421,303.972163610008 L419.66589459820983,299.5054988014065 M419.66589459820983,299.5054988014065 L419.67539237080666,294.8947797411359 M419.67539237080666,294.8947797411359 L418.4491882280524,290.40796277812717 M418.4491882280524,290.40796277812717 L416.0585831600626,286.3057746652923 M416.0585831600626,286.3057746652923 L412.64253531645494,282.82659526754213 M448.07634622958045,286.7477941805845 L444.6792868570852,286.2934011036979 M444.6792868570852,286.2934011036979 L440.65264247807653,286.6907902106233 M440.65264247807653,286.6907902106233 L436.23040258143016,287.9168286006123 M436.23040258143016,287.9168286006123 L431.66952276691603,289.9002544107661 M431.66952276691603,289.9002544107661 L427.23498621343356,292.52580923194887 M427.23498621343356,292.52580923194887 L423.18444175404676,295.640948643138 M423.18444175404676,295.640948643138 L419.75322711448604,299.064688737417 M419.75322711448604,299.064688737417 L417.1407213013956,302.598117615506 M417.1407213013956,302.598117615506 L415.49875634366344,306.0359225611958 M415.49875634366344,306.0359225611958 L414.92279618460435,309.17834424200646 M414.92279618460435,309.17834424200646 L415.4463770995222,311.8427498984288 M415.4463770995222,311.8427498984288 L417.03914714362213,313.8742645132707 M417.03914714362213,313.8742645132707 L419.60861303169867,315.1547832204194 M419.60861303169867,315.1547832204194 L423.0054920745837,315.6098118950616 M423.0054920745837,315.6098118950616 L427.0323873139753,315.2128639145757 M427.0323873139753,315.2128639145757 L431.4552477402859,313.98696576126326 M431.4552477402859,313.98696576126326 L436.0169803815479,312.0033464027658 M436.0169803815479,312.0033464027658 L440.4524009533172,309.37731179970285 M440.4524009533172,309.37731179970285 L444.50366649959034,306.26151319267 M444.50366649959034,306.26151319267 L447.9352636548322,302.8370876478642 M447.9352636548322,302.8370876478642 L450.5477307561241,299.30310473076344 M450.5477307561241,299.30310473076344 L452.189245730303,295.8649976146194 M452.189245730303,295.8649976146194 L452.7644490640024,292.72260556148086 M452.7644490640024,292.72260556148086 L452.23997449737385,290.05854334753803 M452.23997449737385,290.05854334753803 L450.6463792528242,288.0276112149779 M450.6463792528242,288.0276112149779 L448.07634622958045,286.7477941805845 M448.07634622958045,286.7477941805845 L464.9956258487682,313.05886793131543 M415.27929748835743,317.6557883175045 L411.0344366655558,317.34305730048237 M411.0344366655558,317.34305730048237 L406.20910376656525,317.1788063714066 M406.20910376656525,317.1788063714066 L401.0836527229861,317.1725647102754 M401.0836527229861,317.1725647102754 L395.95586220528435,317.3246916829846 M395.95586220528435,317.3246916829846 L391.12364206565746,317.62635689312566 M391.12364206565746,317.62635689312566 L386.8677495797969,318.060029398808 M386.8677495797969,318.060029398808 L383.4354857285858,318.6005286873982 M383.4354857285858,318.6005286873982 L381.0263347275008,319.2164480814606 M381.0263347275008,319.2164480814606 L379.7803595217198,319.87200650431635 M379.7803595217198,319.87200650431635 L379.7700643232868,320.529101780374 M379.7700643232868,320.529101780374 L380.99614181692266,321.1495561424679 M380.99614181692266,321.1495561424679 L383.387427170043,321.69729727080306 M383.387427170043,321.69729727080306 L386.8050065115661,322.14048228814886 M386.8050065115661,322.14048228814886 L391.0502701064848,322.4533390362037 M391.0502701064848,322.4533390362037 L395.8764701114513,322.617679605837 M395.8764701114513,322.617679605837 L401.00304726525326,322.6239442225147 M401.00304726525326,322.6239442225147 L406.13196892746873,322.47176172222487 M406.13196892746873,322.47176172222487 L410.9650625733312,322.1699904090416 M410.9650625733312,322.1699904090416 L415.22137520616525,321.73617151223493 M415.22137520616525,321.73617151223493 L418.6535039460703,321.1955281831455 M418.6535039460703,321.1955281831455 L421.06200050451656,320.57949371248657 M421.06200050451656,320.57949371248657 L422.3069481467161,319.9238815755258 M422.3069481467161,319.9238815755258 L422.31608341744146,319.2668014024054 M422.31608341744146,319.2668014024054 L421.0889737970084,318.64643081347947 M421.0889737970084,318.64643081347947 L418.6970218962551,318.09882017321877 M418.6970218962551,318.09882017321877 L415.27929748835743,317.6557883175045 M415.27929748835743,317.6557883175045 L415.805197933512,353.4421202034454 M380.37538747757173,297.4948103076866 L376.9796453743523,294.00256837662556 M376.9796453743523,294.00256837662556 L372.9539690219347,290.8434863159158 M372.9539690219347,290.8434863159158 L368.53225703994366,288.20109879957806 M368.53225703994366,288.20109879957806 L363.9714080549064,286.2289269886874 M363.9714080549064,286.2289269886874 L359.5364105733508,285.04157914874145 M359.5364105733508,285.04157914874145 L355.4849548046126,284.70806875892816 M355.4849548046126,284.70806875892816 L352.05248263686104,285.24781979436096 M352.05248263686104,285.24781979436096 L349.43848859292814,286.6295190701963 M349.43848859292814,286.6295190701963 L347.7949341617516,288.77292358537716 M347.7949341617516,288.77292358537716 L347.21740511078167,291.55352365415706 M347.21740511078167,291.55352365415706 L347.7395429678145,294.80974004398036 M347.7395429678145,294.80974004398036 L349.33106669031906,298.3523401030791 M349.33106669031906,298.3523401030791 L351.89952226068436,301.9754135189591 M351.89952226068436,301.9754135189591 L355.2956416676905,305.46834825622796 M355.2956416676905,305.46834825622796 L359.32202134482503,308.6280876686536 M359.32202134482503,308.6280876686536 L363.74460560004957,311.27094483045823 M363.74460560004957,311.27094483045823 L368.30629119491164,313.2432917596004 M368.30629119491164,313.2432917596004 L372.74190370147767,314.43047686050534 M372.74190370147767,314.43047686050534 L376.79360361888365,314.76352702892757 M376.79360361888365,314.76352702892757 L380.2259035751891,314.22312157492377 M380.2259035751891,314.22312157492377 L382.8393435242385,312.840729986797 M382.8393435242385,312.840729986797 L384.48208782884046,310.69674087533343 M384.48208782884046,310.69674087533343 L385.05873496590976,307.9158136251321 M385.05873496590976,307.9158136251321 L384.53584880840316,304.659587136283 M384.53584880840316,304.659587136283 L382.9438812715826,301.1173049073482 M382.9438812715826,301.1173049073482 L380.37538747757173,297.4948103076866 M380.37538747757173,297.4948103076866 L363.45446783531565,323.1955318063347 M413.17086197847493,266.59348191966023 L408.9271758364726,263.93911689762507 M408.9271758364726,263.93911689762507 L404.10304735364093,262.26424931273493 M404.10304735364093,262.26424931273493 L398.9788069095553,261.66618684189035 M398.9788069095553,261.66618684189035 L393.85221096472816,262.17967261519794 M393.85221096472816,262.17967261519794 L389.02115677594406,263.7748819087531 M389.02115677594406,263.7748819087531 L384.766371085777,266.3591292585826 M384.766371085777,266.3591292585826 L381.33511735835657,269.7822665094462 M381.33511735835657,269.7822665094462 L378.9268110223192,273.84539752476815 M378.9268110223192,273.84539752476815 L377.6814402898444,278.3124144222201 M377.6814402898444,278.3124144222201 L377.671421362845,282.9237354545432 M377.671421362845,282.9237354545432 L378.8973825389285,287.41135836666797 M378.8973825389285,287.41135836666797 L381.2881155526937,291.5144641528027 M381.2881155526937,291.5144641528027 L384.70470302092036,294.994565279118 M384.70470302092036,294.994565279118 L388.94859174965416,297.649360549428 M388.94859174965416,297.649360549428 L393.7731221413633,299.3245376730255 M393.7731221413633,299.3245376730255 L398.8978784275286,299.92270866236686 M398.8978784275286,299.92270866236686 L404.0249819672173,299.4090996293748 M404.0249819672173,299.4090996293748 L408.8564227599712,297.813574831454 M408.8564227599712,297.813574831454 L413.1113811098689,295.2288795485114 M413.1113811098689,295.2288795485114 L416.54255964432787,291.8052749068887 M416.54255964432787,291.8052749068887 L418.95055518737774,287.7417634780263 M418.95055518737774,287.7417634780263 L420.1954544400449,283.2745342601603 M420.1954544400449,283.2745342601603 L420.20494385808354,278.66322248831636 M420.20494385808354,278.66322248831636 L418.978522005814,274.17582498488633 M418.978522005814,274.17582498488633 L416.5875013545217,270.07311187961955 M416.5875013545217,270.07311187961955 L413.17086197847493,266.59348191966023 M413.17086197847493,266.59348191966023 L412.64253531645494,282.82659526754213" stroke="black"  stroke-width="4"  fill="red"/>
<path d="M591.27948031912,56.88366760576832 L591.2635493225791,78.98589724043086 M208.38273057006438,277.81407224466915 L208.39871477260735,299.93474753208085 M591.27948031912,56.88366760576832 L543.8940433763239,35.11235460177761 M543.8940433763239,35.11235460177761 L489.3139316654779,19.966020343568232 M489.3139316654779,19.966020343568232 L430.2694570077478,12.199435612412401 M430.2694570077478,12.199435612412401 L369.7119320328848,12.199435612412458 M369.7119320328848,12.199435612412458 L310.66745737515464,19.966020343568175 M310.66745737515464,19.966020343568175 L256.08734566430877,35.11235460177761 M256.08734566430877,35.11235460177761 L208.70190872151295,56.883667605768096 M208.70190872151295,56.883667605768096 L170.88491363466528,84.19415451615163 M170.88491363466528,84.19415451615163 L144.5349744790807,115.68025059559915 M144.5349744790807,115.68025059559915 L130.97990731827588,149.76786426248322 M130.97990731827588,149.76786426248322 L130.90888355294317,184.7503280402198 M130.90888355294317,184.7503280402198 L144.33597026148797,218.87350328423543 M144.33597026148797,218.87350328423543 L170.5973441505833,250.4236791244033 M170.5973441505833,250.4236791244033 L208.38273057006438,277.81407224466915 M591.2635493225791,78.98589724043086 L543.8820607249511,57.2127632086399 M543.8820607249511,57.2127632086399 L489.3064946824498,42.0651617069916 M489.3064946824498,42.0651617069916 L430.26693616951076,34.29792705956788 M430.26693616951076,34.29792705956788 L369.7144528711219,34.29792705956788 M369.7144528711219,34.29792705956788 L310.67489435818294,42.0651617069916 M310.67489435818294,42.0651617069916 L256.09932831568153,57.2127632086399 M256.09932831568153,57.2127632086399 L208.71783971805385,78.98589724043069 M208.71783971805385,78.98589724043069 L170.90399805801124,106.29866765105345 M170.90399805801124,106.29866765105345 L144.55625890092475,137.78739519966587 M144.55625890092475,137.78739519966587 L131.0023269077111,171.8778563530298 M131.0023269077111,171.8778563530298 L130.93131498181054,206.8632408480533 M130.93131498181054,206.8632408480533 L144.35728785669625,240.98926358324502 M144.35728785669625,240.98926358324502 L170.61647651085065,272.54207090103597 M170.61647651085065,272.54207090103597 L208.39871477260735,299.93474753208085 M208.38273057006438,277.81407224466915 L255.79977600682665,299.66529150048143 M255.79977600682665,299.66529150048143 L310.46845294133544,314.8757056322653 M310.46845294133544,314.8757056322653 L369.6409081713222,322.6778520422462 M369.6409081713222,322.6778520422462 L430.3404808693104,322.6778520422462 M430.3404808693104,322.6778520422462 L489.51293609929724,314.8757056322654 M489.51293609929724,314.8757056322654 L544.1816130338061,299.66529150048143 M544.1816130338061,299.66529150048143 L591.5986584705679,277.8140722446693 M591.5986584705679,277.8140722446693 L629.3840448900494,250.42367912440335 M629.3840448900494,250.42367912440335 L655.6454187791446,218.87350328423548 M655.6454187791446,218.87350328423548 L669.0725054876896,184.75032804021987 M669.0725054876896,184.75032804021987 L669.0014817223569,149.76786426248322 M669.0014817223569,149.76786426248322 L655.446414561552,115.68025059559915 M655.446414561552,115.68025059559915 L629.0964754059673,84.19415451615168 M629.0964754059673,84.19415451615168 L591.27948031912,56.88366760576832 M208.39871477260735,299.93474753208085 L255.81180659517855,321.7877878262254 M255.81180659517855,321.7877878262254 L310.4759230978,336.99946920988816 M310.4759230978,336.99946920988816 L369.6434408490236,344.8022655408188 M369.6434408490236,344.8022655408188 L430.3379481916091,344.8022655408188 M430.3379481916091,344.8022655408188 L489.5054659428327,336.9994692098882 M489.5054659428327,336.9994692098882 L544.1695824454541,321.7877878262254 M544.1695824454541,321.7877878262254 L591.5826742680249,299.934747532081 M591.5826742680249,299.934747532081 L629.364912529782,272.54207090103597 M629.364912529782,272.54207090103597 L655.6241011839363,240.98926358324508 M655.6241011839363,240.98926358324508 L669.050074058822,206.8632408480533 M669.050074058822,206.8632408480533 L668.9790621329214,171.87785635302993 M668.9790621329214,171.87785635302993 L655.425130139708,137.78739519966587 M655.425130139708,137.78739519966587 L629.0773909826214,106.29866765105345 M629.0773909826214,106.29866765105345 L591.2635493225791,78.98589724043086" stroke="black"  stroke-width="4"  fill="red"/></svg>