<svg viewBox="0 0 800 800" xmlns="http://www.w3.org/2000/svg"><path d="M559.4718527635923,130.41280813333037 L559.487152652692,109.18615973133171 M559.487152652692,109.18615973133171 L595.8060250740389,135.41473996583193 M595.8060250740389,135.41473996583193 L621.1121097141367,165.65351234659784 M621.1121097141367,165.65351234659784 L634.1301920272731,198.39074303011932 M634.1301920272731,198.39074303011932 L634.1984021816252,231.98737428044012 M634.1984021816252,231.98737428044012 L621.3032303669929,264.7587577669534 M621.3032303669929,264.7587577669534 L596.0822024747197,295.05907138464335 M596.0822024747197,295.05907138464335 L559.7936865413708,321.3643923394397 M559.7936865413708,321.3643923394397 L514.2550703752779,342.34997415471014 M514.2550703752779,342.34997415471014 L461.7520965544201,356.95782676329156 M461.7520965544201,356.95782676329156 L404.92376190169705,364.4508906470299 M404.92376190169705,364.4508906470299 L346.62880663659104,364.4508906470299 M346.62880663659104,364.4508906470299 L289.8004719838679,356.95782676329156 M289.8004719838679,356.95782676329156 L237.29749816301012,342.34997415471014 M237.29749816301012,342.34997415471014 L191.7588819969167,321.3643923394394 M191.7588819969167,321.3643923394394 L155.47036606356838,295.05907138464335 M155.47036606356838,295.05907138464335 L130.249338171295,264.7587577669533 M130.249338171295,264.7587577669533 L117.3541663566628,231.98737428044006 M117.3541663566628,231.98737428044006 L117.42237651101476,198.39074303011932 M117.42237651101476,198.39074303011932 L130.44045882415128,165.65351234659778 M130.44045882415128,165.65351234659778 L155.74654346424924,135.4147399658318 M155.74654346424924,135.4147399658318 L192.0654158855964,109.18615973133149 M192.0654158855964,109.18615973133149 L237.57367573022196,88.27731867663476 M237.57367573022196,88.27731867663476 L289.99159284438485,73.73100741336077 M289.99159284438485,73.73100741336077 L346.6970168833607,66.27209643027925 M346.6970168833607,66.27209643027925 L404.85555165492735,66.27209643027913 M404.85555165492735,66.27209643027913 L461.5609756939032,73.73100741336077 M461.5609756939032,73.73100741336077 L513.9788928080661,88.27731867663476 M513.9788928080661,88.27731867663476 L559.487152652692,109.18615973133171 M559.4718527635923,130.41280813333037 L513.9673848501895,109.50221819096527 M513.9673848501895,109.50221819096527 L461.55383332743065,94.95468988618194 M461.55383332743065,94.95468988618194 L404.85313067985726,87.4951547333066 M404.85313067985726,87.4951547333066 L346.69943785843077,87.4951547333066 M346.69943785843077,87.4951547333066 L289.9987352108574,94.95468988618188 M289.9987352108574,94.95468988618188 L237.58518368809843,109.50221819096527 M237.58518368809843,109.50221819096527 L192.08071577469505,130.41280813333077 M192.08071577469505,130.41280813333077 L155.7648718569506,156.64358140706253 M155.7648718569506,156.64358140706253 L130.4609000622703,186.88488101117508 M130.4609000622703,186.88488101117508 L117.4439079469887,219.62484637781853 M117.4439079469887,219.62484637781853 L117.37570916304895,253.22428264102507 M117.37570916304895,253.22428264102507 L130.26981126861335,285.9984008151704 M130.26981126861335,285.9984008151704 L155.48874049416693,316.30124166433006 M155.48874049416693,316.30124166433006 L191.7742329842604,342.608755668481 M191.7742329842604,342.608755668481 L237.3090521588394,363.59608638153406 M237.3090521588394,363.59608638153406 L289.80764620960906,378.20515603973064 M289.80764620960906,378.20515603973064 L346.6312389821041,385.6988440977589 M346.6312389821041,385.6988440977589 L404.92132955618393,385.6988440977589 M404.92132955618393,385.6988440977589 L461.744922328679,378.20515603973064 M461.744922328679,378.20515603973064 L514.2435163794487,363.59608638153406 M514.2435163794487,363.59608638153406 L559.7783355540294,342.6087556684801 M559.7783355540294,342.6087556684801 L596.063828044121,316.3012416643301 M596.063828044121,316.3012416643301 L621.2827572696747,285.9984008151705 M621.2827572696747,285.9984008151705 L634.176859375239,253.22428264102507 M634.176859375239,253.22428264102507 L634.1086605912992,219.62484637781864 M634.1086605912992,219.62484637781864 L621.0916684760177,186.88488101117508 M621.0916684760177,186.88488101117508 L595.7876966813374,156.64358140706253 M595.7876966813374,156.64358140706253 L559.4718527635923,130.41280813333037" stroke="black"  stroke-width="4"  fill="red"/>
<path d="M437.0421562420623,201.06620391929658 L449.9292919204096,210.55293887001835 M449.9292919204096,210.55293887001835 L458.50949873291376,221.54446312056785 M458.50949873291376,221.54446312056785 L462.2832118211361,233.40258662846037 M462.2832118211361,233.40258662846037 L461.02980489714383,245.43844624149142 M461.02980489714383,245.43844624149142 L454.82074667927975,256.95246689778185 M454.82074667927975,256.95246689778185 L444.0157299494769,267.2750361860205 M444.0157299494769,267.2750361860205 L429.2420572658341,275.80553397533424 M429.2420572658341,275.80553397533424 L411.35832163228474,282.047393300073 M411.35832163228474,282.047393300073 L391.40450457864347,285.63714575429736 M391.40450457864347,285.63714575429736 L370.54140194460535,286.3657150962549 M370.54140194460535,286.3657150962549 L349.9828827443242,284.1906575035359 M349.9828827443242,284.1906575035359 L330.92503322437057,279.23867038196147 M330.92503322437057,279.23867038196147 L314.4763586738737,271.7981427498805 M314.4763586738737,271.7981427498805 L301.59312363285665,262.30227500023585 M301.59312363285665,262.30227500023585 L293.02372514595845,251.30371016381696 M293.02372514595845,251.30371016381696 L289.26525200698933,239.44225119891343 M289.26525200698933,239.44225119891343 L290.5348392199318,227.40752536858577 M290.5348392199318,227.40752536858577 L296.7573113605303,215.8988479999062 M296.7573113605303,215.8988479999062 L307.5699026741139,205.58460742065722 M307.5699026741139,205.58460742065722 L322.3435753589784,197.06351575653417 M322.3435753589784,197.06351575653417 L340.2197364101349,190.8299851425361 M340.2197364101349,190.8299851425361 L360.16013954017535,187.24557597435137 M360.16013954017535,187.24557597435137 L381.007061882891,186.51814041714078 M381.007061882891,186.51814041714078 L401.55034113209,188.6898625494788 M401.55034113209,188.6898625494788 L420.59738232673226,193.63480908751444 M420.59738232673226,193.63480908751444 L437.0421562420623,201.06620391929658 M374.1834608958631,270.8786790927191 L374.61093491716537,270.68535769766305 M374.61093491716537,270.68535769766305 L375.106132705971,270.55670712699447 M375.106132705971,270.55670712699447 L375.640275159591,270.5002016553589 M375.640275159591,270.5002016553589 L376.18232403282946,270.5191296076336 M376.18232403282946,270.5191296076336 L376.700773472025,270.6123858782686 M376.700773472025,270.6123858782686 L377.1654970692947,270.7745562766896 M377.1654970692947,270.7745562766896 L377.54948681468227,270.9962127136175 M377.54948681468227,270.9962127136175 L377.83042846335985,271.26447493007555 M377.83042846335985,271.26447493007555 L377.9919876592421,271.5637527507195 M377.9919876592421,271.5637527507195 L378.02478343095237,271.8766554006313 M378.02478343095237,271.8766554006313 L377.92689995601063,272.1849953648972 M377.92689995601063,272.1849953648972 L377.70403299821305,272.47085475357704 M377.70403299821305,272.47085475357704 L377.3691306476381,272.71761968689356 M377.3691306476381,272.71761968689356 L376.94165399120646,272.91094725336825 M376.94165399120646,272.91094725336825 L376.44644890074983,273.0396025816458 M376.44644890074983,273.0396025816458 L375.9122961516955,273.0961103072529 M375.9122961516955,273.0961103072529 L375.37023634771407,273.07718158877964 M375.37023634771407,273.07718158877964 L374.8517778466502,272.9839217074991 M374.8517778466502,272.9839217074991 L374.38704913234034,272.8217456809506 M374.38704913234034,272.8217456809506 L374.0030593869527,272.600082887885 M374.0030593869527,272.600082887885 L373.72212285531526,272.331815043351 M373.72212285531526,272.331815043351 L373.5605727213014,272.03253361201564 M373.5605727213014,272.03253361201564 L373.52778788033424,271.71963019595717 M373.52778788033424,271.71963019595717 L373.62568165071013,271.4112924856131 M373.62568165071013,271.4112924856131 L373.8485559101587,271.12543785457956 M373.8485559101587,271.12543785457956 L374.1834608958631,270.8786790927191 M435.46721693560386,237.3413133427121 L435.13228889574276,237.0946855133048 M435.13228889574276,237.0946855133048 L434.9093463087321,236.80898494928925 M434.9093463087321,236.80898494928925 L434.81134166163645,236.5008162995893 M434.81134166163645,236.5008162995893 L434.843977757778,236.18808749886068 M434.843977757778,236.18808749886068 L435.00534805876055,235.8889759570248 M435.00534805876055,235.8889759570248 L435.28608256797077,235.62086278676776 M435.28608256797077,235.62086278676776 L435.66985896947625,235.3993295016827 M435.66985896947625,235.3993295016827 L436.13437541593424,235.23724920465276 M436.13437541593424,235.23724920465276 L436.652635937714,235.1440447468725 M436.652635937714,235.1440447468725 L437.1945251021443,235.1251273108967 M437.1945251021443,235.1251273108967 L437.72854634054056,235.18160138830086 M437.72854634054056,235.18160138830086 L438.22366844875853,235.3101804811356 M438.22366844875853,235.3101804811356 L438.65111672338713,235.5033944673247 M438.65111672338713,235.5033944673247 L438.9860473939449,235.75001613041866 M438.9860473939449,235.75001613041866 L439.208997276261,236.03571194075232 M439.208997276261,236.03571194075232 L439.30701221198655,236.3438783384085 M439.30701221198655,236.3438783384085 L439.2743870408835,236.65660790464545 M439.2743870408835,236.65660790464545 L439.11302579847137,236.95572305416403 M439.11302579847137,236.95572305416403 L438.83229640616554,237.2238418478072 M438.83229640616554,237.2238418478072 L438.4485200077177,237.4453814837335 M438.4485200077177,237.4453814837335 L437.98399844977,237.60746740420097 M437.98399844977,237.60746740420097 L437.4657288728935,237.70067546961815 M437.4657288728935,237.70067546961815 L436.92382878416186,237.71959367115414 M436.92382878416186,237.71959367115414 L436.3897972549673,237.66311734165652 M436.3897972549673,237.66311734165652 L435.8946678468665,237.5345334951773 M435.8946678468665,237.5345334951773 L435.46721693560386,237.3413133427121 M316.08621346929,235.5033944673247 L316.4209066697283,235.75001613041866 M316.4209066697283,235.75001613041866 L316.6435814577266,236.03571194075232 M316.6435814577266,236.03571194075232 L316.741299662377,236.3438783384085 M316.741299662377,236.3438783384085 L316.70837336635856,236.65660790464545 M316.70837336635856,236.65660790464545 L316.5467241082491,236.95572305416403 M316.5467241082491,236.95572305416403 L316.2657365464009,237.2238418478072 M316.2657365464009,237.2238418478072 L315.88174682912637,237.4453814837335 M315.88174682912637,237.4453814837335 L315.4170691998815,237.60746740420097 M315.4170691998815,237.60746740420097 L314.8987098736693,237.70067546961815 M314.8987098736693,237.70067546961815 L314.3567915687457,237.7195936711541 M314.3567915687457,237.7195936711541 L313.8228144201782,237.66311734165652 M313.8228144201782,237.66311734165652 L313.327808824483,237.5345334951773 M313.327808824483,237.5345334951773 L312.9005439634322,237.3413133427121 M312.9005439634322,237.3413133427121 L312.565853399628,237.0946855133048 M312.565853399628,237.0946855133048 L312.3431859115124,236.80898494928925 M312.3431859115124,236.80898494928925 L312.24547799766043,236.5008162995893 M312.24547799766043,236.5008162995893 L312.27841521798024,236.18808749886068 M312.27841521798024,236.18808749886068 L312.44007353118633,235.8889759570248 M312.44007353118633,235.8889759570248 L312.7210662045243,235.62086278676776 M312.7210662045243,235.62086278676776 L313.1050559187412,235.3993295016827 M313.1050559187412,235.3993295016827 L313.56972843108156,235.23724920465276 M313.56972843108156,235.23724920465276 L314.08807869872334,235.1440447468725 M314.08807869872334,235.1440447468725 L314.6299860786085,235.1251273108967 M314.6299860786085,235.1251273108967 L315.1639529385462,235.18160138830086 M315.1639529385462,235.18160138830086 L315.65895123893586,235.3101804811356 M315.65895123893586,235.3101804811356 L316.08621346929,235.5033944673247 M377.368245775756,201.98465955209605 L376.94100659389426,202.17777238004675 M376.94100659389426,202.17777238004675 L376.44607660412055,202.3062848042847 M376.44607660412055,202.3062848042847 L375.9122205929664,202.3627297638314 M375.9122205929664,202.3627297638314 L375.3704619196257,202.3438220704702 M375.3704619196257,202.3438220704702 L374.85229143757715,202.2506657777446 M374.85229143757715,202.2506657777446 L374.38782089296427,202.08866988828368 M374.38782089296427,202.08866988828368 L374.00404446336205,201.8672533068849 M374.00404446336205,201.8672533068849 L373.7232639974846,201.59928343994693 M373.7232639974846,201.59928343994693 L373.56180360604367,201.30033443370337 M373.56180360604367,201.30033443370337 L373.5290369748307,200.98777857244147 M373.5290369748307,200.98777857244147 L373.62687635994183,200.67978334474049 M373.62687635994183,200.67978334474049 L373.8496268052088,200.39424622278233 M373.8496268052088,200.39424622278233 L374.1843457421923,200.14776154422879 M374.1843457421923,200.14776154422879 L374.6115822918516,199.9546548774174 M374.6115822918516,199.9546548774174 L375.1065049880846,199.82614720286387 M375.1065049880846,199.82614720286387 L375.64035071524006,199.7697044935345 M375.64035071524006,199.7697044935345 L376.1820984699789,199.78861142197337 M376.1820984699789,199.78861142197337 L376.7002599002245,199.88176411006737 M376.7002599002245,199.88176411006737 L377.16472533348093,200.0437543807754 M377.16472533348093,200.0437543807754 L377.5485017630832,200.26516461662345 M377.5485017630832,200.26516461662345 L377.82928734031714,200.53312886485992 M377.82928734031714,200.53312886485992 L377.990756783561,200.8320742664261 M377.990756783561,200.8320742664261 L378.0235343333758,201.1446293628175 M378.0235343333758,201.1446293628175 L377.92570523226334,201.4526268406861 M377.92570523226334,201.4526268406861 L377.7029620805371,201.73816871236608 M377.7029620805371,201.73816871236608 L377.368245775756,201.98465955209605 M437.0421562420623,201.06620391929658 L437.04045455409266,208.14293538245465 M437.04045455409266,208.14293538245465 L420.596137472674,200.71133369214255 M420.596137472674,200.71133369214255 L401.54962531534636,195.76624949439878 M401.54962531534636,195.76624949439878 L381.0069166122293,193.5944669012825 M381.0069166122293,193.5944669012825 L360.1605732387215,194.32192271053975 M360.1605732387215,194.32192271053975 L340.2207239302802,197.90643166648857 M340.2207239302802,197.90643166648857 L322.34505943053534,204.14013580481702 M322.34505943053534,204.14013580481702 L307.5717972052178,212.66146464522944 M307.5717972052178,212.66146464522944 L296.7595064049173,222.97599226891697 M296.7595064049173,222.97599226891697 L290.53720733062784,234.48498986828957 M290.53720733062784,234.48498986828957 L289.26765561559813,246.52005050484274 M289.26765561559813,246.52005050484274 L293.02602454399266,258.381839393817 M293.02602454399266,258.381839393817 L301.5951850959978,269.3807100982017 M301.5951850959978,269.3807100982017 L314.4780622540536,278.8768418836175 M314.4780622540536,278.8768418836175 L330.92627975389746,286.31757637454535 M330.92627975389746,286.31757637454535 L349.9835996359655,291.2697011560725 M349.9835996359655,291.2697011560725 L370.54154744334767,293.4448192096857 M370.54154744334767,293.4448192096857 L391.4040702091105,292.71622961564213 M391.4040702091105,292.71622961564213 L411.35733269580004,289.12637737346796 M411.35733269580004,289.12637737346796 L429.24057135705146,282.88434452410945 M429.24057135705146,282.88434452410945 L444.0138335811476,274.3536095581795 M444.0138335811476,274.3536095581795 L454.8185502185535,264.03075322521295 M454.8185502185535,264.03075322521295 L461.0274361154611,252.51641233804395 M461.0274361154611,252.51641233804395 L462.2808084406079,240.48021791874783 M462.2808084406079,240.48021791874783 L458.5072004097769,228.6217644869006 M458.5072004097769,228.6217644869006 L449.9272321327369,217.62993436863002 M449.9272321327369,217.62993436863002 L437.04045455409266,208.14293538245465 M374.1834772779282,273.4983903006925 L373.8485757367341,273.74515160171546 M373.8485757367341,273.74515160171546 L373.62570376958416,274.03100917419783 M373.62570376958416,274.03100917419783 L373.5278110060983,274.33935005732735 M373.5278110060983,274.33935005732735 L373.5605955099297,274.65225669313656 M373.5605955099297,274.65225669313656 L373.72214398244756,274.9515412040386 M373.72214398244756,274.9515412040386 L374.0030776246799,275.2198118090013 M374.0030776246799,275.2198118090013 L374.38706342073425,275.4414768829291 M374.38706342073425,275.4414768829291 L374.8517873552844,275.6036545782289 M374.8517873552844,275.6036545782289 L375.37024052395765,275.69691541912863 M375.37024052395765,275.69691541912863 L375.9122947527995,275.7158443323732 M375.9122947527995,275.7158443323732 L376.44644200804146,275.659336025317 M376.44644200804146,275.659336025317 L376.94164200527774,275.5306793732094 M376.94164200527774,275.5306793732094 L377.36911426509977,275.33734981743913 M377.36911426509977,275.33734981743913 L377.7040131712187,275.09058234496024 M377.7040131712187,275.09058234496024 L377.92687783686785,274.80472001483133 M377.92687783686785,274.80472001483133 L378.02476030513117,274.49637687778005 M378.02476030513117,274.49637687778005 L377.99196487078166,274.1834710081176 M377.99196487078166,274.1834710081176 L377.8304073365818,273.8841901079069 M377.8304073365818,273.8841901079069 L377.5494685774146,273.61592513102016 M377.5494685774146,273.61592513102016 L377.1654827813602,273.3942664132301 M377.1654827813602,273.3942664132301 L376.700763963745,273.23209434605786 M376.700763963745,273.23209434605786 L376.1823198567537,273.13883711580377 M376.1823198567537,273.13883711580377 L375.64027655843,273.1199089687577 M375.64027655843,273.1199089687577 L375.10613959841055,273.17641502184233 M375.10613959841055,273.17641502184233 L374.61094690267504,273.3050669163409 M374.61094690267504,273.3050669163409 L374.1834772779282,273.4983903006925 M374.1834772779282,273.4983903006925 L374.1834608958631,270.8786790927191 M435.46660318068695,239.9606793576619 L435.89404969586974,240.1539014994217 M435.89404969586974,240.1539014994217 L436.3891740123069,240.2824866697303 M436.3891740123069,240.2824866697303 L436.9232000501824,240.3389635806766 M436.9232000501824,240.3389635806766 L437.4650945670594,240.32004518436946 M437.4650945670594,240.32004518436946 L437.98335881543073,240.22683615933357 M437.98335881543073,240.22683615933357 L438.44787559787915,240.06474857011568 M438.44787559787915,240.06474857011568 L438.8316480513813,239.84320665332837 M438.8316480513813,239.84320665332837 L439.1123745585419,239.5750850992577 M439.1123745585419,239.5750850992577 L439.27373414334244,239.27596687017382 M439.27373414334244,239.27596687017382 L439.30635898059325,238.9632340841879 M439.30635898059325,238.9632340841879 L439.2083450542494,238.65506451374785 M439.2083450542494,238.65506451374785 L438.9853974657867,238.36936576196672 M438.9853974657867,238.36936576196672 L438.6504702402672,238.12274155971159 M438.6504702402672,238.12274155971159 L438.22302636166427,237.92952558422786 M438.22302636166427,237.92952558422786 L437.72790934495976,237.80094516756384 M437.72790934495976,237.80094516756384 L437.1938935976709,237.74447050871095 M437.1938935976709,237.74447050871095 L436.65201000487065,237.76338813945796 M436.65201000487065,237.76338813945796 L436.13375481140974,237.85659355685692 M436.13375481140974,237.85659355685692 L435.66924314034605,238.01867552263712 M435.66924314034605,238.01867552263712 L435.2854706837864,238.24021108858318 M435.2854706837864,238.24021108858318 L435.00473905982653,238.5083270192676 M435.00473905982653,238.5083270192676 L434.8433704166418,238.80744164066874 M434.8433704166418,238.80744164066874 L434.8107346545773,239.1201736611464 M434.8107346545773,239.1201736611464 L434.9087382925028,239.42834548363015 M434.9087382925028,239.42834548363015 L435.13167858581,239.71404898909327 M435.13167858581,239.71404898909327 L435.46660318068695,239.9606793576619 M435.46660318068695,239.9606793576619 L435.46721693560386,237.3413133427121 M316.0868272064833,238.12274155971147 L315.65956936832896,237.92952558422786 M315.65956936832896,237.92952558422786 L315.1645761569068,237.80094516756384 M315.1645761569068,237.80094516756384 L314.6306147869583,237.74447050871095 M314.6306147869583,237.74447050871095 L314.0887129790778,237.76338813945796 M314.0887129790778,237.76338813945796 L313.57036804160055,237.85659355685686 M313.57036804160055,237.85659355685686 L313.1057003078637,238.01867552263712 M313.1057003078637,238.01867552263712 L312.72171454297916,238.24021108858318 M312.72171454297916,238.24021108858318 L312.44072476020045,238.5083270192676 M312.44072476020045,238.5083270192676 L312.27906811071495,238.80744164066874 M312.27906811071495,238.80744164066874 L312.24613123066445,239.1201736611464 M312.24613123066445,239.1201736611464 L312.34383814144854,239.42834548363015 M312.34383814144854,239.42834548363015 L312.5665033415177,239.71404898909327 M312.5665033415177,239.71404898909327 L312.90119046522136,239.9606793576619 M312.90119046522136,239.9606793576619 L313.3284509340183,240.1539014994217 M313.3284509340183,240.1539014994217 L313.823451440596,240.2824866697303 M313.823451440596,240.2824866697303 L314.3574230989627,240.3389635806766 M314.3574230989627,240.3389635806766 L314.8993358316571,240.32004518436946 M314.8993358316571,240.32004518436946 L315.4176898275185,240.22683615933357 M315.4176898275185,240.22683615933357 L315.88236267805456,240.06474857011568 M315.88236267805456,240.06474857011568 L316.2663484459965,239.84320665332825 M316.2663484459965,239.84320665332825 L316.5473331173906,239.5750850992577 M316.5473331173906,239.5750850992577 L316.70898071196564,239.27596687017382 M316.70898071196564,239.27596687017382 L316.7419066679394,238.9632340841879 M316.7419066679394,238.9632340841879 L316.6441894665686,238.65506451374785 M316.6441894665686,238.65506451374785 L316.4215169667668,238.3693657619666 M316.4215169667668,238.3693657619666 L316.0868272064833,238.12274155971147 M316.0868272064833,238.12274155971147 L316.08621346929,235.5033944673247 M377.3682294114145,204.60366145170894 L377.7029422755653,204.35716807282 M377.7029422755653,204.35716807282 L377.92568313768913,204.0716232596954 M377.92568313768913,204.0716232596954 L378.0235112332413,203.7636226090459 M378.0235112332413,203.7636226090459 L377.99073402041245,203.45106429290843 M377.99073402041245,203.45106429290843 L377.82926623700524,203.15211581178005 M377.82926623700524,203.15211581178005 L377.548483546072,202.88414880311888 M377.548483546072,202.88414880311888 L377.16471106141654,202.66273628641204 M377.16471106141654,202.66273628641204 L376.70025040250556,202.5007443469553 M376.70025040250556,202.5007443469553 L376.18209429854164,202.40759069924349 M376.18209429854164,202.40759069924349 L375.64035211252536,202.38868357603366 M375.64035211252536,202.38868357603366 L375.10651187286857,202.44512686681117 M375.10651187286857,202.44512686681117 L374.61159426404873,202.57363586519267 M374.61159426404873,202.57363586519267 L374.18436210606137,202.76674452129686 M374.18436210606137,202.76674452129686 L373.84964660976226,203.01323173900903 M373.84964660976226,203.01323173900903 L373.6268984542477,203.29877180241186 M373.6268984542477,203.29877180241186 L373.52906007490816,203.60677020289364 M373.52906007490816,203.60677020289364 L373.5618263693597,203.91932928390162 M373.5618263693597,203.91932928390162 L373.7232851011501,204.21828136970754 M373.7232851011501,204.21828136970754 L374.00406268083185,204.48625399707032 M374.00406268083185,204.48625399707032 L374.3878351654874,204.70767285932794 M374.3878351654874,204.70767285932794 L374.8523009356497,204.8696704175377 M374.8523009356497,204.8696704175377 L375.3704660912305,204.96282766988116 M375.3704660912305,204.96282766988116 L375.91221919562423,204.98173555801333 M375.91221919562423,204.98173555801333 L376.44606971906825,204.92529001701848 M376.44606971906825,204.92529001701848 L376.9409946212789,204.79677626895239 M376.9409946212789,204.79677626895239 L377.3682294114145,204.60366145170894 M377.3682294114145,204.60366145170894 L377.368245775756,201.98465955209605 M371.6737227045075,276.5084901636925 L370.8111026712101,277.14408493696726 M370.8111026712101,277.14408493696726 L370.2370302037873,277.8803863488486 M370.2370302037873,277.8803863488486 L369.9848731390416,278.67460981078784 M369.9848731390416,278.67460981078784 L370.069289010702,279.48059410158174 M370.069289010702,279.48059410158174 L370.4853756075731,280.2515007588467 M370.4853756075731,280.2515007588467 L371.20896428692595,280.9425258081463 M371.20896428692595,280.9425258081463 L372.19800094105125,281.5135039957157 M372.19800094105125,281.5135039957157 L373.3950091336868,281.9312501438868 M373.3950091336868,281.9312501438868 L374.730416390815,282.1714804789164 M374.730416390815,282.1714804789164 L376.1266091912541,282.22023606023 M376.1266091912541,282.22023606023 L377.5024446209046,282.0746815321308 M377.5024446209046,282.0746815321308 L378.777949418818,281.74327568135453 M378.777949418818,281.74327568135453 L379.8789984536645,281.24528170887817 M379.8789984536645,281.24528170887817 L380.74160100531924,280.60964599102533 M380.74160100531924,280.60964599102533 L381.3156250326173,279.8733130144967 M381.3156250326173,279.8733130144967 L381.5677137955034,279.0790745988316 M381.5677137955034,279.0790745988316 L381.4832254078351,278.27309539106864 M381.4832254078351,278.27309539106864 L381.0670786930061,277.50221268908956 M381.0670786930061,277.50221268908956 L380.343456066147,276.81122497953334 M380.343456066147,276.81122497953334 L379.3544194120216,276.2402889619622 M379.3544194120216,276.2402889619622 L378.15744516689233,275.82258015349754 M378.15744516689233,275.82258015349754 L376.822098027722,275.5823737735432 M376.822098027722,275.5823737735432 L375.42597774329084,275.53362327526844 M375.42597774329084,275.53362327526844 L374.0502106155001,275.67916284977383 M374.0502106155001,275.67916284977383 L372.7747542577114,276.0105371358586 M372.7747542577114,276.0105371358586 L371.6737227045075,276.5084901636925 M393.24004042313663,233.4212800664157 L388.55301327814567,231.3023430538929 M388.55301327814567,231.3023430538929 L383.12365640172305,229.89227753949865 M383.12365640172305,229.89227753949865 L377.2674328222783,229.27297926091768 M377.2674328222783,229.27297926091768 L371.3245767641542,229.4804194719182 M371.3245767641542,229.4804194719182 L365.64035362412477,230.50254907443008 M365.64035362412477,230.50254907443008 L360.54501786972264,232.28000292075103 M360.54501786972264,232.28000292075103 L356.3346378457508,234.70953949494867 M356.3346378457508,234.70953949494867 L353.2539059576153,237.65002801077515 M353.2539059576153,237.65002801077515 L351.48191601727245,240.93063663397947 M351.48191601727245,240.93063663397947 L351.12174237592797,244.36074473338704 M351.12174237592797,244.36074473338704 L352.1944316029349,247.74101447861898 M352.1944316029349,247.74101447861898 L354.63774345429437,250.87497512238963 M354.63774345429437,250.87497512238963 L358.3097622637519,253.58044131497388 M358.3097622637519,253.58044131497388 L362.9971062200317,255.7001201392912 M362.9971062200317,255.7001201392912 L368.4273409539256,257.1107575248357 M368.4273409539256,257.1107575248357 L374.28480232935766,257.7303267264104 M374.28480232935766,257.7303267264104 L380.22897255861545,257.52279442381854 M380.22897255861545,257.52279442381854 L385.91428518391837,256.50023081275697 M385.91428518391837,256.50023081275697 L391.01023614953783,254.72210046697114 M391.01023614953783,254.72210046697114 L395.22061617350164,252.29179988033536 M395.22061617350164,252.29179988033536 L398.30073285041067,249.3506348651697 M398.30073285041067,249.3506348651697 L400.0716333054856,246.06959223341124 M400.0716333054856,246.06959223341124 L400.4304927757121,242.63939204249743 M400.4304927757121,242.63939204249743 L399.3565657527299,239.25939321976279 M399.3565657527299,239.25939321976279 L396.91237604389727,236.1260044475868 M396.91237604389727,236.1260044475868 L393.24004042313663,233.4212800664157 M432.95704093775487,245.86718650877805 L434.05802366784854,246.36490379688547 M434.05802366784854,246.36490379688547 L435.3333335353788,246.69612551869193 M435.3333335353788,246.69612551869193 L436.70885673660666,246.84159917659707 M436.70885673660666,246.84159917659707 L438.1046381620238,246.79287068392767 M438.1046381620238,246.79287068392767 L439.43955880811865,246.5527738209338 M439.43955880811865,246.5527738209338 L440.6360334353111,246.13525977203034 M440.6360334353111,246.13525977203034 L441.6245205839695,245.5645988180379 M441.6245205839695,245.5645988180379 L442.34757575328183,244.8739576980496 M442.34757575328183,244.8739576980496 L442.76317584347953,244.1034793493734 M442.76317584347953,244.1034793493734 L442.8471804816589,243.2979428532044 M442.8471804816589,243.2979428532044 L442.5947113520988,242.50416064895154 M442.5947113520988,242.50416064895154 L442.02044412397095,241.76826831174668 M442.02044412397095,241.76826831174668 L441.15775794720753,241.13302666060628 M441.15775794720753,241.13302666060628 L440.0567927087385,240.63535028302346 M440.0567927087385,240.63535028302346 L438.781531269603,240.3041600996068 M438.781531269603,240.3041600996068 L437.40607633948,240.15870138283526 M437.40607633948,240.15870138283526 L436.01036738733694,240.20742479670128 M436.01036738733694,240.20742479670128 L434.67550681427684,240.4474977245809 M434.67550681427684,240.4474977245809 L433.47906609776913,240.8649744648917 M433.47906609776913,240.8649744648917 L432.4905789288267,241.43559328402455 M432.4905789288267,241.43559328402455 L431.7674898129085,242.12619709538342 M431.7674898129085,242.12619709538342 L431.3518296266309,242.89665150873486 M431.3518296266309,242.89665150873486 L431.2677525102876,243.70218292610832 M431.2677525102876,243.70218292610832 L431.52015338312845,244.49598007162655 M431.52015338312845,244.49598007162655 L432.09437221322696,245.23190394717716 M432.09437221322696,245.23190394717716 L432.95704093775487,245.86718650877805 M318.5976541186094,241.13302666060622 L317.49716804897304,240.63535028302346 M317.49716804897304,240.63535028302346 L316.22222548375,240.3041600996068 M316.22222548375,240.3041600996068 L314.846910603038,240.15870138283526 M314.846910603038,240.15870138283526 L313.451154739403,240.20742479670128 M313.451154739403,240.20742479670128 L312.11606302122567,240.4474977245809 M312.11606302122567,240.4474977245809 L310.9192203530655,240.8649744648917 M310.9192203530655,240.8649744648917 L309.9301837854258,241.43559328402455 M309.9301837854258,241.43559328402455 L309.2064297478092,242.12619709538342 M309.2064297478092,242.12619709538342 L308.7900277587084,242.89665150873486 M308.7900277587084,242.89665150873486 L308.7051750669784,243.70218292610832 M308.7051750669784,243.70218292610832 L308.9568116623313,244.49598007162655 M308.9568116623313,244.49598007162655 L309.53032193602587,245.23190394717716 M309.53032193602587,245.23190394717716 L310.3923790028234,245.867186508778 M310.3923790028234,245.867186508778 L311.49288252469523,246.36490379688547 M311.49288252469523,246.36490379688547 L312.76787348794755,246.69612551869193 M312.76787348794755,246.69612551869193 L314.1432566253789,246.84159917659707 M314.1432566253789,246.84159917659707 L315.53908496717787,246.79287068392767 M315.53908496717787,246.79287068392767 L316.87423678143494,246.5527738209338 M316.87423678143494,246.5527738209338 L318.07111339620116,246.13525977203034 M318.07111339620116,246.13525977203034 L319.06014998412473,245.5645988180379 M319.06014998412473,245.5645988180379 L319.78387011105656,244.8739576980496 M319.78387011105656,244.8739576980496 L320.20021202712275,244.1034793493734 M320.20021202712275,244.1034793493734 L320.28499224557874,243.2979428532043 M320.28499224557874,243.2979428532043 L320.0332873791209,242.50416064895154 M320.0332873791209,242.50416064895154 L319.4597286770316,241.76826831174668 M319.4597286770316,241.76826831174668 L318.5976541186094,241.13302666060622 M379.8767193155621,210.5087445336241 L380.7388426883625,209.87381483403897 M380.7388426883625,209.87381483403897 L381.31254785344385,209.1382997186211 M381.31254785344385,209.1382997186211 L381.564496597648,208.3449434756045 M381.564496597648,208.3449434756045 L381.48005516419204,207.53985947554537 M381.48005516419204,207.53985947554537 L381.06413963940616,206.76983299399643 M381.06413963940616,206.76983299399643 L380.3409190010425,206.07961276099525 M380.3409190010425,206.07961276099525 L379.3524317659397,205.50931087603226 M379.3524317659397,205.50931087603226 L378.1561224416676,205.0920660105324 M378.1561224416676,205.0920660105324 L376.82151708351455,204.85212642354503 M376.82151708351455,204.85212642354503 L375.4261723367043,204.803430071523 M375.4261723367043,204.803430071523 L374.05116944133727,204.94880799792543 M374.05116944133727,204.94880799792543 L372.7764215979235,205.27981423205512 M372.7764215979235,205.27981423205512 L371.6760016730934,205.77721418987267 M371.6760016730934,205.77721418987267 L370.8138608380674,206.412103013077 M370.8138608380674,206.412103013077 L370.2401072866643,207.14758661642173 M370.2401072866643,207.14758661642173 L369.9880903164641,207.9409279306194 M369.9880903164641,207.9409279306194 L370.0724593144564,208.7460170052433 M370.0724593144564,208.7460170052433 L370.488314788058,209.51606740217807 M370.488314788058,209.51606740217807 L371.2115015166213,210.20632491272943 M371.2115015166213,210.20632491272943 L372.19998875172405,210.77666889745223 M372.19998875172405,210.77666889745223 L373.3963319857965,211.1939510404655 M373.3963319857965,211.1939510404655 L374.73099739513384,211.43391454262843 M374.73099739513384,211.43391454262843 L376.12641457740773,211.4826159692231 M376.12641457740773,211.4826159692231 L377.5014856987709,211.33722311413345 M377.5014856987709,211.33722311413345 L378.7762819285065,211.00618536788653 M378.7762819285065,211.00618536788653 L379.8767193155621,210.5087445336241 M374.1834772779282,273.4983903006925 L373.3468772845568,274.5017768056583 M373.3468772845568,274.5017768056583 L372.5102904783202,275.50514230160115 M372.5102904783202,275.50514230160115 L371.6737227045075,276.5084901636925 M435.46660318068695,239.9606793576619 L434.6300799907298,241.92952255271916 M434.6300799907298,241.92952255271916 L433.7935572954901,243.8983593940457 M433.7935572954901,243.8983593940457 L432.95704093775487,245.86718650877805 M316.0868272064833,238.12274155971147 L316.9237846484954,239.12618980615036 M316.9237846484954,239.12618980615036 L317.760728900967,240.1296170486831 M317.760728900967,240.1296170486831 L318.5976541186094,241.13302666060622 M377.3682294114145,204.60366145170894 L378.2043951527019,206.57202995317363 M378.2043951527019,206.57202995317363 L379.0405604016803,208.54039210414197 M379.0405604016803,208.54039210414197 L379.8767193155621,210.5087445336241 M393.24004042313663,233.4212800664157 L393.23688087308085,279.5109749583217 M394.2879600933494,279.935767190602 L393.23688087308085,279.5109749583217 M393.2396608689685,299.4529085625167 L396.71229614617516,296.25476045144063 M396.71229614617516,296.25476045144063 L399.1171864290277,292.8924470729628 M399.1171864290277,292.8924470729628 L400.3317469493154,289.5374542632507 M400.3317469493154,289.5374542632507 L400.29412406683036,286.3608730208726 M400.29412406683036,286.3608730208726 L399.0063317168366,283.5246718725581 M399.0063317168366,283.5246718725581 L397.0237682271272,281.526192850595 M397.0237682271272,281.526192850595 L394.2879600933494,279.935767190602 M358.3129228145944,299.67378663665124 L362.8719281239907,300.9891393772901 M362.8719281239907,300.9891393772901 L368.1442681195368,301.8648250354578 M368.1442681195368,301.8648250354578 L373.83851204911366,302.25241834695964 M373.83851204911366,302.25241834695964 L379.63987898879776,302.1304844340949 M379.63987898879776,302.1304844340949 L385.2276634528588,301.5057653909548 M385.2276634528588,301.5057653909548 L389.4973947680304,300.6252193242967 M389.4973947680304,300.6252193242967 L393.2396608689685,299.4529085625167 M358.3156725247277,279.29011437065066 L354.7215178340475,281.21955839277695 M354.7215178340475,281.21955839277695 L352.2906583293876,283.80190407068386 M352.2906583293876,283.80190407068386 L351.1575061168776,286.8945055975604 M351.1575061168776,286.8945055975604 L351.3847820353905,290.3264987790474 M351.3847820353905,290.3264987790474 L352.9600288563723,293.9082374396473 M352.9600288563723,293.9082374396473 L355.2418390737058,296.86459378502656 M355.2418390737058,296.86459378502656 L358.3129228145944,299.67378663665124 M392.1183996309672,278.6834048076887 L387.54820871099673,276.16041677700025 M387.54820871099673,276.16041677700025 L382.3778953855957,274.4977596649415 M382.3778953855957,274.4977596649415 L376.8710432237843,273.7801721875039 M376.8710432237843,273.7801721875039 L371.308382749357,274.0442264642837 M371.308382749357,274.0442264642837 L365.973483367677,275.27646718306073 M365.973483367677,275.27646718306073 L361.898603540012,276.9990337503321 M361.898603540012,276.9990337503321 L358.3156725247277,279.29011437065066 M393.23688087308085,279.5109749583217 L392.1183996309672,278.6834048076887 M393.2396608689685,299.4529085625167 L400.33718950012013,334.5493825357093 M400.33718950012013,334.5493825357093 L401.2745641711018,348.1231986853224 M401.2745641711018,348.1231986853224 L400.7443828556263,355.68554344643184 M400.7443828556263,355.68554344643184 L399.6636702032182,359.66321620072995 M399.6636702032182,359.66321620072995 L398.48465147852437,361.62742171056357 M398.48465147852437,361.62742171056357 L397.40319408352315,362.5087952787914 M397.40319408352315,362.5087952787914 L396.4864660145219,362.8321890270102 M396.4864660145219,362.8321890270102 L395.25686957909306,362.8334870881857 M395.25686957909306,362.8334870881857 L394.2768354646597,362.5607011634286 M394.2768354646597,362.5607011634286 L393.23536820079033,362.0570071983001 M394.2879600933494,279.935767190602 L427.31576751850605,331.29848438252293 M428.0039603752623,348.8242320565539 L430.6562373178867,344.9247551676679 M430.6562373178867,344.9247551676679 L432.2542450457553,341.17183139964055 M432.2542450457553,341.17183139964055 L432.71272858136035,337.7658543776162 M432.71272858136035,337.7658543776162 L432.007282195046,334.8886641870602 M432.007282195046,334.8886641870602 L430.1756701507489,332.69383534996285 M430.1756701507489,332.69383534996285 L427.31576751850605,331.29848438252293 M441.62953930301103,370.01253356480294 L428.0039603752623,348.8242320565539 M430.5748921171214,352.82301814703914 L425.4186021914341,354.5505146645065 M425.4186021914341,354.5505146645065 L420.21190305177646,357.0988135421907 M420.21190305177646,357.0988135421907 L415.25355167932304,360.32168634437545 M415.25355167932304,360.32168634437545 L410.8280477135383,364.0342131380916 M410.8280477135383,364.0342131380916 L407.1893387926377,368.02337422570366 M407.1893387926377,368.02337422570366 L404.54624941071876,372.060273883464 M404.54624941071876,372.060273883464 L403.0505132646057,375.9132611840685 M403.0505132646057,375.9132611840685 L402.7880459064487,379.3611996457316 M402.7880459064487,379.3611996457316 L403.77400947207707,382.20617004722016 M403.77400947207707,382.20617004722016 L405.95191400096166,384.2848231609886 M405.95191400096166,384.2848231609886 L409.1968397690921,385.47777853522354 M409.1968397690921,385.47777853522354 L413.3225888946979,385.71647612811734 M413.3225888946979,385.71647612811734 L418.0923543906228,384.9871465180867 M418.0923543906228,384.9871465180867 L423.23231500317723,383.33161511495035 M423.23231500317723,383.33161511495035 L428.4473667457431,380.8448986318706 M428.4473667457431,380.8448986318706 L433.43806945248417,377.6697583936752 M433.43806945248417,377.6697583936752 L437.9178629134457,373.988508000462 M437.9178629134457,373.988508000462 L441.62953930301103,370.01253356480294 M430.5748921171214,352.82301814703914 L416.9511161032897,331.63752368370086 M427.31576751850605,331.29848438252293 L424.3020413276453,330.8041234355162 M424.3020413276453,330.8041234355162 L420.80507604737767,330.9185226007383 M420.80507604737767,330.9185226007383 L416.9511161032897,331.63752368370086 M375.776284269144,335.9871301398528 L382.7410389762547,340.4695112655074 M382.7410389762547,340.4695112655074 L386.03368825282394,341.18468339391944 M386.03368825282394,341.18468339391944 L388.3606808910824,341.0350274408576 M388.3606808910824,341.0350274408576 L390.00644237446704,340.53743202001516 M390.00644237446704,340.53743202001516 L391.69364422752574,339.619548796708 M391.69364422752574,339.619548796708 L393.1394380182804,338.4278920725282 M393.1394380182804,338.4278920725282 L394.3362480179871,337.08148827428533 M394.3362480179871,337.08148827428533 L395.4270515148722,335.4835067794004 M395.4270515148722,335.4835067794004 L396.4056204279691,333.64308084122894 M396.4056204279691,333.64308084122894 L397.2663708152804,331.570704966229 M397.2663708152804,331.570704966229 L398.22236905590046,328.46736425577944 M398.22236905590046,328.46736425577944 L399.226814384436,323.1487496609893 M399.226814384436,323.1487496609893 L399.72658778080734,313.9245111767381 M399.72658778080734,313.9245111767381 L398.1857072049499,298.24397966752434 M398.1857072049499,298.24397966752434 L396.1022705502431,288.7965153792014 M396.1022705502431,288.7965153792014 L393.23688087308085,279.5109749583217 M393.23536820079033,362.0570071983001 L391.46155842375225,360.7851002456779 M391.46155842375225,360.7851002456779 L389.55613411853045,358.94461328894715 M389.55613411853045,358.94461328894715 L387.5350846876511,356.55098551082443 M387.5350846876511,356.55098551082443 L384.6899191743019,352.53443072386165 M384.6899191743019,352.53443072386165 L380.3051253812971,345.0885412735122 M380.3051253812971,345.0885412735122 L375.776284269144,335.9871301398528 M393.23536820079033,362.0570071983001 L393.6983388006596,393.56523552246693 M393.6983388006596,393.56523552246693 L388.8064562525903,393.20420984241593 M388.8064562525903,393.20420984241593 L383.245671388737,393.0145256971345 M383.245671388737,393.0145256971345 L377.33905638970674,393.00719067566047 M377.33905638970674,393.00719067566047 L371.4297489261321,393.182640521063 M371.4297489261321,393.182640521063 L365.8610424981077,393.5306663533724 M365.8610424981077,393.5306663533724 L360.9564659732619,394.03106938715047 M360.9564659732619,394.03106938715047 L357.0010063590013,394.65478004238355 M357.0010063590013,394.65478004238355 L354.22455647096183,395.3655740396092 M354.22455647096183,395.3655740396092 L352.7885524301118,396.12214094907193 M352.7885524301118,396.12214094907193 L352.7765674831842,396.88053620023663 M352.7765674831842,396.88053620023663 L354.18944013459156,397.596669550225 M354.18944013459156,397.596669550225 L356.9451773695919,398.22891995606284 M356.9451773695919,398.22891995606284 L360.88370541404106,398.7405261517803 M360.88370541404106,398.7405261517803 L365.77614869389026,399.10173428298555 M365.77614869389026,399.10173428298555 L371.338129836511,399.29153647237376 M371.338129836511,399.29153647237376 L377.2463031713385,399.29889400951294 M377.2463031713385,399.29889400951294 L383.157174762155,399.12338126742384 M383.157174762155,399.12338126742384 L388.72709019881114,398.77520135566505 M388.72709019881114,398.77520135566505 L393.6322443755124,398.27460019865663 M393.6322443755124,398.27460019865663 L397.58751924460245,397.6506888347081 M397.58751924460245,397.6506888347081 L400.3630628536564,396.93973836667266 M400.3630628536564,396.93973836667266 L401.7976494518505,396.18308991868855 M401.7976494518505,396.18308991868855 L401.80802573457163,395.4247226656624 M401.80802573457163,395.4247226656624 L400.39372577022675,394.7087024007563 M400.39372577022675,394.7087024007563 L397.6370688235607,394.07663441578126 M397.6370688235607,394.07663441578126 L393.6983388006596,393.56523552246693 M358.3129228145944,299.67378663665124 L352.0765473376489,335.64260984148086 M352.0765473376489,335.64260984148086 L352.1043150600866,348.5605802545341 M352.1043150600866,348.5605802545341 L353.35207670408175,354.4702932442358 M353.35207670408175,354.4702932442358 L354.72814213086593,357.02048391031906 M354.72814213086593,357.02048391031906 L356.02503056271047,358.1348757007736 M356.02503056271047,358.1348757007736 L357.26820069145754,358.53051244666705 M357.26820069145754,358.53051244666705 L358.40989395609444,358.4875314238136 M358.40989395609444,358.4875314238136 L359.76093632021116,358.05296799078076 M359.76093632021116,358.05296799078076 L361.25418047062016,357.18618612906886 M361.25418047062016,357.18618612906886 L362.8424857727049,355.89939134019835 M362.8424857727049,355.89939134019835 L364.5154537450052,354.20101284705447 M364.5154537450052,354.20101284705447 L366.858777701846,351.31587454964796 M366.858777701846,351.31587454964796 L371.2352238708268,344.585909324607 M371.2352238708268,344.585909324607 L375.776284269144,335.9871301398528 M358.3199638339237,341.88925919614235 L360.09324064014373,342.6662466397757 M360.09324064014373,342.6662466397757 L361.9981559690371,343.02676663647463 M361.9981559690371,343.02676663647463 L364.01873746651574,342.96776818684356 M364.01873746651574,342.96776818684356 L366.8633697401474,342.23787477686017 M366.8633697401474,342.23787477686017 L371.2476291262171,339.8571631712454 M371.2476291262171,339.8571631712454 L375.776284269144,335.9871301398528 M358.3199638339237,341.88925919614235 L343.421712970761,364.51745698017044 M343.421712970761,364.51745698017044 L339.5088646839012,360.49299988115126 M339.5088646839012,360.49299988115126 L334.87004543764687,356.85260860562084 M334.87004543764687,356.85260860562084 L329.7747620411728,353.8077712056981 M329.7747620411728,353.8077712056981 L324.5190337804822,351.5353879996343 M324.5190337804822,351.5353879996343 L319.40820701463065,350.1675077117775 M319.40820701463065,350.1675077117775 L314.73922716541534,349.78364295055337 M314.73922716541534,349.78364295055337 L310.7834119427574,350.40614949196123 M310.7834119427574,350.40614949196123 L307.77068103198087,351.9989322811613 M307.77068103198087,351.9989322811613 L305.87618371871196,354.4695036226142 M305.87618371871196,354.4695036226142 L305.2101220333536,357.6743572885674 M305.2101220333536,357.6743572885674 L305.81131021255095,361.4272803439742 M305.81131021255095,361.4272803439742 L307.64489075904504,365.51015940444927 M307.64489075904504,365.51015940444927 L310.60435927490687,369.68567409312533 M310.60435927490687,369.68567409312533 L314.5177292628334,373.71109329661306 M314.5177292628334,373.71109329661306 L319.157523925619,377.3523947084752 M319.157523925619,377.3523947084752 L324.254008388279,380.3978814503741 M324.254008388279,380.3978814503741 L329.5108941164354,382.67049728164375 M329.5108941164354,382.67049728164375 L334.62257071734484,384.0381612090749 M334.62257071734484,384.0381612090749 L339.29189330401476,384.42138874559834 M339.29189330401476,384.42138874559834 L343.24746840245405,383.79797842971584 M343.24746840245405,383.79797842971584 L346.2594327981598,382.2042315164632 M346.2594327981598,382.2042315164632 L348.1528060042459,379.7328573170758 M348.1528060042459,379.7328573170758 L348.81765233230186,376.527539663969 M348.81765233230186,376.527539663969 L348.21543338687746,372.77461497597864 M348.21543338687746,372.77461497597864 L346.38123689501634,368.69217874920406 M346.38123689501634,368.69217874920406 L343.421712970761,364.51745698017044 M358.3156725247277,279.29011437065066 L351.22084764598867,306.1859628308942 M351.22084764598867,306.1859628308942 L350.28389831272216,318.6743927720998 M350.28389831272216,318.6743927720998 L350.81383709998164,326.84721115180804 M350.81383709998164,326.84721115180804 L351.8940711619572,332.0719830702672 M351.8940711619572,332.0719830702672 L353.0725919040647,335.39733477653743 M353.0725919040647,335.39733477653743 L354.1536146761338,337.5274654870681 M354.1536146761338,337.5274654870681 L355.0699909245457,338.90951595143895 M355.0699909245457,338.90951595143895 L356.2991393838035,340.3308900984661 M356.2991393838035,340.3308900984661 L357.27883606977724,341.19002627841564 M357.27883606977724,341.19002627841564 L358.3199638339237,341.88925919614235 M392.1183996309672,278.6834048076887 L390.66006565824625,323.451330302059 M390.66006565824625,323.451330302059 L385.7702441740941,320.39273056206287 M385.7702441740941,320.39273056206287 L380.2116240714267,318.46279744373345 M380.2116240714267,318.46279744373345 L374.30720567063685,317.77365279653145 M374.30720567063685,317.77365279653145 L368.4000705699666,318.3653472643556 M368.4000705699666,318.3653472643556 L362.8334622901438,320.2035036181614 M362.8334622901438,320.2035036181614 L357.9308447715845,323.1813248239917 M357.9308447715845,323.1813248239917 L353.9771185732699,327.1258102041167 M353.9771185732699,327.1258102041167 L351.2020705260198,331.8077684007935 M351.2020705260198,331.8077684007935 L349.76701170708947,336.9551527882744 M349.76701170708947,336.9551527882744 L349.75540007875765,342.26884561561326 M349.75540007875765,342.26884561561326 L351.1679730697488,347.4400256912577 M351.1679730697488,347.4400256912577 L353.9226882229415,352.1681354189451 M353.9226882229415,352.1681354189451 L357.85948724353085,356.1783482103176 M357.85948724353085,356.1783482103176 L362.74958506221185,359.2375539097374 M362.74958506221185,359.2375539097374 L368.3087636271364,361.1679113876366 M368.3087636271364,361.1679113876366 L374.21389411769957,361.85719217553674 M374.21389411769957,361.85719217553674 L380.12173107468203,361.2653365309373 M380.12173107468203,361.2653365309373 L385.68887277623537,359.42674141846777 M385.68887277623537,359.42674141846777 L390.5917323514047,356.44830603355905 M390.5917323514047,356.44830603355905 L394.54535249620386,352.50317568128554 M394.54535249620386,352.50317568128554 L397.3199721343407,347.82068863154575 M397.3199721343407,347.82068863154575 L398.7543755813136,342.6730043320936 M398.7543755813136,342.6730043320936 L398.76525978654615,337.35933068027197 M398.76525978654615,337.35933068027197 L397.3520499203108,332.1884651424505 M397.3520499203108,332.1884651424505 L394.5969350696685,327.4608965921683 M394.5969350696685,327.4608965921683 L390.66006565824625,323.451330302059 M410.69569672461756,336.15751243338536 L412.657760863364,334.53768330077247 M412.657760863364,334.53768330077247 L414.7540393278178,333.0229729180102 M414.7540393278178,333.0229729180102 L416.9511161032897,331.63752368370086 M424.58206986735763,334.0264005761491 L421.70037151262846,333.5975739345874 M421.70037151262846,333.5975739345874 L418.31810382766474,333.8217397226237 M418.31810382766474,333.8217397226237 L414.5922394361527,334.68846898530904 M414.5922394361527,334.68846898530904 L410.69569672461756,336.15751243338536 M421.29477077056816,352.6413212801104 L424.54608535395846,349.3638127051988 M424.54608535395846,349.3638127051988 L427.01386477759723,345.98885282001845 M427.01386477759723,345.98885282001845 L428.55631459143626,342.7104194280729 M428.55631459143626,342.7104194280729 L429.08483048583474,339.71692339934964 M429.08483048583474,339.71692339934964 L428.5691096901116,337.1803773640862 M428.5691096901116,337.1803773640862 L427.03885602055834,335.24651029304994 M427.03885602055834,335.24651029304994 L424.58206986735763,334.0264005761491 M428.0039603752623,348.8242320565539 L425.83143067245624,350.24879436733664 M425.83143067245624,350.24879436733664 L423.583079940684,351.5279582252864 M423.583079940684,351.5279582252864 L421.29477077056816,352.6413212801104 M441.62953930301103,370.01253356480294 L439.45718714237523,371.436986151966 M439.45718714237523,371.436986151966 L437.20899853996093,372.716018528338 M437.20899853996093,372.716018528338 L434.92083349970056,373.8292304415487 M434.92083349970056,373.8292304415487 L421.29477077056816,352.6413212801104 M424.3200301600218,357.3427328407855 L426.2818970750558,355.7229721513254 M426.2818970750558,355.7229721513254 L428.37798947070564,354.2083517883502 M428.37798947070564,354.2083517883502 L430.5748921171214,352.82301814703914 M424.3200301600218,357.3427328407855 L419.8465798910823,359.69674737621693 M419.8465798910823,359.69674737621693 L415.6629346036926,362.61628617936327 M415.6629346036926,362.61628617936327 L412.02744684771136,365.92105092264626 M412.02744684771136,365.92105092264626 L409.1646297359275,369.4069834727576 M409.1646297359275,369.4069834727576 L407.2513139888377,372.85879326217525 M407.2513139888377,372.85879326217525 L406.40571386705057,376.06331108673646 M406.40571386705057,376.06331108673646 L406.68012327406024,378.8225981011771 M406.68012327406024,378.8225981011771 L408.05767354917975,380.9661875964552 M408.05767354917975,380.9661875964552 L410.4533482276051,382.36161523288456 M410.4533482276051,382.36161523288456 L413.7192249839711,382.92262782447295 M413.7192249839711,382.92262782447295 L417.6535876672641,382.6145178689349 M417.6535876672641,382.6145178689349 L422.01339488414277,381.45626698338907 M422.01339488414277,381.45626698338907 L426.52928654555217,379.51941178460515 M426.52928654555217,379.51941178460515 L430.9222453940975,376.9236045883268 M430.9222453940975,376.9236045883268 L434.92083349970056,373.8292304415487 M424.3200301600218,357.3427328407855 L410.69569672461756,336.15751243338536 M390.96429512383423,393.99643036843673 L386.88768576180235,393.695562951289 M386.88768576180235,393.695562951289 L382.25361611757427,393.537486023312 M382.25361611757427,393.537486023312 L377.3313292470128,393.53136878262995 M377.3313292470128,393.53136878262995 L372.40679859873745,393.6775823009643 M372.40679859873745,393.6775823009643 L367.7661259659931,393.96761244069455 M367.7661259659931,393.96761244069455 L363.678938089147,394.38463183122366 M363.678938089147,394.38463183122366 L360.3827357784215,394.90440281819605 M360.3827357784215,394.90440281819605 L358.0690910150506,395.49674233574177 M358.0690910150506,395.49674233574177 L356.87251926043297,396.12721874787695 M356.87251926043297,396.12721874787695 L356.86264268519113,396.75921171120956 M356.86264268519113,396.75921171120956 L358.04013301448464,397.3559878550497 M358.04013301448464,397.3559878550497 L360.3366444035443,397.88284765938914 M360.3366444035443,397.88284765938914 L363.6187664139106,398.3091708606988 M363.6187664139106,398.3091708606988 L367.69576348946197,398.6101637490389 M367.69576348946197,398.6101637490389 L372.33066658109266,398.7683239531036 M372.33066658109266,398.7683239531036 L377.2540327076288,398.77445528528756 M377.2540327076288,398.77445528528756 L382.1796514622825,398.62819787495516 M382.1796514622825,398.62819787495516 L386.8211636845102,398.3380551639439 M386.8211636845102,398.3380551639439 L390.9087517548704,397.9209032084007 M390.9087517548704,397.9209032084007 L394.20482577023023,397.400992840707 M394.20482577023023,397.400992840707 L396.51784314124757,396.808545799972 M396.51784314124757,396.808545799972 L397.71342954625675,396.17801011716256 M397.71342954625675,396.17801011716256 L397.72218854751054,395.5460333438983 M397.72218854751054,395.5460333438983 L396.5437070288539,394.94934364755466 M396.5437070288539,394.94934364755466 L394.24655498291605,394.4226088010974 M394.24655498291605,394.4226088010974 L390.96429512383423,393.99643036843673 M340.6874425279487,364.94806249433987 L337.426700399334,361.59428098502053 M337.426700399334,361.59428098502053 L333.560948053233,358.5605551266193 M333.560948053233,358.5605551266193 L329.314796180096,356.02314596479295 M329.314796180096,356.02314596479295 L324.9349436253246,354.12948026388375 M324.9349436253246,354.12948026388375 L320.6758614411067,352.9895950047107 M320.6758614411067,352.9895950047107 L316.7850225075299,352.6697527559656 M316.7850225075299,352.6697527559656 L313.4885277075124,353.18856912973564 M313.4885277075124,353.18856912973564 L310.97796931266754,354.5159515247762 M310.97796931266754,354.5159515247762 L309.39930135891177,356.5748212245358 M309.39930135891177,356.5748212245358 L308.84433154184785,359.24556498997487 M308.84433154184785,359.24556498997487 L309.34539300220155,362.37299723718115 M309.34539300220155,362.37299723718115 L310.87342137377465,365.77536791857534 M310.87342137377465,365.77536791857534 L313.33964689318606,369.2549083896607 M313.33964689318606,369.2549083896607 L316.60075271322467,372.60935942158807 M316.60075271322467,372.60935942158807 L320.4671794510001,375.64371618302437 M320.4671794510001,375.64371618302437 L324.7141674248167,378.1815695329237 M324.7141674248167,378.1815695329237 L329.0948262518145,380.0754012038177 M329.0948262518145,380.0754012038177 L333.354497585768,381.21513768735286 M333.354497585768,381.21513768735286 L337.24557649828455,381.53453855542557 M337.24557649828455,381.53453855542557 L340.5419045452734,381.0150945607205 M340.5419045452734,381.0150945607205 L343.05192765543626,379.68703534133306 M343.05192765543626,379.68703534133306 L344.62981700891015,377.62761484449214 M344.62981700891015,377.62761484449214 L345.1839388923137,374.95654790688224 M345.1839388923137,374.95654790688224 L344.6821625154223,371.8291148987146 M344.6821625154223,371.8291148987146 L343.15370865493225,368.4270532992088 M343.15370865493225,368.4270532992088 L340.6874425279487,364.94806249433987 M387.9269215874951,326.1783439439683 L383.85205121189273,323.62946996465826 M383.85205121189273,323.62946996465826 L379.21982711842105,322.0211607412067 M379.21982711842105,322.0211607412067 L374.29943241240954,321.4468660257445 M374.29943241240954,321.4468660257445 L369.3767700190529,321.93995803555515 M369.3767700190529,321.93995803555515 L364.73789274570214,323.4717799596244 M364.73789274570214,323.4717799596244 L360.6523616313779,325.9533451057122 M360.6523616313779,325.9533451057122 L357.35759837846047,329.2404614617843 M357.35759837846047,329.2404614617843 L355.0450866771285,333.1421292015776 M355.0450866771285,333.1421292015776 L353.8492507096377,337.4316370529516 M353.8492507096377,337.4316370529516 L353.8396244830544,341.85970938975635 M353.8396244830544,341.85970938975635 L355.0168101958784,346.1690048136279 M355.0168101958784,346.1690048136279 L357.31243569163865,350.10906202280836 M357.31243569163865,350.10906202280836 L360.59310528723756,353.4508616584849 M360.59310528723756,353.4508616584849 L364.66816924502166,356.00015767249437 M364.66816924502166,356.00015767249437 L369.3007784625449,357.6087602901631 M369.3007784625449,357.6087602901631 L374.2216705950981,358.18314697225276 M374.2216705950981,358.18314697225276 L379.14481848246936,357.6899473661684 M379.14481848246936,357.6899473661684 L383.7840661874778,356.157812835221 M383.7840661874778,356.157812835221 L387.86976634959615,353.6758296396883 M387.86976634959615,353.6758296396883 L391.16445595443986,350.38826538655695 M391.16445595443986,350.38826538655695 L393.47666818260643,346.48622925170383 M393.47666818260643,346.48622925170383 L394.67205004462244,342.1965116535718 M394.67205004462244,342.1965116535718 L394.6811715623538,337.7684465221125 M394.6811715623538,337.7684465221125 L393.5035435747004,333.4593750984518 M393.5035435747004,333.4593750984518 L391.20764247852003,329.5196954286033 M391.20764247852003,329.5196954286033 L387.9269215874951,326.1783439439683 M421.9570198277311,329.94420431268503 L424.58206986735763,334.0264005761491 M421.9570198277311,329.94420431268503 L418.6945351783277,329.50781204643823 M418.6945351783277,329.50781204643823 L414.8274065724854,329.8894585586192 M414.8274065724854,329.8894585586192 L410.5803539905961,331.0669273598136 M410.5803539905961,331.0669273598136 L406.20015372000273,332.97177963035364 M406.20015372000273,332.97177963035364 L401.9412916141201,335.4933229303117 M401.9412916141201,335.4933229303117 L398.0512097311037,338.4850558956059 M398.0512097311037,338.4850558956059 L394.7559228777121,341.7731643083025 M394.7559228777121,341.7731643083025 L392.24691164856085,345.16661617666233 M392.24691164856085,345.16661617666233 L390.6699932370571,348.4682322607865 M390.6699932370571,348.4682322607865 L390.1168497763298,351.4861667068561 M390.1168497763298,351.4861667068561 L390.61968900000375,354.04502176374484 M390.61968900000375,354.04502176374484 L392.14936135750753,355.99605779791676 M392.14936135750753,355.99605779791676 L394.6170376910117,357.22584867504173 M394.6170376910117,357.22584867504173 L397.8793491545737,357.6628513597986 M397.8793491545737,357.6628513597986 L401.746718682949,357.2816284988051 M401.746718682949,357.2816284988051 L405.99436721218035,356.10429437880254 M405.99436721218035,356.10429437880254 L410.3753865247357,354.19925622734877 M410.3753865247357,354.19925622734877 L414.6350976284646,351.6772521521001 M414.6350976284646,351.6772521521001 L418.5258720324645,348.68488610504744 M418.5258720324645,348.68488610504744 L421.82152624815416,345.39611939599035 M421.82152624815416,345.39611939599035 L424.3305002990773,342.00213543690944 M424.3305002990773,342.00213543690944 L425.90698655315487,338.7002291528328 M425.90698655315487,338.7002291528328 L426.4594031702072,335.6823231607333 M426.4594031702072,335.6823231607333 L425.9557056968919,333.1237979408283 M425.9557056968919,333.1237979408283 L424.4252408293067,331.1733213138655 M424.4252408293067,331.1733213138655 L421.9570198277311,329.94420431268503 M390.4592282582615,359.6277762961436 L386.3825278669253,359.3274341382503 M386.3825278669253,359.3274341382503 L381.7483508376162,359.16969002017606 M381.7483508376162,359.16969002017606 L376.82594486310364,359.1636956228476 M376.82594486310364,359.1636956228476 L371.9012920928846,359.3097960758578 M371.9012920928846,359.3097960758578 L367.26050066141494,359.5995107995134 M367.26050066141494,359.5995107995134 L363.1732056270536,360.01600334130177 M363.1732056270536,360.01600334130177 L359.87691112659786,360.535090716199 M359.87691112659786,360.535090716199 L357.5631987956412,361.12661042429374 M357.5631987956412,361.12661042429374 L356.36658297688035,361.75619885853496 M356.36658297688035,361.75619885853496 L356.3566956233881,362.38726326344073 M356.3566956233881,362.38726326344073 L357.5342019791359,362.98313828651976 M357.5342019791359,362.98313828651976 L359.8307564109082,363.50918061522003 M359.8307564109082,363.50918061522003 L363.1129481294612,363.93480882991736 M363.1129481294612,363.93480882991736 L367.1900353370713,364.23527173800056 M367.1900353370713,364.23527173800056 L371.825045121898,364.39310194551587 M371.825045121898,364.39310194551587 L376.74853259570534,364.3991183890054 M376.74853259570534,364.3991183890054 L381.6742717000762,364.2529646081433 M381.6742717000762,364.2529646081433 L386.31590203377635,363.96314798472434 M386.31590203377635,363.96314798472434 L390.4036005709621,363.54651485110514 M390.4036005709621,363.54651485110514 L393.6997653125548,363.0272891418822 M393.6997653125548,363.0272891418822 L396.0128491266595,362.4356589159578 M396.0128491266595,362.4356589159578 L397.2084780888354,361.8060188954993 M397.2084780888354,361.8060188954993 L397.2172514652301,361.17496899522683 M397.2172514652301,361.17496899522683 L396.03875387045383,360.5791744266364 M396.03875387045383,360.5791744266364 L393.74155929637527,360.05325741671726 M393.74155929637527,360.05325741671726 L390.4592282582615,359.6277762961436 M390.4592282582615,359.6277762961436 L390.96429512383423,393.99643036843673 M356.93803886241784,340.26547671240905 L353.67681929858435,336.91158016755116 M353.67681929858435,336.91158016755116 L349.81062037089805,333.877645343592 M349.81062037089805,333.877645343592 L345.5640747902914,331.33993617676805 M345.5640747902914,331.33993617676805 L341.1839041278633,329.4458920775946 M341.1839041278633,329.4458920775946 L336.92459935360233,328.3055810978425 M336.92459935360233,328.3055810978425 L333.0336422628125,327.9852827433328 M333.0336422628125,327.9852827433328 L329.7371476982894,328.5036515071691 M329.7371476982894,328.5036515071691 L327.22670719465503,329.830614678317 M327.22670719465503,329.830614678317 L325.64826227679856,331.88910808731 M325.64826227679856,331.88910808731 L325.0936120759132,334.55955450752083 M325.0936120759132,334.55955450752083 L325.59506540853215,337.6867756779682 M325.59506540853215,337.6867756779682 L327.1235408175498,341.0890354104188 M327.1235408175498,341.0890354104188 L329.5902468571431,344.5685805425037 M329.5902468571431,344.5685805425037 L332.8518287778498,347.92314244800735 M332.8518287778498,347.92314244800735 L336.71870316799965,350.9577085826526 M336.71870316799965,350.9577085826526 L340.96608646668017,353.4958687899084 M340.96608646668017,353.4958687899084 L345.3470605965816,355.3900810700127 M345.3470605965816,355.3900810700127 L349.60695603159814,356.5302357576411 M349.60695603159814,356.5302357576411 L353.4981475990907,356.85009212245944 M353.4981475990907,356.85009212245944 L356.7944767743352,356.3310948648854 M356.7944767743352,356.3310948648854 L359.30438513359,355.00346680744144 M359.30438513359,355.00346680744144 L360.8820520180878,352.9444119609848 M360.8820520180878,352.9444119609848 L361.43585524214774,350.2736513206653 M361.43585524214774,350.2736513206653 L360.93368325302595,347.1464204512658 M360.93368325302595,347.1464204512658 L359.40478161142454,343.74446595811696 M359.40478161142454,343.74446595811696 L356.93803886241784,340.26547671240905 M356.93803886241784,340.26547671240905 L340.6874425279487,364.94806249433987 M388.434318555198,310.58830641377773 L384.3587463096066,308.0390942309063 M384.3587463096066,308.0390942309063 L379.7257259834336,306.4305766319121 M379.7257259834336,306.4305766319121 L374.8044826504386,305.85620644388626 M374.8044826504386,305.85620644388626 L369.88097713001383,306.349350445627 M369.88097713001383,306.349350445627 L365.2413054601702,307.88136542156377 M365.2413054601702,307.88136542156377 L361.1550733757206,310.3632376482734 M361.1550733757206,310.3632376482734 L357.8597489829372,313.6507670992349 M357.8597489829372,313.6507670992349 L355.54684785556867,317.5529369209724 M355.54684785556867,317.5529369209724 L354.35081256386553,321.84299265993263 M354.35081256386553,321.84299265993263 L354.3411905372964,326.2716359162834 M354.3411905372964,326.2716359162834 L355.5185851834191,330.5814813613345 M355.5185851834191,330.5814813613345 L357.814609156795,334.5220423507969 M357.814609156795,334.5220423507969 L361.0958482951752,337.86427904966104 M361.0958482951752,337.86427904966104 L365.1716151020118,340.4139044364947 M365.1716151020118,340.4139044364947 L369.8050214154165,342.02271931180064 M369.8050214154165,342.02271931180064 L374.7267601553744,342.59719371935597 M374.7267601553744,342.59719371935597 L379.650753162258,342.1039313408711 M379.650753162258,342.1039313408711 L384.29079612073076,340.5716133592942 M384.29079612073076,340.5716133592942 L388.3771940249847,338.08931094437025 M388.3771940249847,338.08931094437025 L391.6724462035805,334.8013326183644 M391.6724462035805,334.8013326183644 L393.98504885004553,330.8987974531928 M393.98504885004553,330.8987974531928 L395.1806313396436,326.6085378049054 M395.1806313396436,326.6085378049054 L395.1897448337831,322.1799034421793 M395.1897448337831,322.1799034421793 L394.01190776119086,317.8702744762431 M394.01190776119086,317.8702744762431 L391.7156075450668,313.9300906115712 M391.7156075450668,313.9300906115712 L388.434318555198,310.58830641377773 M388.434318555198,310.58830641377773 L387.9269215874951,326.1783439439683" stroke="black"  stroke-width="4"  fill="red"/>
<path d="M678.1320313190702,706.012110583843 L434.74526880564326,327.49066030602927 M650.8518674611896,733.2837968070451 L407.4067166979005,354.7716898560777 M678.1320313190702,706.012110583843 L680.6025313171779,707.248041126612 M680.6025313171779,707.248041126612 L682.1368752440308,709.2046526820998 M682.1368752440308,709.2046526820998 L682.6458336433373,711.7682685410257 M682.6458336433373,711.7682685410257 L682.0997599304358,714.7899199710889 M682.0997599304358,714.7899199710889 L680.5303156786954,718.0940335761836 M680.5303156786954,718.0940335761836 L678.0286908378225,721.4885254253752 M678.0286908378225,721.4885254253752 L674.7402429165597,724.7760977496675 M674.7402429165597,724.7760977496675 L670.8561235353197,727.7656104790201 M670.8561235353197,727.7656104790201 L666.6021476709229,730.2832803167521 M666.6021476709229,730.2832803167521 L662.2255842183647,732.1827734040701 M662.2255842183647,732.1827734040701 L657.9808632349011,733.3536549342027 M657.9808632349011,733.3536549342027 L654.1147301297867,733.7279035697209 M654.1147301297867,733.7279035697209 L650.8518674611896,733.2837968070451 M434.74526880564326,327.49066030602927 L437.2137415229205,328.719707170004 M437.2137415229205,328.719707170004 L438.7444863679103,330.670090864834 M438.7444863679103,330.670090864834 L439.2484786477999,333.22852068958343 M439.2484786477999,333.22852068958343 L438.6963488594577,336.2463294043244 M438.6963488594577,336.2463294043244 L437.120124873133,339.5481355865818 M437.120124873133,339.5481355865818 L434.6113718192313,342.9420298291736 M434.6113718192313,342.9420298291736 L431.31588869587597,346.23072317106966 M431.31588869587597,346.23072317106966 L427.4252305575846,349.22303356297977 M427.4252305575846,349.22303356297977 L423.1655612837987,351.7450071720898 M423.1655612837987,351.7450071720898 L418.78451524772146,353.6500304695118 M418.78451524772146,353.6500304695118 L414.5367679030483,354.8273756978102 M414.5367679030483,354.8273756978102 L410.6692412602215,355.20863857547454 M410.6692412602215,355.20863857547454 L407.4067166979005,354.7716898560777 M650.8518674611896,733.2837968070451 L648.3819213689837,732.0471951333311 M648.3819213689837,732.0471951333311 L646.8483558902312,730.0900281834629 M646.8483558902312,730.0900281834629 L646.3402544361468,727.5260811719975 M646.3402544361468,727.5260811719975 L646.887055625768,724.5044054512514 M646.887055625768,724.5044054512514 L648.4569312261003,721.200579986029 M648.4569312261003,721.200579986029 L650.9586041271023,717.8066159356506 M650.9586041271023,717.8066159356506 L654.2466735194273,714.519708885671 M654.2466735194273,714.519708885671 L658.1301067854995,711.5308277709989 M658.1301067854995,711.5308277709989 L662.3832344814955,709.0136179511917 M662.3832344814955,709.0136179511917 L666.7589820133276,707.1143079051258 M666.7589820133276,707.1143079051258 L671.0031062425758,705.9432905038607 M671.0031062425758,705.9432905038607 L674.8690101222769,705.5686114519121 M674.8690101222769,705.5686114519121 L678.1320313190702,706.012110583843 M407.4067166979005,354.7716898560777 L404.9387854954344,353.54197767976575 M404.9387854954344,353.54197767976575 L403.40883021012826,351.5910270084155 M403.40883021012826,351.5910270084155 L402.9056998280779,349.03226946135754 M402.9056998280779,349.03226946135754 L403.4585590382326,346.01443375915835 M403.4585590382326,346.01443375915835 L405.0352152281514,342.7129152278158 M405.0352152281514,342.7129152278158 L407.5440022298316,339.319554522145 M407.5440022298316,339.319554522145 L410.8391151261479,336.0315177629284 M410.8391151261479,336.0315177629284 L414.72908772216334,333.039840218663 M414.72908772216334,333.039840218663 L418.98790436415135,330.5183320100176 M418.98790436415135,330.5183320100176 L423.36813499848984,328.61349290743425 M423.36813499848984,328.61349290743425 L427.6152827088763,327.4360075313789 M427.6152827088763,327.4360075313789 L431.4825711148512,327.0543253483254 M431.4825711148512,327.0543253483254 L434.74526880564326,327.49066030602927" stroke="black"  stroke-width="4"  fill="red"/></svg>