<svg viewBox="0 0 800 800" xmlns="http://www.w3.org/2000/svg"><path d="M632.7244177355773,270.3037629622105 L632.7438012068899,243.41166409275803 M632.7438012068899,243.41166409275803 L678.7562799310356,276.6407240702688 M678.7562799310356,276.6407240702688 L710.8166277189684,314.9503074370831 M710.8166277189684,314.9503074370831 L727.309271777772,356.42519445553654 M727.309271777772,356.42519445553654 L727.3956874087277,398.9888584006692 M727.3956874087277,398.9888584006692 L711.0587589963734,440.507013698567 M711.0587589963734,440.507013698567 L679.1061698347058,478.8945638266225 M679.1061698347058,478.8945638266225 L633.1321498281642,512.2208468323961 M633.1321498281642,512.2208468323961 L575.4391525577471,538.807537784327 M575.4391525577471,538.807537784327 L508.9229915420573,557.3142661750121 M508.9229915420573,557.3142661750121 L436.92701906797316,566.8072492866388 M436.92701906797316,566.8072492866388 L363.07298093202684,566.8072492866388 M363.07298093202684,566.8072492866388 L291.07700845794284,557.314266175012 M291.07700845794284,557.314266175012 L224.56084744225308,538.807537784327 M224.56084744225308,538.807537784327 L166.86785017183533,512.2208468323958 M166.86785017183533,512.2208468323958 L120.89383016529422,478.89456382662246 M120.89383016529422,478.89456382662246 L88.9412410036266,440.507013698567 M88.9412410036266,440.507013698567 L72.60431259127233,398.9888584006692 M72.60431259127233,398.9888584006692 L72.69072822222802,356.4251944555365 M72.69072822222802,356.4251944555365 L89.18337228103167,314.950307437083 M89.18337228103167,314.950307437083 L121.24372006896442,276.6407240702687 M121.24372006896442,276.6407240702687 L167.25619879311057,243.41166409275786 M167.25619879311057,243.41166409275786 L224.91073755690184,216.92219622011783 M224.91073755690184,216.92219622011783 L291.31913999843374,198.49343472798506 M291.31913999843374,198.49343472798506 L363.15939668006683,189.04372001953482 M363.15939668006683,189.04372001953482 L436.8406033199332,189.04372001953465 M436.8406033199332,189.04372001953465 L508.68086000156626,198.49343472798515 M508.68086000156626,198.49343472798515 L575.0892624430982,216.92219622011783 M575.0892624430982,216.92219622011783 L632.7438012068899,243.41166409275803 M632.7244177355773,270.3037629622105 L575.0746829798151,243.8120794190039 M575.0746829798151,243.8120794190039 L508.6718113179633,225.38177605365718 M508.6718113179633,225.38177605365718 L436.8375361800008,215.93127058278915 M436.8375361800008,215.93127058278915 L363.16246381999923,215.93127058278924 M363.16246381999923,215.93127058278924 L291.3281886820368,225.381776053657 M291.3281886820368,225.381776053657 L224.92531702018493,243.8120794190039 M224.92531702018493,243.8120794190039 L167.27558226442176,270.30376296221107 M167.27558226442176,270.30376296221107 L121.2669403597663,303.5356013071173 M121.2669403597663,303.5356013071173 L89.20926934146718,341.84838642009595 M89.20926934146718,341.84838642009595 L72.71800645730531,383.32673801607007 M72.71800645730531,383.32673801607007 L72.63160523155591,425.89395563969333 M72.63160523155591,425.89395563969333 L88.96717842656875,467.4155755208256 M88.96717842656875,467.4155755208256 L120.91710878163383,505.8063274053366 M120.91710878163383,505.8063274053366 L166.88729837965278,539.1353887913308 M166.88729837965278,539.1353887913308 L224.57548523114434,565.7242954266419 M224.57548523114434,565.7242954266419 L291.08609750414024,584.2325657008105 M291.08609750414024,584.2325657008105 L363.07606247720463,593.726339580551 M363.07606247720463,593.726339580551 L436.92393752279537,593.726339580551 M436.92393752279537,593.726339580551 L508.91390249585993,584.2325657008105 M508.91390249585993,584.2325657008105 L575.4245147688557,565.7242954266419 M575.4245147688557,565.7242954266419 L633.1127016203494,539.1353887913297 M633.1127016203494,539.1353887913297 L679.0828912183662,505.8063274053367 M679.0828912183662,505.8063274053367 L711.0328215734314,467.4155755208257 M711.0328215734314,467.4155755208257 L727.3683947684441,425.8939556396934 M727.3683947684441,425.8939556396934 L727.2819935426947,383.32673801607007 M727.2819935426947,383.32673801607007 L710.790730658533,341.84838642009595 M710.790730658533,341.84838642009595 L678.7330596402337,303.5356013071174 M678.7330596402337,303.5356013071174 L632.7244177355773,270.3037629622105" stroke="black"  stroke-width="4"  fill="red"/>
<path d="M477.6179006321035,359.8147431676325 L493.9446480414369,371.8335136023977 M493.9446480414369,371.8335136023977 L504.81493550050095,385.75870571345797 M504.81493550050095,385.75870571345797 L509.5958629249108,400.78179479192005 M509.5958629249108,400.78179479192005 L508.00791826754886,416.03005822770604 M508.00791826754886,416.03005822770604 L500.14164544299575,430.6172024630967 M500.14164544299575,430.6172024630967 L486.452740219664,443.6948937042606 M486.452740219664,443.6948937042606 L467.7359339227244,454.50220466599825 M467.7359339227244,454.50220466599825 L445.07898037525473,462.410033302491 M445.07898037525473,462.410033302491 L419.7994350194763,466.9579004969546 M419.7994350194763,466.9579004969546 L393.3679132769643,467.88092698734147 M393.3679132769643,467.88092698734147 L367.32226911905576,465.12534057904884 M367.32226911905576,465.12534057904884 L343.177827480239,458.8516545617549 M343.177827480239,458.8516545617549 L322.3389567406758,449.4252297709258 M322.3389567406758,449.4252297709258 L306.01715105943583,437.39488896824673 M306.01715105943583,437.39488896824673 L295.1605566976193,423.4607771197077 M295.1605566976193,423.4607771197077 L290.39893680656667,408.4334623416431 M290.39893680656667,408.4334623416431 L292.00738031621773,393.1866352982626 M292.00738031621773,393.1866352982626 L299.89064727614124,378.6062604885483 M299.89064727614124,378.6062604885483 L313.5891487603649,365.5391209115644 M313.5891487603649,365.5391209115644 L332.30595505885213,354.74372659553626 M332.30595505885213,354.74372659553626 L354.95331234718833,346.84644962544183 M354.95331234718833,346.84644962544183 L380.2158635664988,342.30535185466437 M380.2158635664988,342.30535185466437 L406.62688645371617,341.38376175927186 M406.62688645371617,341.38376175927186 L432.6532230759506,344.13512246369237 M432.6532230759506,344.13512246369237 L456.78397161789286,350.3998887464603 M456.78397161789286,350.3998887464603 L477.6179006321035,359.8147431676325 M397.98204771546455,448.26035875092407 L398.523615721269,448.01543934721184 M398.523615721269,448.01543934721184 L399.1509831532014,447.8524515876508 M399.1509831532014,447.8524515876508 L399.82768968741664,447.7808646512155 M399.82768968741664,447.7808646512155 L400.51441288625335,447.8048445256794 M400.51441288625335,447.8048445256794 L401.1712378976078,447.9229911498009 M401.1712378976078,447.9229911498009 L401.75999749300234,448.1284452707457 M401.75999749300234,448.1284452707457 L402.2464751508152,448.40926241644047 M402.2464751508152,448.40926241644047 L402.60240089329244,448.74912455158807 M402.60240089329244,448.74912455158807 L402.8070806800705,449.12828044043914 M402.8070806800705,449.12828044043914 L402.8486297328756,449.52469766272424 M402.8486297328756,449.52469766272424 L402.7246208909725,449.91533440609544 M402.7246208909725,449.91533440609544 L402.44227013307983,450.2774904468209 M402.44227013307983,450.2774904468209 L402.017981429903,450.5901176152078 M402.017981429903,450.5901176152078 L401.47641008564585,450.83504483750727 M401.47641008564585,450.83504483750727 L400.8490334032317,450.9980386244961 M400.8490334032317,450.9980386244961 L400.1723138257028,451.06962841649414 M400.1723138257028,451.06962841649414 L399.4855767786779,451.04564757133124 M399.4855767786779,451.04564757133124 L398.8287402868176,450.9274963728729 M398.8287402868176,450.9274963728729 L398.23997420863094,450.72203512163804 M398.23997420863094,450.72203512163804 L397.7534965508181,450.441209923335 M397.7534965508181,450.441209923335 L397.397577291133,450.1013406579627 M397.397577291133,450.1013406579627 L397.19290898486076,449.72218019471677 M397.19290898486076,449.72218019471677 L397.15137378024383,449.3257620017983 M397.15137378024383,449.3257620017983 L397.2753956654608,448.9351281139269 M397.2753956654608,448.9351281139269 L397.55775567383506,448.57297810067655 M397.55775567383506,448.57297810067655 L397.98204771546455,448.26035875092407 M475.62260572069954,405.77177843010196 L475.19828447169596,405.4593249590322 M475.19828447169596,405.4593249590322 L474.9158378989465,405.09737013370795 M474.9158378989465,405.09737013370795 L474.7916755437104,404.70695042922864 M474.7916755437104,404.70695042922864 L474.83302230310125,404.31075345694876 M474.83302230310125,404.31075345694876 L475.03746277841464,403.931808227174 M475.03746277841464,403.931808227174 L475.39312609533465,403.5921349190658 M475.39312609533465,403.5921349190658 L475.8793334672,403.31147379477727 M475.8793334672,403.31147379477727 L476.46783062266513,403.10613382353114 M476.46783062266513,403.10613382353114 L477.1244162940293,402.9880528412569 M477.1244162940293,402.9880528412569 L477.8109371573406,402.9640862899207 M477.8109371573406,402.9640862899207 L478.48749012365755,403.03563345291855 M478.48749012365755,403.03563345291855 L479.11476167564666,403.1985306570165 M479.11476167564666,403.1985306570165 L479.6562970629199,403.4433139841417 M479.6562970629199,403.4433139841417 L480.08062164476024,403.7557596430922 M480.08062164476024,403.7557596430922 L480.36307745995214,404.11770844596384 M480.36307745995214,404.11770844596384 L480.48725284988166,404.5081252973229 M480.48725284988166,404.5081252973229 L480.44591993145184,404.9043232394272 M480.44591993145184,404.9043232394272 L480.24149093246604,405.28327303978506 M480.24149093246604,405.28327303978506 L479.88583409816636,405.6229534721765 M479.88583409816636,405.6229534721765 L479.3996267301746,405.90362264236313 M479.3996267301746,405.90362264236313 L478.8111230989492,406.10896973795775 M478.8111230989492,406.10896973795775 L478.1545259556583,406.22705529075705 M478.1545259556583,406.22705529075705 L477.46799125231985,406.2510228119833 M477.46799125231985,406.2510228119833 L476.7914252485623,406.1794727958023 M476.7914252485623,406.1794727958023 L476.1641444483317,406.01656956929924 M476.1641444483317,406.01656956929924 L475.62260572069954,405.77177843010196 M324.37848618045876,403.4433139841417 L324.80250991075576,403.7557596430922 M324.80250991075576,403.7557596430922 L325.0846172082047,404.11770844596384 M325.0846172082047,404.11770844596384 L325.2084166687241,404.5081252973229 M325.2084166687241,404.5081252973229 L325.16670225431614,404.9043232394272 M325.16670225431614,404.9043232394272 L324.9619083674564,405.28327303978506 M324.9619083674564,405.28327303978506 L324.6059244574577,405.6229534721765 M324.6059244574577,405.6229534721765 L324.1194468352616,405.90362264236313 M324.1194468352616,405.90362264236313 L323.5307454768832,406.1089697379577 M323.5307454768832,406.1089697379577 L322.8740346299137,406.22705529075705 M322.8740346299137,406.22705529075705 L322.18747684843174,406.2510228119833 M322.18747684843174,406.2510228119833 L321.51097973963937,406.1794727958023 M321.51097973963937,406.1794727958023 L320.88385579768374,406.0165695692991 M320.88385579768374,406.0165695692991 L320.3425527775735,405.77177843010196 M320.3425527775735,405.77177843010196 L319.9185323876353,405.4593249590322 M319.9185323876353,405.4593249590322 L319.63643433842793,405.09737013370795 M319.63643433842793,405.09737013370795 L319.51264791534896,404.70695042922864 M319.51264791534896,404.70695042922864 L319.55437616978423,404.31075345694876 M319.55437616978423,404.31075345694876 L319.7591815285707,403.9318082271739 M319.7591815285707,403.9318082271739 L320.1151719143297,403.5921349190658 M320.1151719143297,403.5921349190658 L320.6016495326522,403.31147379477727 M320.6016495326522,403.31147379477727 L321.1903444084102,403.10613382353114 M321.1903444084102,403.10613382353114 L321.8470437790521,402.9880528412569 M321.8470437790521,402.9880528412569 L322.53358771957295,402.9640862899207 M322.53358771957295,402.9640862899207 L323.21007179367206,403.03563345291855 M323.21007179367206,403.03563345291855 L323.8371864931852,403.1985306570165 M323.8371864931852,403.1985306570165 L324.37848618045876,403.4433139841417 M402.0168603832974,360.9783371188152 L401.47558989622183,361.2229922882917 M401.47558989622183,361.2229922882917 L400.84856173961475,361.3858050297623 M400.84856173961475,361.3858050297623 L400.17221810014235,361.4573153032668 M400.17221810014235,361.4573153032668 L399.48586255634916,361.4333610948758 M399.48586255634916,361.4333610948758 L398.8293909565666,361.3153411330408 M398.8293909565666,361.3153411330408 L398.24095195427446,361.1101080979745 M398.24095195427446,361.1101080979745 L397.7547445468132,360.82959482590513 M397.7547445468132,360.82959482590513 L397.3990230072659,360.4901030691635 M397.3990230072659,360.4901030691635 L397.19446839610447,360.11136375617485 M397.19446839610447,360.11136375617485 L397.15295626147497,359.71538588137804 M397.15295626147497,359.71538588137804 L397.2769092458513,359.325185885703 M397.2769092458513,359.325185885703 L397.5591123937006,358.963438125568 M397.5591123937006,358.963438125568 L397.9831687296971,358.6511660127062 M397.9831687296971,358.6511660127062 L398.5244358820282,358.40651864879385 M398.5244358820282,358.40651864879385 L399.1514547984286,358.24371192471153 M399.1514547984286,358.24371192471153 L399.8277854090749,358.1722045020134 M399.8277854090749,358.1722045020134 L400.5141271200617,358.19615774132217 M400.5141271200617,358.19615774132217 L401.1705872520903,358.31417313643954 M401.1705872520903,358.31417313643954 L401.75901977879096,358.51939905309246 M401.75901977879096,358.51939905309246 L402.2452271862523,358.7999042859663 M402.2452271862523,358.7999042859663 L402.600955201391,359.1393889243596 M402.600955201391,359.1393889243596 L402.8055212803063,359.51812367057266 M402.8055212803063,359.51812367057266 L402.8470472477423,359.9141005763531 M402.8470472477423,359.9141005763531 L402.723107292192,360.3043034227715 M402.723107292192,360.3043034227715 L402.4409133845494,360.666057200342 M402.4409133845494,360.666057200342 L402.0168603832974,360.9783371188152 M477.6179006321035,359.8147431676325 L477.61574475896424,368.7802735978577 M477.61574475896424,368.7802735978577 L456.7823945088845,359.3651571070486 M456.7823945088845,359.3651571070486 L432.65231620576185,353.1002164228203 M432.65231620576185,353.1002164228203 L406.6267024099179,350.3487791204744 M406.6267024099179,350.3487791204744 L380.21641302037216,351.27039487324026 M380.21641302037216,351.27039487324026 L354.95456343915913,355.8116190654089 M354.95456343915913,355.8116190654089 L332.30783523316336,363.7091158739517 M332.30783523316336,363.7091158739517 L313.59154894699776,374.50481066926886 M313.59154894699776,374.50481066926886 L299.8934281838738,387.57231390363665 M299.8934281838738,387.57231390363665 L292.0103804821302,402.1530944144908 M292.0103804821302,402.1530944144908 L290.40198194488187,417.4003456247935 M290.40198194488187,417.4003456247935 L295.1634698112727,432.4280783845649 M295.1634698112727,432.4280783845649 L306.01976273272305,446.3625777380657 M306.01976273272305,446.3625777380657 L322.34111501106133,458.39325304838485 M322.34111501106133,458.39325304838485 L343.1794067119032,467.8199399092523 M343.1794067119032,467.8199399092523 L367.32317735103527,474.09380032831655 M367.32317735103527,474.09380032831655 L393.3680976097186,476.84946333468133 M393.3680976097186,476.84946333468133 L419.7988847155279,475.9264111868712 M419.7988847155279,475.9264111868712 L445.0777274889196,471.3784175707814 M445.0777274889196,471.3784175707814 L467.7340514208271,463.47036909547376 M467.7340514208271,463.47036909547376 L486.4503377054452,452.66275765403293 M486.4503377054452,452.66275765403293 L500.1388627408992,439.58470275511854 M500.1388627408992,439.58470275511854 L508.00491725156155,424.99715281835273 M508.00491725156155,424.99715281835273 L509.5928180755517,409.74846521559465 M509.5928180755517,409.74846521559465 L504.81202374863807,394.7249581555726 M504.81202374863807,394.7249581555726 L493.9420384908052,380.7993785398606 M493.9420384908052,380.7993785398606 L477.61574475896424,368.7802735978577 M397.98206846994754,451.5792780395481 L397.5577807921776,451.89190060617244 M397.5577807921776,451.89190060617244 L397.2754236879227,452.25405434595245 M397.2754236879227,452.25405434595245 L397.1514030783375,452.64469225343436 M397.1514030783375,452.64469225343436 L397.19293785583625,453.04111452546374 M397.19293785583625,453.04111452546374 L397.39760405715464,453.4202788902212 M397.39760405715464,453.4202788902212 L397.7535196562446,453.7601516527883 M397.7535196562446,453.7601516527883 L398.2399923106362,454.04097974072175 M398.2399923106362,454.04097974072175 L398.8287523333323,454.2464431061021 M398.8287523333323,454.2464431061021 L399.4855820695722,454.36459552030465 M399.4855820695722,454.36459552030465 L400.17231205343757,454.38857661222374 M400.17231205343757,454.38857661222374 L400.8490246708408,454.31698608358636 M400.8490246708408,454.31698608358636 L401.47639490064,454.1539906194337 M401.47639490064,454.1539906194337 L402.0179606748204,453.90906087689024 M402.0179606748204,453.90906087689024 L402.4422450142064,453.59643049163145 M402.4422450142064,453.59643049163145 L402.72459286817,453.23427072437624 M402.72459286817,453.23427072437624 L402.8486004347097,452.8436299613946 M402.8486004347097,452.8436299613946 L402.80705180930767,452.4472086599986 M402.80705180930767,452.4472086599986 L402.60237412771954,452.0680488696359 M402.60237412771954,452.0680488696359 L402.2464520459707,451.7281832372937 M402.2464520459707,451.7281832372937 L401.7599793915791,451.44736320196847 M401.7599793915791,451.44736320196847 L401.1712258515419,451.24190696687816 M401.1712258515419,451.24190696687816 L400.5144075955716,451.12375912701253 M400.5144075955716,451.12375912701253 L399.82769145960964,451.0997790057924 M399.82769145960964,451.0997790057924 L399.150991885252,451.17136667886706 M399.150991885252,451.17136667886706 L398.52363090574397,451.33435611559185 M398.52363090574397,451.33435611559185 L397.98206846994754,451.5792780395481 M397.98206846994754,451.5792780395481 L397.98204771546455,448.26035875092407 M475.6218281529181,409.0902603927409 L476.16336131114457,409.3350540521809 M476.16336131114457,409.3350540521809 L476.7906356607327,409.49795895584714 M476.7906356607327,409.49795895584714 L477.4671947075231,409.56950970866717 M477.4671947075231,409.56950970866717 L478.15372235186356,409.54554194068476 M478.15372235186356,409.54554194068476 L478.8103127444567,409.4274551721419 M478.8103127444567,409.4274551721419 L479.39881032558907,409.22210596240285 M479.39881032558907,409.22210596240285 L479.8850126957182,408.941433902587 M479.8850126957182,408.941433902587 L480.2406658748197,408.6017499730026 M480.2406658748197,408.6017499730026 L480.44509277377296,408.222796271135 M480.44509277377296,408.222796271135 L480.4864252692443,407.82659424992175 M480.4864252692443,407.82659424992175 L480.36225115810316,407.4361733789542 M480.36225115810316,407.4361733789542 L480.07979824900053,407.07422084955465 M480.07979824900053,407.07422084955465 L479.6554780316885,406.7617719737341 M479.6554780316885,406.7617719737341 L479.1139482137521,406.5169861263661 M479.1139482137521,406.5169861263661 L478.48668311221536,406.3540872451052 M478.48668311221536,406.3540872451052 L477.81013710259737,406.28253934546836 M477.81013710259737,406.28253934546836 L477.1236232979994,406.3065061435606 M477.1236232979994,406.3065061435606 L476.4670443770972,406.4245883415785 M476.4670443770972,406.4245883415785 L475.87855327159207,406.629930426969 M475.87855327159207,406.629930426969 L475.39235089758927,406.9105944408866 M475.39235089758927,406.9105944408866 L475.0366912360008,407.2502712461876 M475.0366912360008,407.2502712461876 L474.83225286095603,407.62922037747205 M474.83225286095603,407.62922037747205 L474.7909065248082,408.0254214288608 M474.7909065248082,408.0254214288608 L474.915067601524,408.4158451529487 M474.915067601524,408.4158451529487 L475.1975112683742,408.7778037048009 M475.1975112683742,408.7778037048009 L475.6218281529181,409.0902603927409 M475.6218281529181,409.0902603927409 L475.62260572069954,405.77177843010196 M324.3792637257862,406.7617719737341 L323.8379696030026,406.5169861263661 M323.8379696030026,406.5169861263661 L323.21086135071624,406.3540872451052 M323.21086135071624,406.3540872451052 L322.5343842318995,406.28253934546836 M322.5343842318995,406.28253934546836 L321.84784735056655,406.3065061435606 M321.84784735056655,406.3065061435606 L321.1911547327246,406.4245883415785 M321.1911547327246,406.4245883415785 L320.60246591099246,406.629930426969 M320.60246591099246,406.629930426969 L320.1159932960899,406.9105944408866 M320.1159932960899,406.9105944408866 L319.7600065723885,407.2502712461876 M319.7600065723885,407.2502712461876 L319.55520332137405,407.62922037747205 M319.55520332137405,407.62922037747205 L319.513475498027,408.0254214288608 M319.513475498027,408.0254214288608 L319.63726065031636,408.4158451529487 M319.63726065031636,408.4158451529487 L319.9193558007916,408.7778037048008 M319.9193558007916,408.7778037048008 L320.34337183245697,409.0902603927409 M320.34337183245697,409.0902603927409 L320.8846692880088,409.3350540521809 M320.8846692880088,409.3350540521809 L321.5117867825476,409.49795895584714 M321.5117867825476,409.49795895584714 L322.1882769357896,409.56950970866717 M322.1882769357896,409.56950970866717 L322.87482765779896,409.54554194068476 M322.87482765779896,409.54554194068476 L323.53153175173253,409.4274551721419 M323.53153175173253,409.4274551721419 L324.12022705595166,409.22210596240285 M324.12022705595166,409.22210596240285 L324.6066996747277,408.941433902587 M324.6066996747277,408.941433902587 L324.962679922802,408.6017499730026 M324.962679922802,408.6017499730026 L325.16747170212557,408.222796271135 M325.16747170212557,408.222796271135 L325.20918568573,407.82659424992175 M325.20918568573,407.82659424992175 L325.08538749626825,407.4361733789542 M325.08538749626825,407.4361733789542 L324.8032830977417,407.07422084955465 M324.8032830977417,407.07422084955465 L324.3792637257862,406.7617719737341 M324.3792637257862,406.7617719737341 L324.37848618045876,403.4433139841417 M402.0168396512684,364.2963577827388 L402.44088829357656,363.9840746473984 M402.44088829357656,363.9840746473984 L402.7230793005156,363.62231714330335 M402.7230793005156,363.62231714330335 L402.84701798211887,363.23211027728024 M402.84701798211887,363.23211027728024 L402.80549244161114,362.83612929239484 M402.80549244161114,362.83612929239484 L402.60092846554755,362.4573906446759 M402.60092846554755,362.4573906446759 L402.24520410707106,362.117902509093 M402.24520410707106,362.117902509093 L401.75900169747354,361.8373943865929 M401.75900169747354,361.8373943865929 L401.1705752194042,361.6321663557977 M401.1705752194042,361.6321663557977 L400.51412183525633,361.5141497449379 M400.51412183525633,361.5141497449379 L399.82778717929943,361.4901962588733 M399.82778717929943,361.4901962588733 L399.15146352078017,361.5617044182097 M399.15146352078017,361.5617044182097 L398.5244510496374,361.7245128194533 M398.5244510496374,361.7245128194533 L397.9831894611276,361.96916270360606 M397.9831894611276,361.96916270360606 L397.5591374841435,362.28143803333495 M397.5591374841435,362.28143803333495 L397.2769372371878,362.6431895199942 M397.2769372371878,362.6431895199942 L397.15298552702626,363.03339353527383 M397.15298552702626,363.03339353527383 L397.19449723501185,363.4293754891758 M397.19449723501185,363.4293754891758 L397.3990497435574,363.80811870367046 M397.3990497435574,363.80811870367046 L397.7547676265755,364.1476139576017 M397.7547676265755,364.1476139576017 L398.24097003617305,364.4281301192975 M398.24097003617305,364.4281301192975 L398.82940298970067,364.63336526850634 M398.82940298970067,364.63336526850634 L399.48586784136666,364.75138644608376 M399.48586784136666,364.75138644608376 L400.17221632984564,364.7753409012306 M400.17221632984564,364.7753409012306 L400.8485530169231,364.7038298910878 M400.8485530169231,364.7038298910878 L401.4755747280827,364.54101547245574 M401.4755747280827,364.54101547245574 L402.0168396512684,364.2963577827388 M402.0168396512684,364.2963577827388 L402.0168603832974,360.9783371188152 M394.8024535421319,455.3927817820937 L393.70959786454785,456.1980185373321 M393.70959786454785,456.1980185373321 L392.98230388672374,457.130840808236 M392.98230388672374,457.130840808236 L392.66284541229334,458.1370446826497 M392.66284541229334,458.1370446826497 L392.76979211079464,459.15814838327987 M392.76979211079464,459.15814838327987 L393.29693335746737,460.1348121341307 M393.29693335746737,460.1348121341307 L394.21364983278903,461.0102736575468 M394.21364983278903,461.0102736575468 L395.46666307277593,461.7336474837686 M395.46666307277593,461.7336474837686 L396.98315602325357,462.26289122051844 M396.98315602325357,462.26289122051844 L398.67498712675905,462.5672396884778 M398.67498712675905,462.5672396884778 L400.4438276012021,462.629008267685 M400.4438276012021,462.629008267685 L402.1868772669595,462.44460483825924 M402.1868772669595,462.44460483825924 L403.80281778118217,462.0247458602328 M403.80281778118217,462.0247458602328 L405.1977398124162,461.39383593556647 M405.1977398124162,461.39383593556647 L406.29057334245937,460.5885473075302 M406.29057334245937,460.5885473075302 L407.0178059513572,459.65568504728844 M407.0178059513572,459.65568504728844 L407.3371778939749,458.64946222795857 M407.3371778939749,458.64946222795857 L407.230139324745,457.6283649670342 M407.230139324745,457.6283649670342 L406.7029219144672,456.65173156520046 M406.7029219144672,456.65173156520046 L405.7861624309571,455.7763173476072 M405.7861624309571,455.7763173476072 L404.53314919097016,455.05299694667156 M404.53314919097016,455.05299694667156 L403.0166992486809,454.52380051569787 M403.0166992486809,454.52380051569787 L401.3249443087806,454.21948239648884 M401.3249443087806,454.21948239648884 L399.55619570506616,454.1577202569974 M399.55619570506616,454.1577202569974 L397.8132325711214,454.3421047416742 M397.8132325711214,454.3421047416742 L396.19735342582516,454.76192373030676 M396.19735342582516,454.76192373030676 L394.8024535421319,455.3927817820937 M422.1248803970841,400.80547755955183 L416.1868728982161,398.12099046767815 M416.1868728982161,398.12099046767815 L409.3084058339314,396.3345746140136 M409.3084058339314,396.3345746140136 L401.88914017703104,395.54998393243835 M401.88914017703104,395.54998393243835 L394.3601195961395,395.8127905026551 M394.3601195961395,395.8127905026551 L387.1587617659835,397.10772928939053 M387.1587617659835,397.10772928939053 L380.7034669740118,399.3595904247853 M380.7034669740118,399.3595904247853 L375.36932501536154,402.4375769501626 M375.36932501536154,402.4375769501626 L371.46633736714597,406.1628898867376 M371.46633736714597,406.1628898867376 L369.2213984691668,410.3191019168423 M369.2213984691668,410.3191019168423 L368.76509349865177,414.6647152419065 M368.76509349865177,414.6647152419065 L370.1240864118311,418.9471882198656 M370.1240864118311,418.9471882198656 L373.21952487349034,422.91761152406065 M373.21952487349034,422.91761152406065 L377.8716155382193,426.34517403704257 M377.8716155382193,426.34517403704257 L383.81002440617493,429.03060093230584 M383.81002440617493,429.03060093230584 L390.68960363048893,430.81774129109357 M390.68960363048893,430.81774129109357 L398.1104374545083,431.60267520574996 M398.1104374545083,431.60267520574996 L405.6411229624006,431.33975196444436 M405.6411229624006,431.33975196444436 L412.843861064427,430.0442633310914 M412.843861064427,430.0442633310914 L419.29993526917127,427.7915451366756 M419.29993526917127,427.7915451366756 L424.63407722781125,424.7125906818526 M424.63407722781125,424.7125906818526 L428.53628546324273,420.98642068641607 M428.53628546324273,420.98642068641607 L430.7798440893587,416.82965880968806 M430.7798440893587,416.82965880968806 L431.2344841328929,412.48392881364305 M431.2344841328929,412.48392881364305 L429.8739230526097,408.2017990681361 M429.8739230526097,408.2017990681361 L426.7773724309188,404.23210026962715 M426.7773724309188,404.23210026962715 L422.1248803970841,400.80547755955183 M472.442456889124,416.5732304440085 L473.83729491868564,417.20378983649186 M473.83729491868564,417.20378983649186 L475.452988475073,417.6234155410232 M475.452988475073,417.6234155410232 L477.1956425777886,417.8077165157789 M477.1956425777886,417.8077165157789 L478.96396188009203,417.74598225524915 M478.96396188009203,417.74598225524915 L480.6551764947495,417.4418028833766 M480.6551764947495,417.4418028833766 L482.17099346970934,416.91285319382325 M482.17099346970934,416.91285319382325 L483.42331053971844,416.1898812716871 M483.42331053971844,416.1898812716871 L484.33935110971174,415.31490614936473 M484.33935110971174,415.31490614936473 L484.8658759997504,414.3387850238354 M484.8658759997504,414.3387850238354 L484.9723017054307,413.31824863543926 M484.9723017054307,413.31824863543926 L484.65244787523415,412.3126037915945 M484.65244787523415,412.3126037915945 L483.9249071545405,411.380299778516 M483.9249071545405,411.380299778516 L482.8319676796187,410.5755103946747 M482.8319676796187,410.5755103946747 L481.43715181024413,409.9450028318468 M481.43715181024413,409.9450028318468 L479.8215196079225,409.5254170833877 M479.8215196079225,409.5254170833877 L478.0789519980562,409.3411350375949 M478.0789519980562,409.3411350375949 L476.3107245123417,409.40286286377494 M476.3107245123417,409.40286286377494 L474.619586004376,409.70701191218564 M474.619586004376,409.70701191218564 L473.1038119909555,410.2359143353811 M473.1038119909555,410.2359143353811 L471.85149489524855,410.95883287674843 M471.85149489524855,410.95883287674843 L470.9354113182073,411.8337607326663 M470.9354113182073,411.8337607326663 L470.4088102922809,412.8098515344672 M470.4088102922809,412.8098515344672 L470.3022927638167,413.8303814885234 M470.3022927638167,413.8303814885234 L470.622060119389,414.83604526149827 M470.622060119389,414.83604526149827 L471.34953952448706,415.76838923059296 M471.34953952448706,415.76838923059296 L472.442456889124,416.5732304440085 M327.56023720243826,410.5755103946747 L326.1660283933674,409.9450028318468 M326.1660283933674,409.9450028318468 L324.55080017327674,409.5254170833877 M324.55080017327674,409.5254170833877 L322.80840999239194,409.3411350375949 M322.80840999239194,409.3411350375949 L321.0401230743802,409.40286286377494 M321.0401230743802,409.40286286377494 L319.34869172803377,409.70701191218564 M319.34869172803377,409.70701191218564 L317.8324084809663,410.2359143353811 M317.8324084809663,410.2359143353811 L316.57939535054834,410.95883287674843 M316.57939535054834,410.95883287674843 L315.6624693823904,411.8337607326663 M315.6624693823904,411.8337607326663 L315.13492856444,412.8098515344672 M315.13492856444,412.8098515344672 L315.0274284573988,413.8303814885233 M315.0274284573988,413.8303814885233 L315.34622754773306,414.83604526149827 M315.34622754773306,414.83604526149827 L316.0728092807865,415.7683892305929 M316.0728092807865,415.7683892305929 L317.16495173457344,416.57323044400846 M317.16495173457344,416.57323044400846 L318.55918265392904,417.20378983649186 M318.55918265392904,417.20378983649186 L320.17447218961524,417.6234155410232 M320.17447218961524,417.6234155410232 L321.91694884512435,417.8077165157789 M321.91694884512435,417.8077165157789 L323.68532758592005,417.74598225524915 M323.68532758592005,417.74598225524915 L325.37683506815404,417.4418028833766 M325.37683506815404,417.4418028833766 L326.89316132226946,416.91285319382325 M326.89316132226946,416.91285319382325 L328.14617447838526,416.1898812716871 M328.14617447838526,416.1898812716871 L329.0630574850039,415.3149061493646 M329.0630574850039,415.3149061493646 L329.5905221962626,414.3387850238354 M329.5905221962626,414.3387850238354 L329.69793048671494,413.31824863543926 M329.69793048671494,413.31824863543926 L329.3790449035313,412.31260379159437 M329.3790449035313,412.31260379159437 L328.6524018164122,411.38029977851596 M328.6524018164122,411.38029977851596 L327.56023720243826,410.5755103946747 M405.1948523661259,371.7775236768439 L406.2870788231689,370.97312950528044 M406.2870788231689,370.97312950528044 L407.0139074646529,370.04130339551494 M407.0139074646529,370.04130339551494 L407.33310201721974,369.03619820312434 M407.33310201721974,369.03619820312434 L407.22612293440983,368.0162350832864 M407.22612293440983,368.0162350832864 L406.69919841942937,367.04068642945555 M406.69919841942937,367.04068642945555 L405.78294821624274,366.16624453000736 M405.78294821624274,366.16624453000736 L404.53063103671695,365.44372751340586 M404.53063103671695,365.44372751340586 L403.0150234844788,364.9151188530421 M403.0150234844788,364.9151188530421 L401.3242083089765,364.61113873457214 M401.3242083089765,364.61113873457214 L399.55644223599353,364.5494451931162 M399.55644223599353,364.5494451931162 L397.81444731019485,364.7336248853696 M397.81444731019485,364.7336248853696 L396.19946578369644,365.1529775879744 M396.19946578369644,365.1529775879744 L394.80534077366144,365.78313495384634 M394.80534077366144,365.78313495384634 L393.713092193677,366.58747733901123 M393.713092193677,366.58747733901123 L392.98620225142975,367.5192635260451 M392.98620225142975,367.5192635260451 L392.66692126316195,368.5243498050742 M392.66692126316195,368.5243498050742 L392.7738085772851,369.54431935389204 M392.7738085772851,369.54431935389204 L393.30065701325594,370.5198983061906 M393.30065701325594,370.5198983061906 L394.2168642560239,371.394387432669 M394.2168642560239,371.394387432669 L395.4691814355496,372.11695778557134 M395.4691814355496,372.11695778557134 L396.9848319482065,372.64561367291867 M396.9848319482065,372.64561367291867 L398.6757232027184,372.9496240895899 M398.6757232027184,372.9496240895899 L400.44358104438817,373.01132406003575 M400.44358104438817,373.01132406003575 L402.1856624058879,372.8271254545879 M402.1856624058879,372.8271254545879 L403.80070523314953,372.40773282919554 M403.80070523314953,372.40773282919554 L405.1948523661259,371.7775236768439 M397.98206846994754,451.5792780395481 L396.92217765205424,452.85047114478067 M396.92217765205424,452.85047114478067 L395.86230354097825,454.12163763362446 M395.86230354097825,454.12163763362446 L394.8024535421319,455.3927817820937 M475.6218281529181,409.0902603927409 L474.5620346374802,411.58459321708557 M474.5620346374802,411.58459321708557 L473.5022417488012,414.0789179918715 M473.5022417488012,414.0789179918715 L472.442456889124,416.5732304440085 M324.3792637257862,406.7617719737341 L325.4396073963393,408.0330432994075 M325.4396073963393,408.0330432994075 L326.49993435702726,409.3042880151748 M326.49993435702726,409.3042880151748 L327.56023720243826,410.5755103946747 M402.0168396512684,364.2963577827388 L403.07618031400966,366.79008921647375 M403.07618031400966,366.79008921647375 L404.1355203530434,369.2838126047476 M404.1355203530434,369.2838126047476 L405.1948523661259,371.7775236768439 M422.1248803970841,400.80547755955183 L422.12087755448385,459.1966379737096 M423.4524926910699,459.7348084136732 L422.12087755448385,459.1966379737096 M422.1243995388712,484.461128154909 L426.5238906617089,480.4093855729707 M426.5238906617089,480.4093855729707 L429.57065273322684,476.14966156512423 M429.57065273322684,476.14966156512423 L431.1093827755747,471.89921200585314 M431.1093827755747,471.89921200585314 L431.06171824293716,467.874792548807 M431.06171824293716,467.874792548807 L429.4302105954041,464.2816015631333 M429.4302105954041,464.2816015631333 L426.91849549226936,461.7497230286916 M426.91849549226936,461.7497230286916 L423.4524926910699,459.7348084136732 M377.8756196487189,484.74095919065365 L383.6514359342093,486.40738317241323 M383.6514359342093,486.40738317241323 L390.33097788301006,487.5167917258514 M390.33097788301006,487.5167917258514 L397.54503107882886,488.0078347514224 M397.54503107882886,488.0078347514224 L404.8947987089021,487.85335634398854 M404.8947987089021,487.85335634398854 L411.97397811692264,487.0618980809794 M411.97397811692264,487.0618980809794 L417.3833123885913,485.9463318627417 M417.3833123885913,485.9463318627417 L422.1243995388712,484.461128154909 M377.8791032640013,458.91682909161324 L373.3256588641413,461.36124699610014 M373.3256588641413,461.36124699610014 L370.24599631454606,464.63282779256906 M370.24599631454606,464.63282779256906 L368.81040267979733,468.55085311854333 M368.81040267979733,468.55085311854333 L369.09833916206935,472.8988546592456 M369.09833916206935,472.8988546592456 L371.09402366446307,477.436569156666 M371.09402366446307,477.436569156666 L373.98485526461735,481.1819850898655 M373.98485526461735,481.1819850898655 L377.8756196487189,484.74095919065365 M420.7038706122238,458.14818708825874 L414.9138832461285,454.95180665726565 M414.9138832461285,454.95180665726565 L408.3635991645568,452.8453818182283 M408.3635991645568,452.8453818182283 L401.386953111431,451.9362682820133 M401.386953111431,451.9362682820133 L394.33960335453736,452.2707993668829 M394.33960335453736,452.2707993668829 L387.580804748479,453.8319285010139 M387.580804748479,453.8319285010139 L382.4183283588298,456.01425279258285 M382.4183283588298,456.01425279258285 L377.8791032640013,458.91682909161324 M422.12087755448385,459.1966379737096 L420.7038706122238,458.14818708825874 M422.1189611458252,563.7744318033509 L419.8717166917635,562.1630494091601 M419.8717166917635,562.1630494091601 L417.45772943226484,559.8313314539279 M417.45772943226484,559.8313314539279 L414.897256385086,556.7988378804308 M414.897256385086,556.7988378804308 L411.2927084208517,551.7102536442399 M411.2927084208517,551.7102536442399 L405.7376011815692,542.2770359511936 M405.7376011815692,542.2770359511936 L400,530.7464333132916 M422.1243995388712,484.461128154909 L431.1162779580628,528.9249469444729 M431.1162779580628,528.9249469444729 L432.3038404904213,546.1216517194384 M432.3038404904213,546.1216517194384 L431.63215233294653,555.7024069639401 M431.63215233294653,555.7024069639401 L430.26299452019964,560.7417314466898 M430.26299452019964,560.7417314466898 L428.7692924758195,563.2301887749505 M428.7692924758195,563.2301887749505 L427.3991911466463,564.3468033571884 M427.3991911466463,564.3468033571884 L426.2377858507606,564.7565117805889 M426.2377858507606,564.7565117805889 L424.68000676642964,564.7581562978396 M424.68000676642964,564.7581562978396 L423.4383988685811,564.4125630642856 M423.4383988685811,564.4125630642856 L422.1189611458252,563.7744318033509 M423.4524926910699,459.7348084136732 L482.55534434662053,551.6477552557062 M482.55534434662053,551.6477552557062 L477.59538388760427,550.9836801949825 M477.59538388760427,550.9836801949825 L471.71642684894186,551.5632430944372 M471.71642684894186,551.5632430944372 L465.26010397353036,553.3526946635111 M465.26010397353036,553.3526946635111 L458.6015356107914,556.2480131178093 M458.6015356107914,556.2480131178093 L452.1275663523325,560.0809750333276 M452.1275663523325,560.0809750333276 L446.2143075552893,564.6288741548062 M446.2143075552893,564.6288741548062 L441.2053090819612,569.6275195890129 M441.2053090819612,569.6275195890129 L437.39161836603057,574.7865027746025 M437.39161836603057,574.7865027746025 L434.9948810331706,579.8060905168769 M434.9948810331706,579.8060905168769 L434.1544483920323,584.3945932713955 M434.1544483920323,584.3945932713955 L434.91928194756315,588.2853606753886 M434.91928194756315,588.2853606753886 L437.2450655201353,591.2522091902489 M437.2450655201353,591.2522091902489 L440.99675554617227,593.1226352833522 M440.99675554617227,593.1226352833522 L445.9564001260181,593.7878310852884 M445.9564001260181,593.7878310852884 L451.8357929695935,593.2090396420512 M451.8357929695935,593.2090396420512 L458.2932093362713,591.4198339250818 M458.2932093362713,591.4198339250818 L464.9532708953092,588.5241713876785 M464.9532708953092,588.5241713876785 L471.4287895495341,584.6903749892572 M471.4287895495341,584.6903749892572 L477.3433050512804,580.1413219810152 M477.3433050512804,580.1413219810152 L482.3529761521761,575.1414741231067 M482.3529761521761,575.1414741231067 L486.1665994773511,569.9815165079277 M486.1665994773511,569.9815165079277 L488.5625534551911,564.961404612842 M488.5625534551911,564.961404612842 L489.4016550554985,560.3729389838587 M489.4016550554985,560.3729389838587 L488.63525097260947,556.4827870416048 M488.63525097260947,556.4827870416048 L486.30802465705136,553.516967124348 M486.30802465705136,553.516967124348 L482.55534434662053,551.6477552557062 M400,530.7464333132916 L408.8236667719746,536.4251742109983 M408.8236667719746,536.4251742109983 L412.99513313873257,537.3312277349321 M412.99513313873257,537.3312277349321 L415.94320647143263,537.1416281990128 M415.94320647143263,537.1416281990128 L418.02822619232984,536.5112232005005 M418.02822619232984,536.5112232005005 L420.16574683081666,535.3483544364678 M420.16574683081666,535.3483544364678 L421.99742693544187,533.8386412760015 M421.99742693544187,533.8386412760015 L423.51366879475637,532.1328786245059 M423.51366879475637,532.1328786245059 L424.89561072594773,530.108391501614 M424.89561072594773,530.108391501614 L426.135362356219,527.7767508509614 M426.135362356219,527.7767508509614 L427.2258493741939,525.1512521914594 M427.2258493741939,525.1512521914594 L428.43700615782234,521.2196213644681 M428.43700615782234,521.2196213644681 L429.70954068952886,514.481453999424 M429.70954068952886,514.481453999424 L430.34270497119076,502.7952410553903 M430.34270497119076,502.7952410553903 L428.3905591586623,482.92953283403824 M428.3905591586623,482.92953283403824 L425.7510475671223,470.9605145087862 M425.7510475671223,470.9605145087862 L422.12087755448385,459.1966379737096 M422.1189611458252,563.7744318033509 L422.70549986402244,603.6922923740755 M422.70549986402244,603.6922923740755 L416.50796049515816,603.2349079533947 M416.50796049515816,603.2349079533947 L409.46298695442636,602.9945965913619 M409.46298695442636,602.9945965913619 L401.9798802703417,602.985303832611 M401.9798802703417,602.985303832611 L394.4933624955677,603.207581721227 M394.4933624955677,603.207581721227 L387.43835310353916,603.6484965992776 M387.43835310353916,603.6484965992776 L381.2247317008061,604.2824585702907 M381.2247317008061,604.2824585702907 L376.2135491058748,605.0726393039048 M376.2135491058748,605.0726393039048 L372.6960571551339,605.9731461614738 M372.6960571551339,605.9731461614738 L370.8767797114167,606.9316428466459 M370.8767797114167,606.9316428466459 L370.86159594940113,607.8924558629167 M370.86159594940113,607.8924558629167 L372.6515681726192,608.7997271610924 M372.6515681726192,608.7997271610924 L376.1428192066205,609.6007269280854 M376.1428192066205,609.6007269280854 L381.1325511494865,610.2488822155758 M381.1325511494865,610.2488822155758 L387.3308009109752,610.7064977841225 M387.3308009109752,610.7064977841225 L394.37729002054664,610.9469586965567 M394.37729002054664,610.9469586965567 L401.86237096451157,610.9562799804654 M401.86237096451157,610.9562799804654 L409.35087033636285,610.7339224078651 M409.35087033636285,610.7339224078651 L416.407411424731,610.2928123261391 M416.407411424731,610.2928123261391 L422.6217646561783,609.658599352264 M422.6217646561783,609.658599352264 L427.6327131969481,608.8681643402298 M427.6327131969481,608.8681643402298 L431.1490569803655,607.9674592493643 M431.1490569803655,607.9674592493643 L432.9665386621084,607.0088592628167 M432.9665386621084,607.0088592628167 L432.97968440304436,606.0480817174641 M432.97968440304436,606.0480817174641 L431.18790391316526,605.1409536870882 M431.18790391316526,605.1409536870882 L427.69548769394123,604.340185029585 M427.69548769394123,604.340185029585 L422.70549986402244,603.6922923740755 M377.8756196487189,484.74095919065365 L369.9747385139819,530.3099596057664 M369.9747385139819,530.3099596057664 L370.00991751742293,546.6757716247653 M370.00991751742293,546.6757716247653 L371.59071015412894,554.1628031616979 M371.59071015412894,554.1628031616979 L373.3340512038837,557.393646685813 M373.3340512038837,557.393646685813 L374.97708270237166,558.8054726905904 M374.97708270237166,558.8054726905904 L376.55205833586206,559.3067059651734 M376.55205833586206,559.3067059651734 L377.99847265289156,559.2522531898602 M377.99847265289156,559.2522531898602 L379.710111916169,558.7017035889601 M379.710111916169,558.7017035889601 L381.60190701111435,557.6035752795841 M381.60190701111435,557.6035752795841 L383.6141353389042,555.9733314449643 M383.6141353389042,555.9733314449643 L385.73362303495946,553.8216510906095 M385.73362303495946,553.8216510906095 L388.70238655980245,550.1664614970139 M388.70238655980245,550.1664614970139 L394.2469181713962,541.6402501615146 M394.2469181713962,541.6402501615146 L400,530.7464333132916 M377.8845399353491,538.2238567442588 L380.13110916722496,539.2082242599776 M380.13110916722496,539.2082242599776 L382.5444516032222,539.6649680290375 M382.5444516032222,539.6649680290375 L385.10433182429676,539.5902227319668 M385.10433182429676,539.5902227319668 L388.70820422567573,538.6655187761794 M388.70820422567573,538.6655187761794 L394.2626344233516,535.6493887369305 M394.2626344233516,535.6493887369305 L400,530.7464333132916 M377.8845399353491,538.2238567442588 L359.0099052023241,566.8915823560094 M359.0099052023241,566.8915823560094 L354.0527070145266,561.7929866590787 M354.0527070145266,561.7929866590787 L348.1757742343123,557.180965003515 M348.1757742343123,557.180965003515 L341.72054577474273,553.3234521805098 M341.72054577474273,553.3234521805098 L335.06204927822756,550.4445636866959 M335.06204927822756,550.4445636866959 L328.58712888151615,548.7115924118169 M328.58712888151615,548.7115924118169 L322.67198555098656,548.2252730967823 M322.67198555098656,548.2252730967823 L317.6603524348048,549.0139283353006 M317.6603524348048,549.0139283353006 L313.843515410641,551.0318292037532 M313.843515410641,551.0318292037532 L311.44337158710914,554.1618027879074 M311.44337158710914,554.1618027879074 L310.5995362176909,558.2220406556448 M310.5995362176909,558.2220406556448 L311.361183164865,562.9766291306648 M311.361183164865,562.9766291306648 L313.68415137009424,568.1492397702218 M313.68415137009424,568.1492397702218 L317.4335101205833,573.4392107403048 M317.4335101205833,573.4392107403048 L322.39136925288796,578.5390253300159 M322.39136925288796,578.5390253300159 L328.2695377909713,583.1522000397856 M328.2695377909713,583.1522000397856 L334.7262878845742,587.0105355159146 M334.7262878845742,587.0105355159146 L341.386250779785,589.8897187232378 M341.386250779785,589.8897187232378 L347.86224783485375,591.6224158905022 M347.86224783485375,591.6224158905022 L353.77782538040117,592.107927903822 M353.77782538040117,592.107927903822 L358.7891542825541,591.318127670952 M358.7891542825541,591.318127670952 L362.60502020668,589.2990053511024 M362.60502020668,589.2990053511024 L365.0037398957501,586.1680146240369 M365.0037398957501,586.1680146240369 L365.84603552568035,582.1071889297066 M365.84603552568035,582.1071889297066 L365.0830826979563,577.3525983863619 M365.0830826979563,577.3525983863619 L362.7593341498582,572.1805487740305 M362.7593341498582,572.1805487740305 L359.0099052023241,566.8915823560094 M377.8791032640013,458.91682909161324 L368.89065023613017,492.99125300785306 M368.89065023613017,492.99125300785306 L367.70362656528545,508.81287902920405 M367.70362656528545,508.81287902920405 L368.3750074631006,519.167044969433 M368.3750074631006,519.167044969433 L369.7435589483205,525.7863227913767 M369.7435589483205,525.7863227913767 L371.2366300972011,529.9992199556931 M371.2366300972011,529.9992199556931 L372.6061808013939,532.6978883741634 M372.6061808013939,532.6978883741634 L373.76714037481344,534.4488118843929 M373.76714037481344,534.4488118843929 L375.32435191690894,536.2495546756447 M375.32435191690894,536.2495546756447 L376.56553232572,537.3379966499015 M376.56553232572,537.3379966499015 L377.8845399353491,538.2238567442588 M420.7038706122238,458.14818708825874 L418.8563033167952,514.8647942404988 M418.8563033167952,514.8647942404988 L412.6613751154401,510.98984587124465 M412.6613751154401,510.98984587124465 L405.61914411657057,508.5448083294414 M405.61914411657057,508.5448083294414 L398.1388203087997,507.6717290925814 M398.1388203087997,507.6717290925814 L390.65505470652585,508.42134843087206 M390.65505470652585,508.42134843087206 L383.60270346418787,510.75011373888947 M383.60270346418787,510.75011373888947 L377.39156393187284,514.5227235624545 M377.39156393187284,514.5227235624545 L372.38257740634066,519.5200028701686 M372.38257740634066,519.5200028701686 L368.8668614515268,525.4515885045649 M368.8668614515268,525.4515885045649 L367.0487815120428,531.9728238520247 M367.0487815120428,531.9728238520247 L367.03407070837653,538.704755816434 M367.03407070837653,538.704755816434 L368.8236632909944,545.2561379862577 M368.8236632909944,545.2561379862577 L372.3136194467603,551.2461931214161 M372.3136194467603,551.2461931214161 L377.3011608845733,556.3267426660619 M377.3011608845733,556.3267426660619 L383.49643917489817,560.202458726966 M383.49643917489817,560.202458726966 L390.53937769112736,562.6480338910678 M390.53937769112736,562.6480338910678 L398.02060364737815,563.5212856049503 M398.02060364737815,563.5212856049503 L405.50525843333196,562.7714620713625 M405.50525843333196,562.7714620713625 L412.55828546911806,560.442140898795 M412.55828546911806,560.442140898795 L418.76973166361387,556.6687529700771 M418.76973166361387,556.6687529700771 L423.77858382965746,551.6706565453853 M423.77858382965746,551.6706565453853 L427.293757031795,545.7384009055984 M427.293757031795,545.7384009055984 L429.111006678755,539.2167855988428 M429.111006678755,539.2167855988428 L429.1247959081089,532.4848779279484 M429.1247959081089,532.4848779279484 L427.33439646650373,525.9338942469521 M427.33439646650373,525.9338942469521 L423.84393393294664,519.9445247309276 M423.84393393294664,519.9445247309276 L418.8563033167952,514.8647942404988 M479.09242955041725,555.1036937625768 L474.9591505930503,554.5502205620398 M474.9591505930503,554.5502205620398 L470.05999081086554,555.0331390772691 M470.05999081086554,555.0331390772691 L464.67964454014304,556.5243264962485 M464.67964454014304,556.5243264962485 L459.1307324848853,558.9371186319133 M459.1307324848853,558.9371186319133 L453.73565070898695,562.1313136209117 M453.73565070898695,562.1313136209117 L448.80784708371345,565.9213092598628 M448.80784708371345,565.9213092598628 L444.6336365238087,570.0869311382319 M444.6336365238087,570.0869311382319 L441.4555661758668,574.3861476611432 M441.4555661758668,574.3861476611432 L439.4583390866413,578.5691766902584 M439.4583390866413,578.5691766902584 L438.7580723817668,582.3929237852159 M438.7580723817668,582.3929237852159 L439.39554124228414,585.6351917268626 M439.39554124228414,585.6351917268626 L441.3337938337005,588.1074920471317 M441.3337938337005,588.1074920471317 L444.46027100669767,589.6660973221307 M444.46027100669767,589.6660973221307 L448.5933288296042,590.2203470487466 M448.5933288296042,590.2203470487466 L453.4927950318498,589.7379657070102 M453.4927950318498,589.7379657070102 L458.8738981037925,588.2469404752369 M458.8738981037925,588.2469404752369 L464.4238439648432,585.8339156519984 M464.4238439648432,585.8339156519984 L469.82000299464505,582.6391445135789 M469.82000299464505,582.6391445135789 L474.7486768382111,578.8483461244385 M474.7486768382111,578.8483461244385 L478.92335450060796,574.6818892296717 M478.92335450060796,574.6818892296717 L482.101381828883,570.3819881744541 M482.101381828883,570.3819881744541 L484.09806235005544,566.1986036934363 M484.09806235005544,566.1986036934363 L484.7974097060625,562.3748783745652 M484.7974097060625,562.3748783745652 L484.1588490721806,559.1330425843167 M484.1588490721806,559.1330425843167 L482.21959172256953,556.6614545938419 M482.21959172256953,556.6614545938419 L479.09242955041725,555.1036937625768 M419.2417324581581,604.2385743028195 L414.0770649166929,603.8574045498136 M414.0770649166929,603.8574045498136 L408.2061494202655,603.6571364577611 M408.2061494202655,603.6571364577611 L401.97009073214565,603.6493865088237 M401.97009073214565,603.6493865088237 L395.7311893959084,603.8346248147791 M395.7311893959084,603.8346248147791 L389.8519085552849,604.2020647914084 M389.8519085552849,604.2020647914084 L384.67383906449214,604.7303877969155 M384.67383906449214,604.7303877969155 L380.49787134905193,605.3888870807599 M380.49787134905193,605.3888870807599 L377.5667084755245,606.1393236343057 M377.5667084755245,606.1393236343057 L376.0507684495643,606.9380759238287 M376.0507684495643,606.9380759238287 L376.0382557893994,607.7387495362083 M376.0382557893994,607.7387495362083 L377.5300215054699,608.494806863731 M377.5300215054699,608.494806863731 L380.4394780602599,609.1622869896704 M380.4394780602599,609.1622869896704 L384.5976074046958,609.7023970184812 M384.5976074046958,609.7023970184812 L389.76276614147844,610.0837257312836 M389.76276614147844,610.0837257312836 L395.6347375346979,610.2840993260393 M395.6347375346979,610.2840993260393 L401.8721635351614,610.2918671275389 M401.8721635351614,610.2918671275389 L408.1124433963429,610.1065732146913 M408.1124433963429,610.1065732146913 L413.9927879151775,609.7389906211986 M413.9927879151775,609.7389906211986 L419.17136441222686,609.2104996687127 M419.17136441222686,609.2104996687127 L423.3471695899177,608.5518238030515 M423.3471695899177,608.5518238030515 L426.2775376183579,607.8012510280835 M426.2775376183579,607.8012510280835 L427.7922293022063,607.0024236483812 M427.7922293022063,607.0024236483812 L427.8033261048316,606.2017705472434 M427.8033261048316,606.2017705472434 L426.3103046482481,605.4458227402903 M426.3103046482481,605.4458227402903 L423.4000364435084,604.7785009238333 M423.4000364435084,604.7785009238333 L419.2417324581581,604.2385743028195 M355.545850506011,567.4371176586852 L351.4148073921937,563.1882026991918 M351.4148073921937,563.1882026991918 L346.5172751804493,559.3447671185065 M346.5172751804493,559.3447671185065 L341.137813768333,556.1301165170644 M341.137813768333,556.1301165170644 L335.588966597272,553.7310262655037 M335.588966597272,553.7310262655037 L330.19312373871094,552.2869025155371 M330.19312373871094,552.2869025155371 L325.26380926073574,551.8816934965255 M325.26380926073574,551.8816934965255 L321.0874709898121,552.538983378295 M321.0874709898121,552.538983378295 L317.9068376984374,554.220647762091 M317.9068376984374,554.220647762091 L315.90681895358284,556.8290354112709 M315.90681895358284,556.8290354112709 L315.2037261757027,560.2126079864115 M315.2037261757027,560.2126079864115 L315.8385223091439,564.1747604471586 M315.8385223091439,564.1747604471586 L317.7743856289416,568.4852331615398 M317.7743856289416,568.4852331615398 L320.89885347927515,572.8934724933731 M320.89885347927515,572.8934724933731 L325.03035735475123,577.1432356728881 M325.03035735475123,577.1432356728881 L329.9287439551512,580.9874705463528 M329.9287439551512,580.9874705463528 L335.3092646255033,584.2026838908787 M335.3092646255033,584.2026838908787 L340.85913326505124,586.6019844102667 M340.85913326505124,586.6019844102667 L346.25572251902247,588.0459196759709 M346.25572251902247,588.0459196759709 L351.1853410269723,588.4505695086025 M351.1853410269723,588.4505695086025 L355.3614680380281,587.7924844921552 M355.3614680380281,587.7924844921552 L358.5414231757764,586.1099626377444 M358.5414231757764,586.1099626377444 L360.54045550980607,583.5008771822371 M360.54045550980607,583.5008771822371 L361.24247403821454,580.1168951793898 M361.24247403821454,580.1168951793898 L360.60677217505804,576.1547417545789 M360.60677217505804,576.1547417545789 L358.6703698021887,571.8446606168869 M358.6703698021887,571.8446606168869 L355.545850506011,567.4371176586852 M415.39367562432466,518.3196552759164 L410.2312112095194,515.0904798658723 M410.2312112095194,515.0904798658723 L404.36263384638886,513.0529085154353 M404.36263384638886,513.0529085154353 L398.1289723467084,512.3253329709628 M398.1289723467084,512.3253329709628 L391.89243790773327,512.9500325857318 M391.89243790773327,512.9500325857318 L386.0154316128319,514.890701967554 M386.0154316128319,514.890701967554 L380.83946107900584,518.0346036328444 M380.83946107900584,518.0346036328444 L376.66531650983535,522.199060327504 M376.66531650983535,522.199060327504 L373.7355891157014,527.1420938496682 M373.7355891157014,527.1420938496682 L372.22058126046306,532.5764830690977 M372.22058126046306,532.5764830690977 L372.20838576769773,538.1864200137935 M372.20838576769773,538.1864200137935 L373.6997655643306,543.6458781628965 M373.6997655643306,543.6458781628965 L376.60809977847856,548.6375474087394 M376.60809977847856,548.6375474087394 L380.7643890546765,552.87128249977 M380.7643890546765,552.87128249977 L385.9270987192768,556.1009925867281 M385.9270987192768,556.1009925867281 L391.7961639971207,558.1389356391005 M391.7961639971207,558.1389356391005 L398.0304556878462,558.8666276963448 M398.0304556878462,558.8666276963448 L404.2676052005152,558.2417917675627 M404.2676052005152,558.2417917675627 L410.14508079629604,556.3007263432321 M410.14508079629604,556.3007263432321 L415.32126549723455,553.1562950499574 M415.32126549723455,553.1562950499574 L419.49531676145915,548.9912709132896 M419.49531676145915,548.9912709132896 L422.4246647522214,544.0477706704173 M422.4246647522214,544.0477706704173 L423.9390972999927,538.6131157222468 M423.9390972999927,538.6131157222468 L423.9506533757342,533.0031879060228 M423.9506533757342,533.0031879060228 L422.45871325991135,527.5440135433994 M422.45871325991135,527.5440135433994 L419.550029886838,522.5528226031677 M419.550029886838,522.5528226031677 L415.39367562432466,518.3196552759164 M458.5065000835753,523.0906340685242 L454.37324936540904,522.5377675138275 M454.37324936540904,522.5377675138275 L449.47397356643705,523.021276523087 M449.47397356643705,523.021276523087 L444.093371043941,524.51301496515 M444.093371043941,524.51301496515 L438.544083350755,526.926277512347 M438.544083350755,526.926277512347 L433.1485193100382,530.1208276100294 M433.1485193100382,530.1208276100294 L428.22016394148693,533.9110622796779 M428.22016394148693,533.9110622796779 L424.0453560214448,538.076775813586 M424.0453560214448,538.076775813586 L420.8666828385155,542.3759492593604 M420.8666828385155,542.3759492593604 L418.8688805935211,546.5587756991143 M418.8688805935211,546.5587756991143 L418.168101631475,550.3822050963615 M418.168101631475,550.3822050963615 L418.805150018125,553.6240255608664 M418.805150018125,553.6240255608664 L420.743096108191,556.0957984444215 M420.743096108191,556.0957984444215 L423.86940199886345,557.6538238674684 M423.86940199886345,557.6538238674684 L428.0024333074141,558.2074637630437 M428.0024333074141,558.2074637630437 L432.9020143318015,557.7244914786314 M432.9020143318015,557.7244914786314 L438.2833718616139,556.2329236645384 M438.2833718616139,556.2329236645384 L443.83369720129986,553.8194256243037 M443.83369720129986,553.8194256243037 L449.2303368397081,550.6242917691463 M449.2303368397081,550.6242917691463 L454.15956956498604,546.833255046488 M454.15956956498604,546.833255046488 L458.3348428973276,542.6667075151219 M458.3348428973276,542.6667075151219 L461.51346897905796,538.3668599621589 M461.51346897905796,538.3668599621589 L463.5107237226281,534.183665867292 M463.5107237226281,534.183665867292 L464.21058184443604,530.3602725184574 M464.21058184443604,530.3602725184574 L463.57244613897,527.1188699253286 M463.57244613897,527.1188699253286 L461.633496015716,524.6478057562956 M461.633496015716,524.6478057562956 L458.5065000835753,523.0906340685242 M458.5065000835753,523.0906340685242 L479.09242955041725,555.1036937625768 M418.6018618658988,560.6968325347178 L413.43707899915916,560.3163282340968 M413.43707899915916,560.3163282340968 L407.5660274562792,560.1164817798198 M407.5660274562792,560.1164817798198 L401.3298178750382,560.1088874614627 M401.3298178750382,560.1088874614627 L395.0907618221768,560.2939825246498 M395.0907618221768,560.2939825246498 L389.21133047512353,560.661022899792 M389.21133047512353,560.661022899792 L384.03312522618194,561.1886784391899 M384.03312522618194,561.1886784391899 L379.85704071532047,561.8463116530282 M379.85704071532047,561.8463116530282 L376.92579224023393,562.59570958774 M376.92579224023393,562.59570958774 L375.40979638929036,563.3933368956425 M375.40979638929036,563.3933368956425 L375.3972700741305,564.1928341148135 M375.3972700741305,564.1928341148135 L376.8890560941598,564.9477498099812 M376.8890560941598,564.9477498099812 L379.79856717987997,565.6141942737994 M379.79856717987997,565.6141942737994 L383.9567848378082,566.1534238221718 M383.9567848378082,566.1534238221718 L389.1220577631423,566.5340811015383 M389.1220577631423,566.5340811015383 L394.99416432626333,566.7340366227637 M394.99416432626333,566.7340366227637 L401.2317440619163,566.7416588714626 M401.2317440619163,566.7416588714626 L407.4721763944835,566.5564962470739 M407.4721763944835,566.5564962470739 L413.3526705490651,566.189326774843 M413.3526705490651,566.189326774843 L418.5313869968378,565.6614931192707 M418.5313869968378,565.6614931192707 L422.707307115841,565.003684649297 M422.707307115841,565.003684649297 L425.63775932121024,564.2541466992446 M425.63775932121024,564.2541466992446 L427.15250492084937,563.4564540366225 M427.15250492084937,563.4564540366225 L427.16361993538,562.6569751934112 M427.16361993538,562.6569751934112 L425.6705781119166,561.9021614262548 M425.6705781119166,561.9021614262548 L422.76025602815935,561.2358757291429 M422.76025602815935,561.2358757291429 L418.6018618658988,560.6968325347178 M418.6018618658988,560.6968325347178 L419.2417324581581,604.2385743028195 M376.1337754123733,536.1666822780849 L372.00212743457274,531.9176215797535 M372.00212743457274,531.9176215797535 L367.10402944739724,528.0739212600316 M367.10402944739724,528.0739212600316 L361.7240692462118,524.8588905814379 M361.7240692462118,524.8588905814379 L356.17481906369125,522.4593209360822 M356.17481906369125,522.4593209360822 L350.7786942051963,521.0146578395509 M350.7786942051963,521.0146578395509 L345.849230033525,520.6088709788994 M345.849230033525,520.6088709788994 L341.6728920609498,521.2655937824206 M341.6728920609498,521.2655937824206 L338.492408126272,522.9467270503216 M338.492408126272,522.9467270503216 L336.4926719462077,525.5546379757006 M336.4926719462077,525.5546379757006 L335.78998409093765,528.9378338433594 M335.78998409093765,528.9378338433594 L336.42527668842257,532.8997188903834 M336.42527668842257,532.8997188903834 L338.3617063611805,537.2100510432447 M338.3617063611805,537.2100510432447 L341.48678298384556,541.618296280111 M341.48678298384556,541.618296280111 L345.61889003255914,545.8681999256631 M345.61889003255914,545.8681999256631 L350.5178437649756,549.7127000546182 M350.5178437649756,549.7127000546182 L355.8988652734782,552.9283021575677 M355.8988652734782,552.9283021575677 L361.44913337113655,555.3280848718043 M361.44913337113655,555.3280848718043 L366.8460065393569,556.7725499614171 M366.8460065393569,556.7725499614171 L371.7757677702037,557.1777768641207 M371.7757677702037,557.1777768641207 L375.9518962106497,556.5202578201654 M375.9518962106497,556.5202578201654 L379.1317059701589,554.8382822059993 M379.1317059701589,554.8382822059993 L381.1304564576348,552.229659993963 M381.1304564576348,552.229659993963 L381.83207127565004,548.84606603999 M381.83207127565004,548.84606603999 L381.1958682102777,544.8841687053368 M381.1958682102777,544.8841687053368 L379.2588985422946,540.5742232609812 M379.2588985422946,540.5742232609812 L376.1337754123733,536.1666822780849 M376.1337754123733,536.1666822780849 L355.545850506011,567.4371176586852 M416.03649822934045,498.5685941238937 L410.8731446135279,495.33899024283363 M410.8731446135279,495.33899024283363 L405.00355850101215,493.3011549008522 M405.00355850101215,493.3011549008522 L398.76882187348724,492.57348373998246 M398.76882187348724,492.57348373998246 L392.53121927452526,493.19824922346965 M392.53121927452526,493.19824922346965 L386.6532065565361,495.13916318323055 M386.6532065565361,495.13916318323055 L381.47634796174253,498.2834538898001 M381.47634796174253,498.2834538898001 L377.3014924829424,502.4484339355037 M377.3014924829424,502.4484339355037 L374.3712717238985,507.3921035466552 M374.3712717238985,507.3921035466552 L372.8560113442709,512.8271868863651 M372.8560113442709,512.8271868863651 L372.8438211725151,518.4378471305938 M372.8438211725151,518.4378471305938 L374.33546566731496,523.8980021030324 M374.33546566731496,523.8980021030324 L377.24430471384306,528.890309589491 M377.24430471384306,528.890309589491 L381.4013155453472,533.1245983970689 M381.4013155453472,533.1245983970689 L386.5649156513329,536.3547257673576 M386.5649156513329,536.3547257673576 L392.4349907721274,538.3929377295109 M392.4349907721274,538.3929377295109 L398.6703550320875,539.1207409263875 M398.6703550320875,539.1207409263875 L404.90857522897636,538.4958254710796 M404.90857522897636,538.4958254710796 L410.78705833354434,536.5545276326452 M410.78705833354434,536.5545276326452 L415.9641270059011,533.4096919194512 M415.9641270059011,533.4096919194512 L420.1388909963497,529.244143192727 M420.1388909963497,529.244143192727 L423.0687336091213,524.3000107269806 M423.0687336091213,524.3000107269806 L424.5834203325246,518.8646690539869 M424.5834203325246,518.8646690539869 L424.5949662431555,513.2540200771155 M424.5949662431555,513.2540200771155 L423.10276123705233,507.79413936265934 M423.10276123705233,507.79413936265934 L420.1935722178316,502.8023096566281 M420.1935722178316,502.8023096566281 L416.03649822934045,498.5685941238937 M416.03649822934045,498.5685941238937 L415.39367562432466,518.3196552759164" stroke="black"  stroke-width="4"  fill="red"/></svg>